<?xml version="1.0" encoding="utf-8"?>
<!-- Generator: Adobe Illustrator 22.0.1, SVG Export Plug-In . SVG Version: 6.00 Build 0)  -->
<svg version="1.1" id="Layer_1" xmlns="http://www.w3.org/2000/svg" xmlns:xlink="http://www.w3.org/1999/xlink" x="0px" y="0px"
	 viewBox="0 0 350 139" style="enable-background:new 0 0 350 139;" xml:space="preserve">
<style type="text/css">
	.st0{fill:#1697F6;}
	.st1{fill:#1E1E1E;}
	.st2{fill:#D5D5D5;}
	.st3{fill:#FF5C51;}
	.st4{fill:#FFC106;}
	.st5{fill:#1FCB38;}
	.st6{opacity:0.95;}
	.st7{fill:#FFFFFF;}
</style>
<title>feature1</title>
<g>
	<g id="Layer_1_1_">
		<polygon class="st0" points="2831,2590.7 -532,1345.1 2831,99.5 		"/>
		
			<image style="overflow:visible;opacity:0.2;enable-background:new    ;" width="361" height="124" xlink:href="500EDF0A.png"  transform="matrix(0.9919 0 0 0.9919 -3.5444 22.5)">
		</image>
		<rect y="26.4" class="st1" width="350.5" height="112.7"/>
		<rect y="-0.1" class="st2" width="350.5" height="26.5"/>
		
			<image style="overflow:visible;opacity:0.15;enable-background:new    ;" width="17" height="16" xlink:href="500EDF0D.png"  transform="matrix(0.9375 0 0 0.9375 12.5313 5.5)">
		</image>
		<circle class="st3" cx="20.5" cy="13.1" r="5.7"/>
		
			<image style="overflow:visible;opacity:0.15;enable-background:new    ;" width="17" height="16" xlink:href="500EDF0C.png"  transform="matrix(0.9375 0 0 0.9375 32.5313 5.5)">
		</image>
		<circle class="st4" cx="40.4" cy="13.1" r="5.7"/>
		
			<image style="overflow:visible;opacity:0.15;enable-background:new    ;" width="17" height="16" xlink:href="500EDF03.png"  transform="matrix(0.9375 0 0 0.9375 51.5313 5.5)">
		</image>
		<circle class="st5" cx="59.4" cy="13.1" r="5.7"/>
		<g class="st6">
			<path class="st7" d="M37.4,62.9v-1.1l6.3,2.5v1l-6.3,2.5v-1.1l5.1-1.9L37.4,62.9z"/>
			<path class="st7" d="M59.8,62h1.2l2,5.7l2-5.7H66l-2.4,6.7h-1.5L59.8,62z"/>
			<path class="st7" d="M67.7,66.2V62h1.1v4.2c0,0.5,0.1,0.9,0.3,1.3c0.2,0.3,0.6,0.5,1,0.4c0.5,0,0.9-0.2,1.2-0.6
				c0.3-0.5,0.5-1,0.4-1.6V62h1.1v6.7h-1.1v-1c-0.2,0.4-0.5,0.7-0.8,0.9c-0.4,0.2-0.8,0.3-1.2,0.3c-0.6,0-1.2-0.2-1.5-0.7
				C67.9,67.6,67.7,66.9,67.7,66.2z"/>
			<path class="st7" d="M80.7,64.8v0.5h-4.8l0,0c-0.1,0.7,0.1,1.4,0.5,2c0.4,0.4,1,0.6,1.6,0.6c0.4,0,0.8-0.1,1.1-0.2
				c0.4-0.1,0.8-0.3,1.2-0.5v1.1c-0.4,0.2-0.8,0.3-1.2,0.4c-0.4,0.1-0.7,0.1-1.1,0.1c-0.9,0.1-1.8-0.3-2.4-0.9
				c-0.6-0.7-0.9-1.6-0.9-2.6c0-0.9,0.3-1.9,0.9-2.6c0.6-0.7,1.4-1,2.3-1c0.8,0,1.5,0.3,2,0.9C80.4,63.2,80.7,64,80.7,64.8z
				 M79.6,64.5c0-0.4-0.2-0.9-0.5-1.2c-0.3-0.4-0.8-0.5-1.3-0.5c-0.5,0-1,0.2-1.3,0.5C76.2,63.6,76,64,76,64.5H79.6z"/>
			<path class="st7" d="M90.7,62h2.8v5.8h2.2v0.9h-5.5v-0.9h2.2v-5h-1.7V62z M92.4,59.4h1.1v1.4h-1.1L92.4,59.4z"/>
			<path class="st7" d="M102.5,64.5v4.2h-1.1v-4.2c0-0.5-0.1-0.9-0.3-1.3c-0.2-0.3-0.6-0.5-1-0.4c-0.5,0-0.9,0.2-1.2,0.5
				c-0.3,0.5-0.5,1-0.4,1.6v3.8h-1.1V62h1.1v1c0.2-0.4,0.5-0.7,0.8-0.9c0.4-0.2,0.8-0.3,1.2-0.3c0.6,0,1.2,0.2,1.5,0.7
				C102.4,63.1,102.6,63.8,102.5,64.5z"/>
			<path class="st7" d="M105.5,62h2.8v5.8h2.2v0.9h-5.5v-0.9h2.2v-5h-1.7L105.5,62z M107.3,59.4h1.1v1.4h-1.1V59.4z"/>
			<path class="st7" d="M114.7,60.1V62h2.5v0.9h-2.5v3.7c0,0.4,0.1,0.7,0.3,1c0.3,0.2,0.6,0.3,1,0.3h1.2v0.9h-1.3
				c-0.6,0.1-1.3-0.1-1.8-0.5c-0.4-0.5-0.6-1.1-0.5-1.7v-3.6h-1.8V62h1.8v-1.9H114.7z"/>
			<path class="st7" d="M126.5,62h1.2l2,5.7l2-5.7h1.1l-2.4,6.7h-1.4L126.5,62z"/>
			<path class="st7" d="M134.4,66.2V62h1.1v4.2c0,0.5,0.1,0.9,0.3,1.3c0.2,0.3,0.6,0.5,1,0.4c0.5,0,0.9-0.2,1.2-0.6
				c0.3-0.5,0.5-1,0.4-1.6V62h1.1v6.7h-1.1v-1c-0.2,0.4-0.5,0.7-0.8,0.9c-0.4,0.2-0.8,0.3-1.2,0.3c-0.6,0-1.2-0.2-1.5-0.7
				C134.6,67.6,134.4,66.9,134.4,66.2z"/>
			<path class="st7" d="M147.4,64.8v0.5h-4.8l0,0c-0.1,0.7,0.1,1.4,0.5,2c0.4,0.4,1,0.6,1.6,0.6c0.4,0,0.8-0.1,1.1-0.2
				c0.4-0.1,0.8-0.3,1.2-0.5v1.1c-0.4,0.2-0.8,0.3-1.2,0.4c-0.4,0.1-0.7,0.1-1.1,0.1c-0.9,0.1-1.8-0.3-2.4-0.9
				c-0.6-0.7-0.9-1.6-0.9-2.6c0-0.9,0.3-1.9,0.9-2.6c0.6-0.7,1.4-1,2.3-1c0.8,0,1.5,0.3,2,0.9C147.1,63.2,147.4,64,147.4,64.8z
				 M146.3,64.5c0-0.4-0.2-0.9-0.5-1.2c-0.3-0.4-0.8-0.5-1.3-0.5c-0.5,0-1,0.2-1.3,0.5c-0.3,0.3-0.5,0.7-0.6,1.2H146.3z"/>
			<path class="st7" d="M151.8,60.1V62h2.5v0.9h-2.5v3.7c0,0.4,0.1,0.7,0.3,1c0.3,0.2,0.6,0.3,1,0.3h1.2v0.9H153
				c-0.6,0.1-1.3-0.1-1.8-0.5c-0.4-0.5-0.6-1.1-0.5-1.7v-3.6h-1.8V62h1.8v-1.9H151.8z"/>
			<path class="st7" d="M157.4,62h2.8v5.8h2.2v0.9h-5.5v-0.9h2.2v-5h-1.7L157.4,62z M159.1,59.4h1.1v1.4h-1.1V59.4z"/>
			<path class="st7" d="M169.3,59.4v0.9h-1.3c-0.3,0-0.6,0.1-0.8,0.2c-0.2,0.2-0.3,0.6-0.2,0.9V62h2.3v0.9H167v5.9h-1.1v-5.9h-1.8
				V62h1.8v-0.5c0-0.6,0.1-1.2,0.5-1.6c0.4-0.4,1-0.6,1.6-0.5L169.3,59.4z"/>
			<path class="st7" d="M175.5,66.6c-0.2,0.5-0.4,1.1-0.7,1.8c-0.2,0.7-0.5,1.3-0.8,1.9c-0.2,0.3-0.4,0.5-0.7,0.7
				c-0.3,0.2-0.7,0.2-1,0.2h-0.9v-0.9h0.7c0.3,0,0.6-0.1,0.8-0.3c0.3-0.4,0.5-0.9,0.7-1.5L171,62h1.2l2,5.3l2-5.3h1.2L175.5,66.6z"
				/>
			<path class="st7" d="M181.4,68.8v-6h-1.9V62h3v6.8c0,0.6-0.1,1.3-0.5,1.8c-0.4,0.4-1,0.7-1.5,0.6h-1.5v-0.9h1.4
				c0.3,0,0.6-0.1,0.8-0.4C181.3,69.6,181.4,69.2,181.4,68.8z M181.4,59.4h1.1v1.4h-1.1V59.4z"/>
			<path class="st7" d="M191,62.2v1.1c-0.3-0.2-0.6-0.3-1-0.4c-0.3-0.1-0.7-0.1-1-0.1c-0.4,0-0.7,0.1-1,0.3
				c-0.2,0.2-0.4,0.4-0.4,0.7c0,0.3,0.1,0.5,0.3,0.7c0.4,0.2,0.9,0.4,1.4,0.4l0.4,0.1c0.5,0.1,0.9,0.3,1.3,0.6
				c0.3,0.3,0.4,0.8,0.4,1.2c0,0.6-0.2,1.2-0.7,1.6c-0.6,0.4-1.3,0.6-2,0.6c-0.3,0-0.7,0-1-0.1c-0.4-0.1-0.8-0.2-1.2-0.3v-1.1
				c0.4,0.2,0.8,0.4,1.2,0.5c0.3,0.1,0.7,0.2,1.1,0.2c0.4,0,0.8-0.1,1.1-0.3c0.3-0.2,0.4-0.5,0.4-0.8c0-0.5-0.5-0.9-1.5-1.1l0,0
				l-0.4-0.1c-0.5-0.1-1-0.3-1.4-0.6c-0.3-0.3-0.5-0.8-0.4-1.2c0-0.6,0.2-1.1,0.7-1.5c0.5-0.4,1.2-0.6,1.9-0.5c0.3,0,0.7,0,1,0.1
				C190.4,62,190.7,62.1,191,62.2z"/>
			<path class="st7" d="M197.9,59.7h1.1l-4.7,10.1h-1.1L197.9,59.7z"/>
			<path class="st7" d="M205.8,62.2v1.1c-0.3-0.2-0.6-0.3-1-0.4c-0.3-0.1-0.7-0.1-1-0.1c-0.4,0-0.8,0.1-1.1,0.2
				c-0.2,0.2-0.4,0.4-0.4,0.7c0,0.3,0.1,0.5,0.3,0.7c0.4,0.2,0.9,0.4,1.4,0.4l0.4,0.1c0.5,0.1,0.9,0.3,1.3,0.6
				c0.3,0.3,0.4,0.8,0.4,1.2c0,0.6-0.2,1.2-0.7,1.6c-0.6,0.4-1.3,0.6-2,0.6c-0.3,0-0.7,0-1-0.1c-0.4-0.1-0.8-0.2-1.2-0.3v-1.1
				c0.4,0.2,0.8,0.4,1.2,0.5c0.3,0.1,0.7,0.2,1.1,0.2c0.4,0,0.8-0.1,1.1-0.3c0.3-0.2,0.4-0.5,0.4-0.8c0-0.5-0.5-0.9-1.5-1.1l0,0
				l-0.4-0.1c-0.5-0.1-1-0.3-1.4-0.6c-0.3-0.3-0.5-0.8-0.4-1.2c0-0.6,0.2-1.1,0.7-1.5c0.5-0.4,1.2-0.6,1.9-0.5c0.3,0,0.7,0,1,0.1
				C205.2,62,205.5,62.1,205.8,62.2z"/>
			<path class="st7" d="M209.3,62h2.8v5.8h2.2v0.9h-5.5v-0.9h2.2v-5h-1.7V62z M211,59.4h1.1v1.4H211V59.4z"/>
			<path class="st7" d="M218.9,62.7c0.1-0.3,0.3-0.5,0.5-0.6c0.2-0.1,0.5-0.2,0.8-0.2c0.5,0,0.9,0.2,1.1,0.6
				c0.3,0.8,0.4,1.6,0.3,2.4v3.9h-1v-3.9c0-0.6,0-1.2-0.2-1.8c-0.1-0.2-0.3-0.4-0.6-0.3c-0.3,0-0.5,0.1-0.7,0.4
				c-0.2,0.6-0.2,1.2-0.2,1.8v3.8h-1v-3.8c0-0.6,0-1.2-0.2-1.8c-0.1-0.2-0.4-0.4-0.6-0.3c-0.3,0-0.5,0.1-0.6,0.4
				c-0.2,0.6-0.2,1.2-0.2,1.8v3.8h-1V62h1v0.6c0.1-0.2,0.3-0.4,0.5-0.6c0.2-0.1,0.4-0.2,0.7-0.2c0.3,0,0.5,0.1,0.8,0.2
				C218.6,62.2,218.8,62.4,218.9,62.7z"/>
			<path class="st7" d="M224.5,67.9v3.4h-1.1V62h1.1v0.9c0.2-0.3,0.4-0.6,0.7-0.8c0.3-0.2,0.7-0.3,1.1-0.3c0.8,0,1.5,0.3,1.9,0.9
				c0.5,0.8,0.7,1.7,0.7,2.6c0.1,0.9-0.2,1.8-0.7,2.6c-0.4,0.6-1.2,1-1.9,0.9c-0.4,0-0.7-0.1-1.1-0.3
				C224.9,68.5,224.6,68.2,224.5,67.9z M227.7,65.3c0-0.7-0.1-1.3-0.4-1.9c-0.2-0.4-0.7-0.7-1.2-0.7c-0.5,0-1,0.2-1.2,0.7
				c-0.6,1.2-0.6,2.6,0,3.9c0.3,0.4,0.7,0.7,1.2,0.7c0.5,0,1-0.2,1.2-0.7C227.6,66.7,227.8,66,227.7,65.3z"/>
			<path class="st7" d="M234,66.3c0,0.4,0.1,0.8,0.3,1.1c0.2,0.3,0.5,0.4,0.8,0.4h1.3v0.9H235c-0.6,0-1.1-0.2-1.5-0.6
				c-0.4-0.5-0.6-1.2-0.5-1.8v-6.1h-1.8v-0.9h2.9V66.3z"/>
			<path class="st7" d="M243.8,64.8v0.5H239l0,0c-0.1,0.7,0.1,1.4,0.5,2c0.4,0.4,1,0.6,1.6,0.6c0.4,0,0.8-0.1,1.1-0.2
				c0.4-0.1,0.8-0.3,1.2-0.5v1.1c-0.4,0.2-0.8,0.3-1.2,0.4c-0.4,0.1-0.7,0.1-1.1,0.1c-0.9,0.1-1.8-0.3-2.4-0.9
				c-0.6-0.7-0.9-1.6-0.9-2.6c0-0.9,0.3-1.9,0.9-2.6c0.6-0.7,1.4-1,2.3-1c0.8,0,1.5,0.3,2,0.9C243.5,63.2,243.8,64,243.8,64.8z
				 M242.7,64.5c0-0.4-0.2-0.9-0.5-1.2c-0.3-0.4-0.8-0.5-1.3-0.5c-0.5,0-1,0.2-1.3,0.5c-0.3,0.3-0.5,0.7-0.6,1.2H242.7z"/>
			<path class="st7" d="M255.9,62.7c0.1-0.3,0.3-0.5,0.5-0.6c0.2-0.1,0.5-0.2,0.8-0.2c0.5,0,0.9,0.2,1.1,0.6
				c0.3,0.8,0.4,1.6,0.3,2.4v3.9h-1v-3.9c0-0.6,0-1.2-0.2-1.8c-0.1-0.2-0.3-0.4-0.6-0.3c-0.3,0-0.5,0.1-0.7,0.4
				c-0.2,0.6-0.2,1.2-0.2,1.8v3.8h-1v-3.8c0-0.6,0-1.2-0.2-1.8c-0.1-0.2-0.4-0.4-0.6-0.3c-0.3,0-0.5,0.1-0.6,0.4
				c-0.2,0.6-0.2,1.2-0.2,1.8v3.8h-1V62h1v0.6c0.1-0.2,0.3-0.4,0.5-0.6c0.2-0.1,0.4-0.2,0.7-0.2c0.3,0,0.5,0.1,0.8,0.2
				C255.7,62.2,255.8,62.4,255.9,62.7z"/>
			<path class="st7" d="M264.4,66.6c-0.2,0.5-0.4,1.1-0.7,1.8c-0.2,0.7-0.5,1.3-0.8,1.9c-0.2,0.3-0.4,0.5-0.7,0.7
				c-0.3,0.2-0.7,0.2-1,0.2h-0.9v-0.9h0.6c0.3,0,0.6-0.1,0.8-0.3c0.3-0.4,0.5-0.9,0.7-1.5l-2.6-6.6h1.2l2,5.3L265,62h1.2L264.4,66.6
				z"/>
			<path class="st7" d="M273.1,64.9v3.8H272v-1c-0.2,0.4-0.5,0.7-0.9,0.9c-0.4,0.2-0.9,0.3-1.3,0.3c-0.6,0-1.2-0.2-1.6-0.6
				c-0.9-0.9-0.8-2.4,0.1-3.2c0,0,0,0,0,0c0.7-0.4,1.4-0.6,2.2-0.6h1.5v-0.2c0-0.4-0.1-0.9-0.4-1.2c-0.4-0.3-0.8-0.4-1.3-0.4
				c-0.4,0-0.8,0.1-1.1,0.2c-0.4,0.1-0.8,0.3-1.1,0.5v-1.1c0.4-0.1,0.8-0.3,1.2-0.3c0.4-0.1,0.7-0.1,1.1-0.1c0.5,0,1,0.1,1.4,0.3
				c0.4,0.1,0.7,0.4,1,0.7c0.2,0.2,0.3,0.5,0.3,0.7C273.1,64,273.1,64.4,273.1,64.9z M270.9,65.3h-0.4c-0.5,0-1,0.1-1.5,0.3
				c-0.3,0.2-0.5,0.6-0.5,1c0,0.4,0.1,0.7,0.4,0.9c0.3,0.2,0.6,0.4,1,0.3c0.6,0,1.1-0.2,1.4-0.6c0.4-0.5,0.6-1.1,0.5-1.8v-0.3
				L270.9,65.3z"/>
			<path class="st7" d="M276.4,67.9v3.4h-1.1V62h1.1v0.9c0.2-0.3,0.4-0.6,0.7-0.8c0.3-0.2,0.7-0.3,1.1-0.3c0.8,0,1.5,0.3,1.9,0.9
				c0.5,0.8,0.7,1.7,0.7,2.6c0.1,0.9-0.2,1.8-0.7,2.6c-0.4,0.6-1.2,1-1.9,0.9c-0.4,0-0.7-0.1-1.1-0.3
				C276.8,68.5,276.5,68.2,276.4,67.9z M279.6,65.3c0-0.7-0.1-1.3-0.4-1.9c-0.2-0.4-0.7-0.7-1.2-0.7c-0.5,0-1,0.2-1.2,0.7
				c-0.6,1.2-0.6,2.6,0,3.9c0.3,0.4,0.7,0.7,1.2,0.7c0.5,0,1-0.2,1.2-0.7C279.5,66.7,279.6,66,279.6,65.3z"/>
			<path class="st7" d="M283.8,67.9v3.4h-1.1V62h1.1v0.9c0.2-0.3,0.4-0.6,0.7-0.8c0.3-0.2,0.7-0.3,1.1-0.3c0.8,0,1.5,0.3,1.9,0.9
				c0.5,0.8,0.7,1.7,0.7,2.6c0.1,0.9-0.2,1.8-0.7,2.6c-0.4,0.6-1.2,1-1.9,0.9c-0.4,0-0.7-0.1-1.1-0.3
				C284.2,68.5,283.9,68.2,283.8,67.9z M287,65.3c0-0.7-0.1-1.3-0.4-1.9c-0.2-0.4-0.7-0.7-1.2-0.7c-0.5,0-1,0.2-1.2,0.7
				c-0.6,1.2-0.6,2.6,0,3.9c0.3,0.4,0.7,0.7,1.2,0.7c0.5,0,1-0.2,1.2-0.7C286.9,66.7,287,66,287,65.3z"/>
		</g>
		<g class="st6">
			<path class="st7" d="M37.4,92.3v-1.1l6.3,2.5v1l-6.3,2.5v-1.1l5.1-1.9L37.4,92.3z"/>
			<path class="st7" d="M59.8,91.3h1.2l2,5.7l2-5.7H66l-2.4,6.7h-1.5L59.8,91.3z"/>
			<path class="st7" d="M67.7,95.5v-4.2h1.1v4.2c0,0.5,0.1,0.9,0.3,1.3c0.2,0.3,0.6,0.5,1,0.4c0.5,0,0.9-0.2,1.2-0.6
				c0.3-0.5,0.5-1,0.4-1.6v-3.8h1.1v6.7h-1.1v-1c-0.2,0.4-0.5,0.7-0.8,0.9c-0.4,0.2-0.8,0.3-1.2,0.3c-0.6,0-1.2-0.2-1.5-0.7
				C67.9,97,67.7,96.2,67.7,95.5z"/>
			<path class="st7" d="M80.7,94.2v0.5h-4.8l0,0c-0.1,0.7,0.1,1.4,0.5,2c0.4,0.4,1,0.6,1.6,0.6c0.4,0,0.8-0.1,1.1-0.2
				c0.4-0.1,0.8-0.3,1.2-0.5v1.1c-0.4,0.2-0.8,0.3-1.2,0.4c-0.4,0.1-0.7,0.1-1.1,0.1c-0.9,0.1-1.8-0.3-2.4-0.9
				c-0.6-0.7-0.9-1.6-0.9-2.6c0-0.9,0.3-1.9,0.9-2.6c0.6-0.7,1.4-1,2.3-1c0.8,0,1.5,0.3,2,0.9C80.4,92.6,80.7,93.4,80.7,94.2z
				 M79.6,93.8c0-0.4-0.2-0.9-0.5-1.2c-0.3-0.4-0.8-0.5-1.3-0.5c-0.5,0-1,0.2-1.3,0.5C76.2,93,76,93.4,76,93.8H79.6z"/>
			<path class="st7" d="M82,93.7h6.4v1H82V93.7z"/>
			<path class="st7" d="M95.2,97.7c-0.3,0.2-0.6,0.3-0.9,0.4c-0.3,0.1-0.7,0.1-1,0.1c-0.9,0-1.8-0.3-2.4-0.9c-1.2-1.5-1.2-3.7,0-5.2
				c0.6-0.6,1.5-1,2.4-0.9c0.3,0,0.6,0,0.9,0.1c0.3,0.1,0.6,0.2,0.9,0.4v1.2c-0.3-0.2-0.6-0.4-0.9-0.6c-0.3-0.1-0.7-0.2-1-0.2
				c-0.6,0-1.2,0.2-1.6,0.7c-0.7,1.2-0.7,2.7,0,3.8c0.4,0.5,1,0.7,1.6,0.7c0.3,0,0.7-0.1,1-0.2c0.3-0.1,0.6-0.3,0.8-0.6L95.2,97.7z"
				/>
			<path class="st7" d="M100.5,95.6c0,0.4,0.1,0.8,0.3,1.1c0.2,0.3,0.5,0.4,0.8,0.4h1.3v0.9h-1.4c-0.6,0-1.1-0.2-1.5-0.6
				c-0.4-0.5-0.6-1.2-0.5-1.8v-6.1h-1.8v-0.9h2.9V95.6z"/>
			<path class="st7" d="M105.5,91.4h2.8v5.8h2.2v0.9h-5.5v-0.9h2.2v-5h-1.7L105.5,91.4z M107.3,88.7h1.1v1.4h-1.1V88.7z"/>
			<path class="st7" d="M125.1,97.3c-0.3,0.3-0.7,0.5-1.1,0.7c-0.4,0.2-0.9,0.2-1.3,0.2c-1,0.1-2-0.4-2.7-1.2
				c-1.3-2.1-1.3-4.8,0-6.9c0.6-0.8,1.6-1.3,2.7-1.2c0.4,0,0.7,0.1,1.1,0.2c0.4,0.1,0.7,0.3,1,0.5v1.2c-0.3-0.3-0.6-0.5-1-0.7
				c-0.3-0.1-0.7-0.2-1.1-0.2c-0.7,0-1.4,0.3-1.8,0.9c-0.4,0.8-0.7,1.8-0.6,2.8c-0.1,1,0.1,1.9,0.6,2.8c0.4,0.6,1.1,0.9,1.8,0.9
				c0.2,0,0.5,0,0.7-0.1c0.2-0.1,0.4-0.2,0.6-0.3v-2.4h-1.3v-1h2.5L125.1,97.3z"/>
			<path class="st7" d="M132.6,94.2v0.5h-4.8l0,0c-0.1,0.7,0.1,1.4,0.5,2c0.4,0.4,1,0.6,1.6,0.6c0.4,0,0.8-0.1,1.1-0.2
				c0.4-0.1,0.8-0.3,1.2-0.5v1.1c-0.4,0.2-0.8,0.3-1.2,0.4c-0.4,0.1-0.7,0.1-1.1,0.1c-0.9,0.1-1.8-0.3-2.4-0.9
				c-0.6-0.7-0.9-1.6-0.9-2.6c0-0.9,0.3-1.9,0.9-2.6c0.6-0.7,1.4-1,2.3-1c0.8,0,1.5,0.3,2,0.9C132.3,92.6,132.6,93.4,132.6,94.2z
				 M131.5,93.8c0-0.4-0.2-0.9-0.5-1.2c-0.3-0.4-0.8-0.5-1.3-0.5c-0.5,0-1,0.2-1.3,0.5c-0.3,0.3-0.5,0.7-0.6,1.2H131.5z"/>
			<path class="st7" d="M139.6,93.9v4.2h-1.1v-4.2c0-0.5-0.1-0.9-0.3-1.3c-0.2-0.3-0.6-0.5-1-0.4c-0.5,0-0.9,0.2-1.2,0.6
				c-0.3,0.5-0.5,1-0.4,1.6v3.8h-1.1v-6.7h1.1v1c0.2-0.4,0.5-0.7,0.8-0.9c0.4-0.2,0.8-0.3,1.2-0.3c0.6,0,1.2,0.2,1.5,0.7
				C139.5,92.5,139.6,93.2,139.6,93.9z"/>
			<path class="st7" d="M147.4,94.2v0.5h-4.8l0,0c-0.1,0.7,0.1,1.4,0.5,2c0.4,0.4,1,0.6,1.6,0.6c0.4,0,0.8-0.1,1.1-0.2
				c0.4-0.1,0.8-0.3,1.2-0.5v1.1c-0.4,0.2-0.8,0.3-1.2,0.4c-0.4,0.1-0.7,0.1-1.1,0.1c-0.9,0.1-1.8-0.3-2.4-0.9
				c-0.6-0.7-0.9-1.6-0.9-2.6c0-0.9,0.3-1.9,0.9-2.6c0.6-0.7,1.4-1,2.3-1c0.8,0,1.5,0.3,2,0.9C147.1,92.6,147.4,93.4,147.4,94.2z
				 M146.3,93.8c0-0.4-0.2-0.9-0.5-1.2c-0.3-0.4-0.8-0.5-1.3-0.5c-0.5,0-1,0.2-1.3,0.5c-0.3,0.3-0.5,0.7-0.6,1.2H146.3z"/>
			<path class="st7" d="M155,92.7c-0.2-0.2-0.5-0.3-0.7-0.4c-0.3-0.1-0.5-0.1-0.8-0.1c-0.6,0-1.2,0.2-1.6,0.7
				c-0.4,0.5-0.6,1.2-0.6,1.9v3.3h-1.1v-6.7h1.1v1.3c0.2-0.4,0.5-0.8,0.9-1.1c0.4-0.3,0.9-0.4,1.4-0.4c0.3,0,0.5,0,0.8,0.1
				c0.2,0.1,0.5,0.2,0.7,0.3L155,92.7z"/>
			<path class="st7" d="M161.9,94.2v3.8h-1.1v-1c-0.2,0.4-0.5,0.7-0.9,0.9c-0.4,0.2-0.9,0.3-1.3,0.3c-0.6,0-1.2-0.2-1.6-0.6
				c-0.9-0.9-0.8-2.4,0.1-3.2c0,0,0,0,0,0c0.7-0.4,1.4-0.6,2.2-0.6h1.5v-0.2c0-0.4-0.1-0.9-0.4-1.2c-0.4-0.3-0.8-0.4-1.3-0.4
				c-0.4,0-0.8,0.1-1.1,0.2c-0.4,0.1-0.8,0.3-1.1,0.5v-1.1c0.4-0.1,0.8-0.3,1.2-0.3c0.4-0.1,0.7-0.1,1.1-0.1c0.5,0,1,0.1,1.4,0.3
				c0.4,0.1,0.7,0.4,1,0.7c0.2,0.2,0.3,0.5,0.3,0.7C161.9,93.3,161.9,93.8,161.9,94.2z M159.7,94.7h-0.4c-0.5,0-1,0.1-1.5,0.3
				c-0.3,0.2-0.5,0.6-0.5,1c0,0.4,0.1,0.7,0.4,0.9c0.3,0.2,0.6,0.4,1,0.3c0.6,0,1.1-0.2,1.4-0.6c0.4-0.5,0.6-1.1,0.5-1.8v-0.3
				L159.7,94.7z"/>
			<path class="st7" d="M166.6,89.4v1.9h2.5v0.9h-2.5v3.7c0,0.4,0.1,0.7,0.3,1c0.3,0.2,0.6,0.3,1,0.3h1.2V98h-1.4
				c-0.6,0.1-1.3-0.1-1.8-0.5c-0.4-0.5-0.6-1.1-0.5-1.7v-3.6h-1.8v-0.9h1.8v-1.9H166.6z"/>
			<path class="st7" d="M177.1,94.2v0.5h-4.8l0,0c-0.1,0.7,0.1,1.4,0.5,2c0.4,0.4,1,0.6,1.6,0.6c0.4,0,0.8-0.1,1.1-0.2
				c0.4-0.1,0.8-0.3,1.2-0.5v1.1c-0.4,0.2-0.8,0.3-1.2,0.4c-0.4,0.1-0.7,0.1-1.1,0.1c-0.9,0-1.8-0.3-2.4-0.9
				c-0.6-0.7-0.9-1.6-0.9-2.6c0-0.9,0.3-1.9,0.9-2.6c0.6-0.7,1.4-1,2.3-1c0.8,0,1.5,0.3,2,0.9C176.8,92.6,177.1,93.4,177.1,94.2z
				 M176,93.8c0-0.4-0.2-0.9-0.5-1.2c-0.3-0.4-0.8-0.5-1.3-0.5c-0.5,0-1,0.2-1.3,0.5c-0.3,0.3-0.5,0.7-0.6,1.2H176z"/>
			<path class="st7" d="M182.9,92.2v-3.5h1.1v9.3h-1.1v-0.8c-0.2,0.3-0.4,0.6-0.7,0.8c-0.3,0.2-0.7,0.3-1.1,0.3
				c-0.8,0-1.5-0.3-1.9-0.9c-0.5-0.8-0.8-1.7-0.7-2.6c-0.1-0.9,0.2-1.8,0.7-2.6c0.4-0.6,1.2-1,1.9-0.9c0.4,0,0.7,0.1,1.1,0.3
				C182.5,91.6,182.7,91.9,182.9,92.2z M179.6,94.7c0,0.7,0.1,1.3,0.4,1.9c0.2,0.4,0.7,0.7,1.2,0.7c0.5,0,1-0.2,1.2-0.7
				c0.6-1.2,0.6-2.6,0-3.9c-0.3-0.4-0.7-0.7-1.2-0.7c-0.5,0-1,0.2-1.2,0.7C179.8,93.4,179.6,94,179.6,94.7z"/>
			<path class="st7" d="M195.4,92.3h-1.5V91l1.2-2.3h1l-0.6,2.3L195.4,92.3z M198.1,92.3h-1.5V91l1.2-2.3h0.9l-0.6,2.3L198.1,92.3z"
				/>
			<path class="st7" d="M204,92c0.1-0.3,0.3-0.5,0.5-0.6c0.2-0.1,0.5-0.2,0.8-0.2c0.5,0,0.9,0.2,1.1,0.6c0.3,0.8,0.4,1.6,0.3,2.4
				v3.9h-1v-3.8c0-0.6,0-1.2-0.2-1.8c-0.1-0.2-0.3-0.4-0.6-0.3c-0.3,0-0.5,0.1-0.7,0.4c-0.2,0.6-0.2,1.2-0.2,1.8v3.8h-1v-3.9
				c0-0.6,0-1.2-0.2-1.8c-0.1-0.2-0.4-0.4-0.6-0.3c-0.3,0-0.5,0.1-0.6,0.4c-0.2,0.6-0.2,1.2-0.2,1.8v3.8h-1v-6.7h1v0.6
				c0.1-0.2,0.3-0.4,0.5-0.6c0.2-0.1,0.4-0.2,0.7-0.2c0.3,0,0.5,0.1,0.8,0.2C203.8,91.5,203.9,91.8,204,92z"/>
			<path class="st7" d="M212.6,95.9c-0.2,0.5-0.4,1.1-0.7,1.8c-0.2,0.7-0.5,1.3-0.8,1.9c-0.2,0.3-0.4,0.5-0.7,0.7
				c-0.3,0.2-0.7,0.2-1,0.2h-0.9v-0.9h0.7c0.3,0,0.6-0.1,0.8-0.3c0.3-0.4,0.5-0.9,0.7-1.5l-2.6-6.6h1.2l2,5.3l2-5.3h1.2L212.6,95.9z
				"/>
			<path class="st7" d="M221.2,94.2v3.8h-1.1v-1c-0.2,0.4-0.5,0.7-0.9,0.9c-0.4,0.2-0.9,0.3-1.3,0.3c-0.6,0-1.2-0.2-1.6-0.6
				c-0.9-0.9-0.8-2.4,0.1-3.2c0,0,0,0,0,0c0.7-0.4,1.4-0.6,2.2-0.6h1.5v-0.2c0-0.4-0.1-0.9-0.4-1.2c-0.4-0.3-0.8-0.4-1.3-0.4
				c-0.4,0-0.8,0.1-1.1,0.2c-0.4,0.1-0.8,0.3-1.1,0.5v-1.1c0.4-0.1,0.8-0.3,1.2-0.3c0.4-0.1,0.7-0.1,1.1-0.1c0.5,0,1,0.1,1.4,0.3
				c0.4,0.1,0.7,0.4,1,0.7c0.2,0.2,0.3,0.5,0.3,0.7C221.2,93.3,221.2,93.8,221.2,94.2z M219,94.7h-0.4c-0.5,0-1,0.1-1.5,0.3
				c-0.3,0.2-0.5,0.6-0.5,1c0,0.4,0.1,0.7,0.4,0.9c0.3,0.2,0.6,0.4,1,0.3c0.6,0,1.1-0.2,1.4-0.6c0.4-0.5,0.6-1.1,0.5-1.8v-0.3
				L219,94.7z"/>
			<path class="st7" d="M224.5,97.2v3.4h-1.1v-9.3h1.1v0.9c0.2-0.3,0.4-0.6,0.7-0.8c0.3-0.2,0.7-0.3,1.1-0.3c0.8,0,1.5,0.3,1.9,0.9
				c0.5,0.8,0.7,1.7,0.7,2.6c0.1,0.9-0.2,1.8-0.7,2.6c-0.4,0.6-1.2,1-1.9,0.9c-0.4,0-0.7-0.1-1.1-0.3
				C224.9,97.8,224.6,97.5,224.5,97.2z M227.7,94.7c0-0.7-0.1-1.3-0.4-1.9c-0.2-0.4-0.7-0.7-1.2-0.7c-0.5,0-1,0.2-1.2,0.7
				c-0.6,1.2-0.6,2.6,0,3.9c0.3,0.4,0.7,0.7,1.2,0.7c0.5,0,1-0.2,1.2-0.7C227.6,96,227.8,95.4,227.7,94.7z"/>
			<path class="st7" d="M231.9,97.2v3.4h-1.1v-9.3h1.1v0.9c0.2-0.3,0.4-0.6,0.7-0.8c0.3-0.2,0.7-0.3,1.1-0.3c0.8,0,1.5,0.3,1.9,0.9
				c0.5,0.8,0.7,1.7,0.7,2.6c0.1,0.9-0.2,1.8-0.7,2.6c-0.4,0.6-1.2,1-1.9,0.9c-0.4,0-0.7-0.1-1.1-0.3
				C232.3,97.8,232.1,97.5,231.9,97.2z M235.1,94.7c0-0.7-0.1-1.3-0.4-1.9c-0.2-0.4-0.7-0.7-1.2-0.7c-0.5,0-1,0.2-1.2,0.7
				c-0.6,1.2-0.6,2.6,0,3.9c0.3,0.4,0.7,0.7,1.2,0.7c0.5,0,1-0.2,1.2-0.7C235,96,235.2,95.4,235.1,94.7L235.1,94.7z"/>
			<path class="st7" d="M238.9,88.7h1.5V90l-1.2,2.3h-0.9l0.6-2.3L238.9,88.7z M241.7,88.7h1.5V90l-1.2,2.3h-0.9l0.6-2.3L241.7,88.7
				z"/>
		</g>
	</g>
</g>
</svg>
