<?xml version="1.0" encoding="UTF-8"?>
<svg width="973px" height="241px" viewBox="0 0 973 241" version="1.1" xmlns="http://www.w3.org/2000/svg" xmlns:xlink="http://www.w3.org/1999/xlink">
    <!-- Generator: Sketch 47.1 (45422) - http://www.bohemiancoding.com/sketch -->
    <title>powered-by-madewithvue-1</title>
    <desc>Created with Sketch.</desc>
    <defs></defs>
    <g id="Page-1" stroke="none" stroke-width="1" fill="none" fill-rule="evenodd">
        <g id="powered-by-madewithvue-1">
            <g id="Text" transform="translate(276.000000, 33.000000)">
                <path d="M0.627938729,108.76113 L0.627938729,65.0515807 C0.624730833,63.9436032 1.22111929,62.9205676 2.18685269,62.3774437 C3.40599205,61.639931 4.81665969,61.2810038 6.24002897,61.3461622 C7.51858912,61.3107083 8.77630142,61.6754449 9.83752272,62.3894353 C10.7739972,62.9554083 11.3469009,63.9693569 11.3484701,65.0635724 L11.3484701,68.9968322 C14.1080864,63.6546521 19.7328291,60.4157378 25.7384451,60.7106049 C28.8283831,60.6860373 31.8288814,61.7470338 34.2165387,63.7085164 C36.7680717,65.7991691 38.7243012,68.5246559 39.8885871,71.611011 C41.450118,68.3200898 43.8796708,65.5173975 46.9156916,63.5046584 C49.6588166,61.7018978 52.8668026,60.7353357 56.1492589,60.7225966 C61.1657593,60.6970242 65.9584469,62.7970928 69.3400692,66.5025699 C73.0414906,70.347891 74.8961985,75.5122931 74.9041929,81.9957763 L74.9041929,108.76113 C74.8043273,109.861227 74.15446,110.836027 73.1773959,111.351325 C72.0026513,112.154987 70.6073239,112.574005 69.1841779,112.55049 C67.7961603,112.562677 66.4385889,112.143673 65.2988846,111.351325 C64.323655,110.839985 63.6737074,109.869577 63.5720876,108.773121 L63.5720876,82.0677261 C63.7419383,79.0083832 62.6496471,76.0132516 60.5501929,73.7814989 C58.7231534,71.8448867 56.173474,70.754649 53.5110968,70.7715958 C50.8414112,70.7703095 48.286529,71.857217 46.4360257,73.7814989 C44.3167864,75.9191252 43.1865612,78.8446696 43.3181978,81.8518765 L43.3181978,108.869055 C43.3533987,110.033202 42.7003519,111.109085 41.6513591,111.615141 C40.4026512,112.254707 39.0125213,112.568208 37.6101744,112.526506 C36.2595821,112.549211 34.9245036,112.236045 33.7248812,111.615141 C32.6503091,111.129308 31.9703755,110.048025 31.9980842,108.869055 L31.9980842,81.9598013 C32.105243,79.017965 31.0398687,76.1539629 29.0361477,73.9973485 C27.2321756,71.9941174 24.6567838,70.859199 21.9610766,70.8795206 C19.2862234,70.8525399 16.7215809,71.9435997 14.8860056,73.8894237 C12.8324629,76.1022628 11.7637594,79.0530959 11.9240691,82.0677261 L11.9240691,108.76113 C11.8224493,109.857585 11.1725017,110.827993 10.1972721,111.339334 C9.02184017,112.141557 7.6269809,112.560433 6.20405403,112.538498 C4.77798726,112.58371 3.37606486,112.162712 2.21083598,111.339334 C1.29540351,110.788406 0.705006378,109.826774 0.627938729,108.76113 Z" id="Shape" fill="#435B71" fill-rule="nonzero"></path>
                <path d="M83.0824954,99.1558214 C83.0824954,93.3998314 85.2409916,89.4026162 89.5579841,87.1641756 C93.8749766,84.925735 100.134616,83.7945231 108.336901,83.7705398 L113.13356,83.7705398 L113.13356,81.73196 C113.202537,78.7178617 112.27056,75.7658992 110.483406,73.337808 C108.716637,70.979451 106.034505,69.8002725 102.437012,69.8002725 C99.6205996,69.7381515 96.8297667,70.3464627 94.2946842,71.575036 C93.0686556,72.2705078 91.7895583,72.8679545 90.4693492,73.3617913 C89.2262319,73.3536265 88.0863254,72.6687633 87.495421,71.575036 C86.744719,70.3972357 86.3530519,69.026401 86.3682063,67.6297846 C86.3682063,65.7590878 88.1109922,64.1602017 91.5965639,62.8331262 C95.1241348,61.4593695 98.879274,60.763672 102.664853,60.7825548 C110.07569,60.7825548 115.559869,62.7811624 119.117391,66.7783777 C122.732818,70.8990598 124.644938,76.2409909 124.465665,81.7199684 L124.465665,108.809096 C124.425367,109.898606 123.839443,110.894678 122.906751,111.45925 C121.747856,112.252229 120.36472,112.651614 118.9615,112.598456 C117.646503,112.631518 116.357124,112.231221 115.292056,111.45925 C114.380881,110.880334 113.815166,109.888088 113.781109,108.809096 L113.781109,104.983761 C108.98445,110.579863 103.552235,113.377913 97.484462,113.377913 C93.7036311,113.521598 90.0119661,112.208052 87.1716466,109.70847 C84.4455458,107.278163 83.0824954,103.760613 83.0824954,99.1558214 Z M94.5225255,97.7527989 C94.3827237,99.6981865 95.091072,101.608978 96.4651721,102.993148 C97.8633093,104.217675 99.6810556,104.853671 101.537638,104.767912 C104.496904,104.675677 107.304592,103.43737 109.368183,101.314318 C111.846456,99.0119217 113.085593,96.5656259 113.085593,93.9754304 L113.085593,89.9582291 L110.387473,89.9582291 C107.734638,89.9243454 105.08252,90.0685693 102.449003,90.3899283 C100.449333,90.6573533 98.5530276,91.4381849 96.9448379,92.6563494 C95.3385035,93.8453094 94.4301489,95.7564515 94.5225255,97.7527989 Z" id="Shape" fill="#435B71" fill-rule="nonzero"></path>
                <path d="M134.023007,91.924859 L134.023007,81.9957763 C133.913572,76.4540128 135.940221,71.082534 139.683064,66.9942273 C143.083936,62.9943354 148.079407,60.7029156 153.329557,60.7345882 C156.303209,60.686366 159.224385,61.5209879 161.723709,63.1329174 C164.048766,64.6058428 165.976028,66.6278205 167.335799,69.0208155 L167.335799,34.7127168 C167.355089,33.6042431 167.97514,32.5937898 168.954671,32.0745547 C170.195417,31.3467713 171.618397,30.9889459 173.055814,31.0432732 C174.477392,30.9802255 175.886348,31.3345487 177.10899,32.0625631 C178.06355,32.599352 178.658169,33.6056308 178.667904,34.7007252 L178.667904,108.749138 C178.586787,109.82613 177.981569,110.794479 177.049032,111.339334 C175.883031,112.161126 174.481651,112.58196 173.055814,112.538498 C171.75577,112.555655 170.488061,112.133085 169.45832,111.339334 C168.546149,110.766009 167.965889,109.788495 167.899406,108.713163 L167.899406,104.887828 C166.555753,107.4122 164.51106,109.494372 162.011508,110.883651 C159.299881,112.537539 156.181949,113.405246 153.005782,113.389905 C147.969291,113.389905 143.544374,111.21542 139.73103,106.86645 C136.023539,102.776979 133.986464,97.4446344 134.023007,91.924859 Z M145.355112,91.924859 C145.362392,94.8734164 146.524717,97.7017415 148.592856,99.8033703 C150.519053,102.024234 153.315715,103.297831 156.255518,103.292939 C159.142219,103.258251 161.897551,102.08109 163.91818,100.01922 C166.220576,97.8447348 167.371774,95.9700408 167.371774,94.395138 L167.371774,82.0197595 C167.477304,78.9791571 166.256356,76.0427561 164.026105,73.9733652 C161.976722,71.9752477 159.225678,70.8601923 156.363443,70.8675289 C153.423012,70.864784 150.619908,72.1115766 148.652815,74.2971396 C146.562984,76.3253328 145.374896,79.1076178 145.355112,82.0197595 L145.355112,91.924859 Z" id="Shape" fill="#435B71" fill-rule="nonzero"></path>
                <path d="M188.740887,91.924859 L188.740887,81.6720018 C188.714475,76.0414007 191.11306,70.6718917 195.3243,66.9342691 C199.587184,62.847342 205.296876,60.6178022 211.201239,60.7345882 C216.786204,60.6153309 222.2081,62.6212182 226.370671,66.3466785 C230.489076,69.8888917 232.803647,75.0900747 232.678277,80.5208038 C232.736224,82.32983 232.480627,84.1352368 231.922803,85.8570862 C231.52604,87.0877115 230.665883,88.1155988 229.524474,88.7230896 C228.577922,89.2267155 227.558231,89.5787517 226.502579,89.7663627 C225.286558,89.9300553 224.059962,90.002208 222.833136,89.9822124 L200.049009,89.9822124 L200.049009,92.4764747 C199.932889,95.8208442 201.399185,99.0244779 204.006252,101.122451 C206.881851,103.354237 210.454217,104.496884 214.091226,104.348204 C217.016442,104.36249 219.899894,103.653985 222.485378,102.285641 C223.973752,101.365243 225.59015,100.670192 227.282036,100.223078 C228.538633,100.251641 229.700448,100.897592 230.387873,101.949875 C231.173362,102.898394 231.628053,104.077224 231.68297,105.307536 C231.68297,107.082299 229.956173,108.877049 226.502579,110.691785 C222.541249,112.618918 218.170471,113.553162 213.767451,113.413888 C206.428564,113.413888 200.432741,111.415281 195.779983,107.418065 C191.16879,103.616385 188.571059,97.8987208 188.740887,91.924859 L188.740887,91.924859 Z M200.061,82.7632416 L217.976519,82.7632416 C219.079454,82.8760424 220.190825,82.6546038 221.166297,82.1276844 C221.800182,81.4378668 222.094581,80.5019426 221.969737,79.5734638 C221.999783,76.8386385 220.861115,74.221011 218.839918,72.3784763 C216.751298,70.388453 213.952895,69.317459 211.069331,69.4045481 C208.218637,69.3437722 205.4478,70.3486285 203.298745,72.2225849 C201.18061,74.0030801 199.988845,76.6514465 200.061,79.4175724 L200.061,82.7632416 Z" id="Shape" fill="#435B71" fill-rule="nonzero"></path>
                <path d="M258.556249,65.6991296 C258.672371,64.2250667 259.595872,62.9367825 260.954578,62.3534604 C262.398333,61.4632422 264.055321,60.9785732 265.751236,60.9504378 C267.236674,60.7600695 268.66089,61.6056977 269.20483,63.0010093 L281.196476,96.5776176 L290.346102,66.7783777 C290.849751,65.1235306 292.180823,64.296107 294.33932,64.296107 C296.497816,64.296107 297.828889,65.1235306 298.332538,66.7783777 L307.398222,96.7574923 L319.485801,62.977026 C319.9175,61.6099784 321.032723,60.9264546 322.83147,60.9264546 C324.526232,60.9621307 326.18128,61.4462322 327.628128,62.3294771 C329.010667,62.9414011 329.935994,64.273873 330.026458,65.7830711 C330.019441,66.3844921 329.871589,66.9759008 329.594758,67.5098681 L312.806454,111.327342 C312.230855,112.838289 310.719908,113.593763 308.273612,113.593763 C305.827316,113.593763 304.280394,112.874264 303.632845,111.435267 L294.243387,83.5906651 L284.961853,111.171451 C284.314304,112.826298 282.695432,113.653721 280.105236,113.653721 C277.706907,113.653721 276.19596,112.826298 275.572394,111.171451 L258.78409,67.5698263 C258.622134,66.9597715 258.545458,66.330224 258.556249,65.6991296 Z" id="Shape" fill="#435B71" fill-rule="nonzero"></path>
                <path d="M336.262113,42.6032198 C336.248446,40.9804566 336.96101,39.4365687 338.20476,38.3941521 C340.870192,36.0915955 344.820862,36.0915955 347.486294,38.3941521 C348.730349,39.4330956 349.449394,40.9704023 349.449394,42.5912281 C349.449394,44.2120539 348.730349,45.7493606 347.486294,46.7883041 C344.849102,49.1655403 340.841952,49.1655403 338.20476,46.7883041 C336.972884,45.7471321 336.26223,44.2161541 336.262113,42.6032198 L336.262113,42.6032198 Z M337.233437,108.76113 L337.233437,65.0515807 C337.238881,63.9521871 337.834087,62.9403385 338.792351,62.401427 C340.01149,61.6639143 341.422158,61.304987 342.845527,61.3701455 C344.283014,61.3151461 345.70618,61.6730181 346.94667,62.401427 C347.929926,62.9227237 348.550595,63.938783 348.565542,65.0515807 L348.565542,108.76113 C348.473628,109.85072 347.843781,110.822484 346.886712,111.351325 C345.700341,112.168312 344.285501,112.588146 342.845527,112.55049 C341.41946,112.595701 340.017538,112.174704 338.852309,111.351325 C337.919772,110.806471 337.314554,109.838122 337.233437,108.76113 L337.233437,108.76113 Z" id="Shape" fill="#435B71" fill-rule="nonzero"></path>
                <path d="M360.329347,95.7022274 L360.329347,41.6318964 C360.394534,40.5198729 361.054732,39.5295755 362.056144,39.0417009 C363.221896,38.3189705 364.569943,37.9445131 365.941437,37.9624528 C367.331312,37.9481886 368.697608,38.3219473 369.886688,39.0417009 C370.908472,39.5143538 371.589568,40.5083859 371.661452,41.6318964 L371.661452,61.3821371 L384.852262,61.3821371 C385.763697,61.3654588 386.619731,61.8183869 387.118683,62.5813017 C388.296656,64.4063362 388.296656,66.7520901 387.118683,68.5771246 C386.619731,69.3400394 385.763697,69.7929674 384.852262,69.7762892 L371.661452,69.7762892 L371.661452,95.6782441 C371.661452,98.2684396 372.221062,100.103161 373.340282,101.18241 C374.459503,102.261658 376.422135,102.801282 379.22818,102.801282 L383.005549,102.801282 C384.352098,102.720935 385.666432,103.233526 386.603043,104.204304 C388.32984,106.182926 388.32984,109.132871 386.603043,111.111492 C385.667351,112.083649 384.352355,112.596498 383.005549,112.514515 L379.22818,112.514515 C366.628958,112.530504 360.329347,106.926408 360.329347,95.7022274 Z" id="Shape" fill="#435B71" fill-rule="nonzero"></path>
                <path d="M396.052459,108.76113 L396.052459,34.7127168 C396.062194,33.6176224 396.656814,32.6113436 397.611373,32.0745547 C398.833745,31.3458852 400.2429,30.9915119 401.66455,31.0552648 C403.085381,31.0139853 404.489403,31.3712216 405.717726,32.0865464 C406.722334,32.5875968 407.368145,33.6024421 407.396556,34.7247085 L407.396556,69.0208155 C410.039786,63.8460507 415.401117,60.6301828 421.210932,60.7345882 C426.321289,60.7498445 431.158159,63.0451593 434.401743,66.9942273 C438.084309,71.1118768 440.068409,76.4728051 439.953875,81.9957763 L439.953875,108.76113 C439.942768,109.929058 439.274881,110.991185 438.227078,111.507217 C437.015268,112.209457 435.634167,112.566138 434.23386,112.538498 C432.869995,112.559798 431.526327,112.207292 430.348567,111.519208 C429.298816,111.00534 428.630082,109.941868 428.62177,108.773121 L428.62177,82.0677261 C428.60568,79.1597218 427.442071,76.3756782 425.384025,74.3211229 C423.444168,72.1245612 420.651866,70.8704285 417.721363,70.8795206 C415.00628,70.8862723 412.410044,71.9939995 410.526376,73.9493819 C408.394616,76.1042298 407.259985,79.0516626 407.396556,82.0797178 L407.396556,108.773121 C407.2928,109.868817 406.643473,110.838299 405.669759,111.351325 C404.49467,112.154266 403.099578,112.573213 401.676541,112.55049 C400.250589,112.594825 398.848939,112.173909 397.683323,111.351325 C396.746185,110.809321 396.136171,109.840477 396.052459,108.76113 Z" id="Shape" fill="#435B71" fill-rule="nonzero"></path>
                <path d="M472.632801,64.180659 C472.674337,63.2452991 473.183575,62.3935641 473.987857,61.914238 C474.810077,61.2921434 475.810863,60.9515395 476.841869,60.9429146 C477.971339,60.8375537 479.031834,61.5003634 479.432064,62.5617868 L493.678139,101.414719 L507.924215,63.0414527 C508.499814,61.674405 509.327237,60.9908812 510.406485,60.9908812 C511.415661,61.0386858 512.389767,61.375876 513.21253,61.9622045 C514.058697,62.3683162 514.631524,63.1866402 514.723478,64.1207008 C514.716908,64.7221793 514.56903,65.3136896 514.291779,65.8474978 L496.915884,111.415752 C496.484185,112.56695 495.404936,113.142549 493.678139,113.142549 C491.951342,113.142549 490.872094,112.56695 490.440395,111.415752 L473.0645,65.8474978 C472.752434,65.3495769 472.601671,64.7674653 472.632801,64.180659 Z" id="Shape" fill="#42B983" fill-rule="nonzero"></path>
                <path d="M522.601989,92.6728095 L522.601989,63.8928595 C522.644707,63.1550579 523.025189,62.4781533 523.633271,62.0581377 C524.347454,61.4706998 525.251281,61.1637399 526.1755,61.1947392 C527.051536,61.1919207 527.900606,61.4975856 528.573829,62.0581377 C529.200137,62.4678232 529.599296,63.1463937 529.653077,63.8928595 L529.653077,92.6728095 C529.653793,96.2747012 531.091045,99.7275588 533.646295,102.266126 C536.080118,104.939783 539.528165,106.463734 543.143678,106.463734 C546.759191,106.463734 550.207239,104.939783 552.641062,102.266126 C555.196312,99.7275588 556.633564,96.2747012 556.63428,92.6728095 L556.63428,63.6890015 C556.653482,62.9322112 557.061396,62.2387583 557.713528,61.8542797 C558.44147,61.3488231 559.309693,61.0845813 560.195799,61.098806 C561.055737,61.0857905 561.896899,61.3507564 562.594128,61.8542797 C563.218387,62.2578014 563.600602,62.9457893 563.613418,63.6890015 L563.613418,92.6128512 C563.638893,98.0017887 561.428822,103.160069 557.50967,106.858926 C551.686308,112.648634 542.967956,114.400587 535.360077,111.309885 C527.752197,108.219184 522.725737,100.883402 522.589998,92.6728095 L522.601989,92.6728095 Z" id="Shape" fill="#42B983" fill-rule="nonzero"></path>
                <path d="M574.729674,92.4689515 L574.729674,80.3693809 C574.675294,75.0732826 576.851392,69.9986217 580.725496,66.3871218 C588.713349,58.6381563 601.376883,58.5220739 609.505446,66.1233056 C613.437418,69.7190497 615.623442,74.8387177 615.501269,80.1655229 C615.553166,81.7928609 615.317724,83.4166038 614.805754,84.9621812 C614.419775,86.0867994 613.605198,87.0134343 612.539333,87.5403851 C611.638622,87.9972731 610.677744,88.3242949 609.685321,88.5117084 C608.493737,88.6785353 607.29081,88.7507109 606.087827,88.727558 L581.732795,88.727558 L581.732795,92.720776 C581.592436,96.6483297 583.290524,100.416932 586.325595,102.913675 C589.674783,105.568796 593.86719,106.930796 598.137366,106.751002 C600.324522,106.795222 602.500593,106.429154 604.552897,105.671754 C606.042016,105.134208 607.45646,104.408852 608.761964,103.513257 C609.414285,102.932357 610.223555,102.556923 611.088344,102.434009 C611.925822,102.46023 612.702594,102.877467 613.186882,103.561224 C613.735482,104.174695 614.057156,104.957717 614.098247,105.779678 C614.098247,107.290626 612.551324,108.857534 609.45748,110.480404 C605.857813,112.199169 601.895905,113.021995 597.909525,112.878733 C591.074287,112.878733 585.498171,110.992047 581.181179,107.218676 C576.925398,103.51997 574.556789,98.1047484 574.729674,92.4689515 L574.729674,92.4689515 Z M581.744786,83.6191169 L603.329749,83.6191169 C604.804179,83.749468 606.287856,83.5104311 607.646741,82.9236014 C608.481784,82.1857811 608.887743,81.0761584 608.725989,79.9736565 C608.745628,76.4464203 607.370683,73.0543144 604.900654,70.5362313 C602.41698,67.8478537 598.894152,66.3617972 595.235388,66.4590717 C591.645349,66.3867922 588.180995,67.7811949 585.642071,70.3203817 C583.093156,72.7057826 581.661922,76.0511278 581.69682,79.5419573 L581.744786,83.6191169 Z" id="Shape" fill="#42B983" fill-rule="nonzero"></path>
                <path d="M623.607622,107.506475 C623.562864,106.088303 624.045685,104.703929 624.962678,103.621182 C625.81047,102.600343 627.077607,102.021964 628.40428,102.050276 C629.689989,102.068217 630.898275,102.66795 631.689991,103.68114 C632.620662,104.736094 633.125114,106.099823 633.105005,107.506475 C633.113212,108.878676 632.60856,110.204457 631.689991,111.223886 C630.895884,112.232575 629.687961,112.82772 628.40428,112.842758 C627.077607,112.87107 625.81047,112.292691 624.962678,111.271852 C624.059654,110.22821 623.576707,108.886216 623.607622,107.506475 Z" id="Shape" fill="#42B983" fill-rule="nonzero"></path>
                <path d="M633.752554,134.008013 C633.7203,133.127141 634.029637,132.26787 634.615953,131.609683 C635.160509,130.990997 635.950442,130.644305 636.774449,130.662343 C639.972221,130.662343 642.058768,129.495157 643.034088,127.160783 C644.009409,124.826409 644.513058,121.328846 644.545035,116.668093 L644.545035,63.6890015 C644.524396,62.9363632 644.891049,62.2256912 645.516359,61.8063131 C647.046975,60.8382553 648.99825,60.8382553 650.528867,61.8063131 C651.167293,62.219143 651.551467,62.9287346 651.548157,63.6890015 L651.548157,116.788009 C651.548157,130.378541 646.799465,137.173807 637.302081,137.173807 C636.308674,137.25795 635.326715,136.913173 634.603961,136.226467 C634.053336,135.619094 633.749657,134.827819 633.752554,134.008013 L633.752554,134.008013 Z M644.545035,44.6942346 C643.64494,43.8789415 643.134687,42.7188791 643.142013,41.5044568 C643.130026,40.3063208 643.64261,39.1628641 644.545035,38.3746372 C645.483193,37.5089183 646.722558,37.0441562 647.998629,37.0795395 C649.227314,37.0501166 650.416036,37.5169602 651.296332,38.3746372 C652.17318,39.1772909 652.666099,40.3158025 652.651388,41.5044568 C652.663802,42.7076428 652.177631,43.8622992 651.308324,44.6942346 C650.444387,45.5834218 649.250146,46.0741461 648.010621,46.0492905 C646.72015,46.0823425 645.470829,45.5938535 644.545035,44.6942346 Z" id="Shape" fill="#42B983" fill-rule="nonzero"></path>
                <path d="M661.92093,105.192088 C661.942097,104.411521 662.206184,103.656989 662.676404,103.033591 C663.032246,102.404772 663.68204,101.998651 664.403201,101.954343 C665.298308,102.124132 666.128634,102.539295 666.80153,103.153508 C668.241477,104.17983 669.799576,105.029337 671.442297,105.683745 C673.728829,106.595952 676.176181,107.036476 678.637285,106.978843 C682.450628,106.978843 685.248679,106.259344 687.031437,104.820347 C688.761459,103.524483 689.764917,101.477428 689.729557,99.3161812 C689.824481,96.9322882 688.810529,94.638722 686.98347,93.1045087 C685.03183,91.4952031 682.770751,90.303443 680.340098,89.6029481 L672.521545,87.204619 C669.956507,86.4467381 667.644349,85.0088906 665.830207,83.0435179 C663.919638,80.8538202 662.93495,78.0072539 663.08412,75.1050483 C663.080274,71.2601413 664.62815,67.5763695 667.377129,64.8881661 C670.215152,61.9781934 674.476183,60.5192098 680.160224,60.5112154 C683.527032,60.4853367 686.872004,61.0536572 690.04134,62.1900458 C693.095212,63.3092661 694.626146,64.5084307 694.63414,65.7875395 C694.590656,66.6549367 694.290109,67.4897895 693.770742,68.1858687 C693.362564,68.9481666 692.583898,69.4399555 691.72017,69.4809665 C690.356985,69.066658 689.022952,68.5618886 687.726952,67.9700191 C685.383985,66.9834369 682.870247,66.4660224 680.328107,66.4470801 C676.730613,66.4470801 674.032493,67.2944897 672.233746,68.989309 C670.557157,70.4168125 669.574492,72.4956952 669.535625,74.6973324 C669.497024,76.7939095 670.556531,78.7583168 672.329679,79.8777234 C674.38865,81.2367692 676.645915,82.268315 679.021017,82.9355931 L686.91152,85.273964 C689.557879,86.0852854 691.873944,87.7246058 693.518917,89.9507059 C695.408223,92.5896826 696.358219,95.7858914 696.217037,99.0283817 C696.392555,102.963539 694.693255,106.749152 691.636229,109.233272 C688.574362,111.711546 684.309333,112.950683 678.841142,112.950683 C674.69839,113.071678 670.586786,112.200018 666.849497,110.408454 C663.563786,108.729623 661.92093,106.990835 661.92093,105.192088 Z" id="Shape" fill="#42B983" fill-rule="nonzero"></path>
                <path d="M1.275,28.9715563 L1.275,9.98603364 C1.275,9.61558256 1.45507768,9.31716812 1.81523845,9.09078135 C2.17539922,8.86439458 2.62302089,8.7512029 3.15811688,8.7512029 C3.69321288,8.7512029 4.13568947,8.86439458 4.48555993,9.09078135 C4.83543039,9.31716812 5.010363,9.61558256 5.010363,9.98603364 L5.010363,10.9121567 C5.40139469,10.253577 5.96220804,9.69790873 6.69281989,9.24513519 C7.42343173,8.79236166 8.25178907,8.56597828 9.17791676,8.56597828 C10.7214629,8.56597828 12.0283124,9.1782424 13.0985044,10.402789 C14.1686964,11.6273356 14.7037843,13.1039726 14.7037843,14.8327443 L14.7037843,17.3641473 C14.7037843,19.0311772 14.1584062,20.5026691 13.0676336,21.7786672 C11.976861,23.0546654 10.7214623,23.6926549 9.30139983,23.6926549 C8.41643337,23.6926549 7.59836619,23.4508363 6.84717373,22.9671918 C6.09598127,22.4835474 5.56603838,21.9124439 5.25732915,21.2538642 L5.25732915,28.9715563 C5.25732915,29.3008462 5.05667116,29.5941155 4.65534916,29.8513732 C4.25402716,30.1086309 3.77553503,30.2372578 3.21985842,30.2372578 C2.66418181,30.2372578 2.20112491,30.1086309 1.83067383,29.8513732 C1.46022276,29.5941155 1.275,29.3008462 1.275,28.9715563 Z M5.25732915,17.9198212 C5.25732915,18.3314335 5.53516329,18.8150707 6.0908399,19.3707473 C6.64651651,19.9264239 7.27421586,20.204258 7.97395678,20.204258 C8.69427832,20.204258 9.33226782,19.9109887 9.88794443,19.3244411 C10.443621,18.7378936 10.7214552,18.0844689 10.7214552,17.3641473 L10.7214552,14.8327443 C10.7214552,14.1124228 10.443621,13.4692882 9.88794443,12.9033213 C9.33226782,12.3373543 8.67369801,12.0543751 7.91221524,12.0543751 C7.21247432,12.0543751 6.59506513,12.311629 6.05996913,12.8261443 C5.52487313,13.3406597 5.25732915,14.0095197 5.25732915,14.8327443 L5.25732915,17.9198212 Z M16.7103843,17.3641473 L16.7103843,14.8327443 C16.7103843,13.1451339 17.3689541,11.678787 18.6861135,10.4336598 C20.0032729,9.18853256 21.5776663,8.56597828 23.4093411,8.56597828 C25.1998546,8.56597828 26.7639579,9.18338748 28.1016979,10.4182244 C29.4394379,11.6530613 30.1082978,13.1245532 30.1082978,14.8327443 L30.1082978,17.3641473 C30.1082978,19.0311772 29.4394379,20.5026691 28.1016979,21.7786672 C26.7639579,23.0546654 25.1998546,23.6926549 23.4093411,23.6926549 C21.6188275,23.6926549 20.0547242,23.0546654 18.7169842,21.7786672 C17.3792443,20.5026691 16.7103843,19.0311772 16.7103843,17.3641473 Z M20.6927134,17.3641473 C20.6927134,18.1050495 20.9602574,18.7636193 21.4953534,19.3398765 C22.0304494,19.9161337 22.6684389,20.204258 23.4093411,20.204258 C24.1296626,20.204258 24.762507,19.9161337 25.3078933,19.3398765 C25.8532796,18.7636193 26.1259687,18.1050495 26.1259687,17.3641473 L26.1259687,14.8327443 C26.1259687,14.1330034 25.8532796,13.4950139 25.3078933,12.9187567 C24.762507,12.3424994 24.1296626,12.0543751 23.4093411,12.0543751 C22.6684389,12.0543751 22.0304494,12.3373543 21.4953534,12.9033213 C20.9602574,13.4692882 20.6927134,14.1124228 20.6927134,14.8327443 L20.6927134,17.3641473 Z M31.3122578,10.2329998 C31.3122578,9.78022625 31.6003821,9.3943455 32.1766393,9.07534597 C32.7528966,8.75634643 33.3291452,8.59684905 33.9054024,8.59684905 C34.5022402,8.59684905 34.8829759,8.81294227 35.0476208,9.24513519 L38.1346977,18.0124335 L40.4500053,10.3873536 C40.6146502,9.85225763 41.067417,9.58471365 41.8083191,9.58471365 C42.5492213,9.58471365 43.001988,9.85225763 43.166633,10.3873536 L45.4510698,18.0433042 L48.5690175,9.24513519 C48.7336624,8.81294227 49.1143981,8.59684905 49.7112359,8.59684905 C50.2669125,8.59684905 50.8328709,8.76149151 51.4091282,9.09078135 C51.9853854,9.42007119 52.2735097,9.81109702 52.2735097,10.2638706 C52.2735097,10.4902573 52.2323491,10.6754801 52.1500266,10.8195444 L47.3959283,23.0443687 C47.2107027,23.5177229 46.6859049,23.7543964 45.8215191,23.7543964 C44.915972,23.7543964 44.3705939,23.5177229 44.1853683,23.0443687 L41.8083191,16.3145412 L39.4621407,23.013498 C39.2769152,23.5074327 38.7109568,23.7543964 37.7642485,23.7543964 C36.9204432,23.7543964 36.4059356,23.5074327 36.22071,23.013498 L31.4666117,10.8195444 C31.3637086,10.6137382 31.3122578,10.4182253 31.3122578,10.2329998 Z M53.4774697,17.3641473 L53.4774697,14.740132 C53.4774697,13.0525215 54.1360395,11.6016099 55.4531989,10.3873536 C56.7703582,9.17309733 58.365332,8.56597828 60.238168,8.56597828 C61.9875203,8.56597828 63.4847376,9.11650148 64.7298648,10.2175644 C65.974992,11.3186273 66.5975463,12.7026529 66.5975463,14.3696828 C66.5975463,14.9871012 66.5203702,15.4964638 66.3660155,15.8977858 C66.2116609,16.2991078 65.9749874,16.582087 65.6559879,16.746732 C65.3369883,16.9113769 65.043719,17.0142784 64.776171,17.0554396 C64.508623,17.0966009 64.1587577,17.1171812 63.7265648,17.1171812 L57.4597988,17.1171812 L57.4597988,17.5802427 C57.4597988,18.4652092 57.7890837,19.1803748 58.4476634,19.7257611 C59.1062431,20.2711474 59.9809061,20.5438365 61.0716787,20.5438365 C61.8537421,20.5438365 62.6255036,20.3483236 63.3869864,19.9572919 C64.1484691,19.5662602 64.6423965,19.3707473 64.8687833,19.3707473 C65.3009762,19.3707473 65.6611316,19.5714053 65.9492602,19.9727273 C66.2373888,20.3740493 66.3814509,20.75993 66.3814509,21.1303811 C66.3814509,21.7066383 65.8617982,22.2777418 64.8224771,22.8437088 C63.783156,23.4096757 62.4917418,23.6926549 60.9481957,23.6926549 C58.7460698,23.6926549 56.9504381,23.1112612 55.5612465,21.9484565 C54.172055,20.7856517 53.4774697,19.2575639 53.4774697,17.3641473 Z M57.4597988,14.7710028 L61.966931,14.7710028 C62.2962209,14.7710028 62.5277493,14.7144069 62.6615233,14.6012135 C62.7952973,14.4880202 62.8621833,14.2667819 62.8621833,13.937492 C62.8621833,13.2171705 62.5997844,12.6306317 62.0749787,12.1778582 C61.550173,11.7250847 60.9070384,11.4987013 60.1455557,11.4987013 C59.4252341,11.4987013 58.7975348,11.7199396 58.2624388,12.1624228 C57.7273428,12.6049061 57.4597988,13.1862997 57.4597988,13.9066212 L57.4597988,14.7710028 Z M68.9745955,22.1491165 L68.9745955,9.98603364 C68.9745955,9.61558256 69.1546732,9.31716812 69.5148339,9.09078135 C69.8749947,8.86439458 70.3431967,8.7512029 70.9194539,8.7512029 C71.4339693,8.7512029 71.8610107,8.86439458 72.2005908,9.09078135 C72.540171,9.31716812 72.7099585,9.61558256 72.7099585,9.98603364 L72.7099585,11.2517352 C73.0392483,10.5314136 73.553756,9.90371426 74.2534969,9.36861827 C74.9532378,8.83352227 75.704419,8.56597828 76.507063,8.56597828 L77.4640568,8.56597828 C77.8345079,8.56597828 78.1689379,8.74091089 78.4673568,9.09078135 C78.7657757,9.44065181 78.914983,9.84196779 78.914983,10.2947413 C78.914983,10.7680955 78.7657757,11.1797016 78.4673568,11.5295721 C78.1689379,11.8794425 77.8345079,12.0543751 77.4640568,12.0543751 L76.507063,12.0543751 C75.5603547,12.0543751 74.7319974,12.4762714 74.0219661,13.3200766 C73.3119349,14.1638819 72.9569246,15.2649283 72.9569246,16.6232489 L72.9569246,22.1491165 C72.9569246,22.4578257 72.7511216,22.74595 72.3395093,23.013498 C71.927897,23.281046 71.4545499,23.414818 70.9194539,23.414818 C70.3637773,23.414818 69.9007204,23.2861911 69.5302693,23.0289334 C69.1598182,22.7716757 68.9745955,22.4784063 68.9745955,22.1491165 Z M79.7484937,17.3641473 L79.7484937,14.740132 C79.7484937,13.0525215 80.4070635,11.6016099 81.7242229,10.3873536 C83.0413823,9.17309733 84.636356,8.56597828 86.509192,8.56597828 C88.2585443,8.56597828 89.7557616,9.11650148 91.0008889,10.2175644 C92.2460161,11.3186273 92.8685704,12.7026529 92.8685704,14.3696828 C92.8685704,14.9871012 92.7913942,15.4964638 92.6370396,15.8977858 C92.482685,16.2991078 92.2460115,16.582087 91.9270119,16.746732 C91.6080124,16.9113769 91.314743,17.0142784 91.047195,17.0554396 C90.779647,17.0966009 90.4297818,17.1171812 89.9975889,17.1171812 L83.7308229,17.1171812 L83.7308229,17.5802427 C83.7308229,18.4652092 84.0601078,19.1803748 84.7186875,19.7257611 C85.3772671,20.2711474 86.2519302,20.5438365 87.3427028,20.5438365 C88.1247662,20.5438365 88.8965277,20.3483236 89.6580104,19.9572919 C90.4194932,19.5662602 90.9134206,19.3707473 91.1398073,19.3707473 C91.5720002,19.3707473 91.9321556,19.5714053 92.2202842,19.9727273 C92.5084128,20.3740493 92.652475,20.75993 92.652475,21.1303811 C92.652475,21.7066383 92.1328222,22.2777418 91.0935012,22.8437088 C90.0541801,23.4096757 88.7627659,23.6926549 87.2192197,23.6926549 C85.0170939,23.6926549 83.2214621,23.1112612 81.8322706,21.9484565 C80.4430791,20.7856517 79.7484937,19.2575639 79.7484937,17.3641473 Z M83.7308229,14.7710028 L88.2379551,14.7710028 C88.5672449,14.7710028 88.7987734,14.7144069 88.9325474,14.6012135 C89.0663214,14.4880202 89.1332074,14.2667819 89.1332074,13.937492 C89.1332074,13.2171705 88.8708085,12.6306317 88.3460028,12.1778582 C87.8211971,11.7250847 87.1780625,11.4987013 86.4165797,11.4987013 C85.6962582,11.4987013 85.0685588,11.7199396 84.5334628,12.1624228 C83.9983669,12.6049061 83.7308229,13.1862997 83.7308229,13.9066212 L83.7308229,14.7710028 Z M94.7208165,17.3641473 L94.7208165,14.8327443 C94.7208165,13.1245532 95.2610495,11.6530613 96.3415318,10.4182244 C97.4220141,9.18338748 98.7134284,8.56597828 100.215813,8.56597828 C101.12136,8.56597828 101.918847,8.79236166 102.608298,9.24513519 C103.297748,9.69790873 103.827691,10.253577 104.198142,10.9121567 L104.198142,1.43483074 C104.198142,1.06437967 104.38851,0.765965222 104.769252,0.539578454 C105.149993,0.313191686 105.628485,0.2 106.204742,0.2 C106.781,0.2 107.254347,0.313191686 107.624798,0.539578454 C107.995249,0.765965222 108.180472,1.06437967 108.180472,1.43483074 L108.180472,22.1491165 C108.180472,22.4784063 107.990104,22.7716757 107.609362,23.0289334 C107.228621,23.2861911 106.760419,23.414818 106.204742,23.414818 C105.731388,23.414818 105.314637,23.281046 104.954476,23.013498 C104.594315,22.74595 104.414238,22.4578257 104.414238,22.1491165 L104.414238,21.2538642 C104.084948,21.9124439 103.524135,22.4835474 102.731781,22.9671918 C101.939427,23.4508363 101.069909,23.6926549 100.123201,23.6926549 C98.7031385,23.6926549 97.4477398,23.0546654 96.3569672,21.7786672 C95.2661946,20.5026691 94.7208165,19.0311772 94.7208165,17.3641473 Z M98.7031456,17.3641473 C98.7031456,18.0844689 98.9706896,18.7378936 99.5057856,19.3244411 C100.040882,19.9109887 100.668581,20.204258 101.388902,20.204258 C102.109224,20.204258 102.757504,19.9212788 103.333761,19.3553119 C103.910018,18.789345 104.198142,18.3108529 104.198142,17.9198212 L104.198142,14.8327443 C104.198142,14.0095197 103.915163,13.3406597 103.349196,12.8261443 C102.783229,12.311629 102.140095,12.0543751 101.419773,12.0543751 C100.678871,12.0543751 100.040882,12.3373543 99.5057856,12.9033213 C98.9706896,13.4692882 98.7031456,14.1124228 98.7031456,14.8327443 L98.7031456,17.3641473 Z M117.503444,22.1491165 L117.503444,1.43483074 C117.503444,1.06437967 117.683521,0.765965222 118.043682,0.539578454 C118.403843,0.313191686 118.872045,0.2 119.448302,0.2 C120.024559,0.2 120.508197,0.313191686 120.899228,0.539578454 C121.29026,0.765965222 121.485773,1.06437967 121.485773,1.43483074 L121.485773,10.9121567 C121.835643,10.253577 122.355296,9.69790873 123.044747,9.24513519 C123.734197,8.79236166 124.531684,8.56597828 125.437231,8.56597828 C126.939616,8.56597828 128.23103,9.18338748 129.311513,10.4182244 C130.391995,11.6530613 130.932228,13.1245532 130.932228,14.8327443 L130.932228,17.3641473 C130.932228,19.0311772 130.38685,20.5026691 129.296077,21.7786672 C128.205305,23.0546654 126.949906,23.6926549 125.529844,23.6926549 C124.603716,23.6926549 123.739343,23.4508363 122.936699,22.9671918 C122.134055,22.4835474 121.568097,21.9124439 121.238807,21.2538642 L121.238807,22.1491165 C121.238807,22.4578257 121.058729,22.74595 120.698568,23.013498 C120.338407,23.281046 119.921656,23.414818 119.448302,23.414818 C118.892625,23.414818 118.429569,23.2861911 118.059118,23.0289334 C117.688666,22.7716757 117.503444,22.4784063 117.503444,22.1491165 Z M121.485773,17.9198212 C121.485773,18.3108529 121.768752,18.789345 122.334719,19.3553119 C122.900686,19.9212788 123.54382,20.204258 124.264142,20.204258 C124.984464,20.204258 125.612163,19.9109887 126.147259,19.3244411 C126.682355,18.7378936 126.949899,18.0844689 126.949899,17.3641473 L126.949899,14.8327443 C126.949899,14.1124228 126.682355,13.4692882 126.147259,12.9033213 C125.612163,12.3373543 124.974173,12.0543751 124.233271,12.0543751 C123.53353,12.0543751 122.900686,12.311629 122.334719,12.8261443 C121.768752,13.3406597 121.485773,14.0095197 121.485773,14.8327443 L121.485773,17.9198212 Z M132.012705,28.5393656 C132.012705,27.4280123 132.35228,26.872344 133.03144,26.872344 C133.998729,26.872344 134.950568,26.5224788 135.886986,25.8227379 C136.823404,25.122997 137.343057,23.9602097 137.44596,22.3343411 L132.136188,10.9738982 C132.053866,10.7680921 132.012705,10.5931595 132.012705,10.4490952 C132.012705,9.9551604 132.316264,9.51268381 132.923393,9.12165212 C133.530521,8.73062043 134.111914,8.53510752 134.667591,8.53510752 C135.285009,8.53510752 135.665745,8.76149089 135.809809,9.21426442 L139.514302,18.4446242 L142.508766,9.21426442 C142.652831,8.76149089 143.002696,8.53510752 143.558372,8.53510752 C144.093468,8.53510752 144.680007,8.7357655 145.318006,9.1370875 C145.956005,9.5384095 146.275,9.99632132 146.275,10.5108367 C146.275,10.6754816 146.24413,10.8298339 146.182388,10.9738982 L141.675255,22.4886949 L141.150452,23.8470087 C140.903485,24.5467496 140.723407,25.0303869 140.610214,25.2979349 C140.497021,25.5654829 140.301508,25.9822341 140.023669,26.548201 C139.745831,27.1141679 139.498867,27.525774 139.282771,27.7830317 C139.066674,28.0402894 138.763115,28.3592842 138.372083,28.7400255 C137.981052,29.1207669 137.584881,29.3986011 137.183559,29.5735363 C136.782237,29.7484715 136.293454,29.9028238 135.717197,30.0365978 C135.14094,30.1703718 134.513241,30.2372578 133.83408,30.2372578 C133.237242,30.2372578 132.784476,30.1240661 132.475766,29.8976794 C132.167057,29.6712926 132.012705,29.2185259 132.012705,28.5393656 Z" id="powered-by" fill="#3D5B72"></path>
            </g>
            <g id="Shape" fill-rule="nonzero">
                <path d="M61.5573292,190.707218 C63.7142154,192.519813 65.9926163,194.251398 68.3216483,195.861468 C70.6506804,197.471538 73.141732,199.02085 75.6125312,200.418269 L75.6834148,200.418269 C97.5028789,212.606282 123.355931,215.346332 147.245456,208.002813 C148.136563,207.729405 149.027671,207.435744 149.908653,207.131957 L149.908653,207.131957 L149.96941,207.131957 C150.799761,206.848423 151.619985,206.544636 152.44021,206.240849 L152.855385,206.07883 C153.584473,205.795296 154.323688,205.511761 155.052776,205.207974 L155.386941,205.076333 C157.078021,204.367498 158.758975,203.608031 160.389297,202.818185 L160.612074,202.706797 C161.341162,202.352379 162.060124,201.977708 162.779087,201.603038 L163.153757,201.400513 C163.889596,201.008966 164.618684,200.607292 165.341022,200.195492 L165.492915,200.114483 C167.052354,199.223375 168.621919,198.271509 170.161105,197.269013 L170.424387,197.096867 C171.099469,196.651313 171.774551,196.202384 172.449633,195.750079 L172.733167,195.557681 C174.940684,194.008368 177.117823,192.337541 179.193699,190.59583 L179.436729,190.383179 C180.071306,189.843114 180.702507,189.296298 181.330333,188.742731 L181.461974,188.621216 C182.829014,187.395942 184.175803,186.109912 185.512464,184.803629 L185.563096,184.752997 C186.17742,184.131922 186.781618,183.500721 187.37569,182.859393 L187.53771,182.687247 C189.411061,180.662002 191.203404,178.555747 192.874231,176.388735 L192.934988,176.307725 C193.481804,175.598889 194.018494,174.879927 194.545058,174.160965 L194.615942,174.069829 C196.236138,171.831933 197.785451,169.482648 199.203122,167.092859 L199.26388,167.001723 C201.170219,163.780825 202.877982,160.44646 204.377624,157.017264 C205.525263,154.377694 206.537885,151.724623 207.415492,149.05805 L207.415492,149.05805 L207.415492,148.956788 C214.423687,127.546279 213.295278,104.303929 204.245983,83.6730073 C203.081467,81.019936 201.78531,78.4377483 200.398017,75.9365704 L200.347386,75.8353082 C198.970219,73.3746352 197.461411,70.9443409 195.861468,68.6153089 L195.770332,68.4836679 C195.26402,67.7478288 194.744207,67.0187406 194.210893,66.2964031 L194.210893,66.2255195 C193.002496,64.6795823 191.814353,63.1944024 190.646461,61.76998 L190.545199,61.6484652 C189.991632,60.9733835 189.431314,60.325305 188.864245,59.7042298 L188.641468,59.4612004 C187.395942,58.0637812 186.109912,56.7169931 184.823881,55.4107099 L184.752997,55.3398263 C184.145424,54.7390036 183.527724,54.1449316 182.899898,53.5576105 L182.555606,53.2436975 C181.968285,52.6968813 181.370838,52.1568159 180.763264,51.6235013 L180.550614,51.431103 C179.203825,50.2564607 177.79628,49.102071 176.358356,47.9881861 L175.922928,47.6540206 C175.342358,47.2084667 174.755037,46.7696635 174.160965,46.3376112 L173.725537,46.0236982 C172.277487,45.0110756 170.778805,43.9984529 169.29025,42.9858303 L168.804191,42.6820435 L167.001723,41.5884111 L166.414402,41.2441194 C165.73932,40.852572 165.064238,40.4711508 164.389156,40.0998558 L164.08537,39.92771 C163.302275,39.5024085 162.512429,39.0872332 161.715833,38.6821842 L161.250026,38.449281 L159.33617,37.5176682 L158.647586,37.1936289 L156.774234,36.3531521 L156.197039,36.0999965 C155.380191,35.748954 154.556591,35.4114131 153.72624,35.0873739 L153.422454,34.9759854 C152.700116,34.692451 151.974403,34.4190429 151.245315,34.155761 L150.5061,33.8924792 L148.632748,33.2545269 L147.913786,33.0216237 C128.16306,26.7756991 106.879064,27.4039036 87.5310995,34.8038395 C84.7970184,35.8164621 82.093316,37.0417355 79.4807496,38.3480187 L79.3997398,38.3480187 C76.8378046,39.6239232 74.3366267,41.0517211 71.8557013,42.5807813 L71.754439,42.6415386 C69.3342709,44.1503463 66.964734,45.8009212 64.6660807,47.5325059 L64.5344397,47.6337682 C62.2864175,49.3552266 60.0890264,51.208326 58.01315,53.132309 L57.8713829,53.2639499 C57.1963011,53.8985268 56.5212194,54.536479 55.8461376,55.1778067 C54.4959741,56.5279702 53.1795647,57.9118878 51.8969094,59.3295594 L51.745016,59.5017053 C51.1576949,60.176787 50.5771246,60.8518688 50.0033051,61.5269505 L49.9020428,61.6484652 C48.6970219,63.0863894 47.5223797,64.5850708 46.4084948,66.1040048 L46.2667276,66.2964031 C45.7536655,66.9714848 45.2507296,67.6769453 44.7579199,68.4127844 L44.6060265,68.6254351 C43.5427728,70.1747477 42.5200239,71.7746915 41.5681586,73.3746352 L41.4466439,73.5771597 C41.0078408,74.3129988 40.5791639,75.0589642 40.1606132,75.8150557 L39.9985936,76.0985901 C39.0872332,77.7491649 38.2163778,79.4402447 37.4062797,81.1617032 L37.3252699,81.333849 C36.9505995,82.1236947 36.5961816,82.9135403 36.2417637,83.703386 L36.0898703,84.0476776 C35.3304033,85.7995148 34.6215675,87.5817306 33.9836152,89.3335677 L33.9836152,89.4449562 C33.6798284,90.285433 33.3962941,91.1259098 33.122886,91.9663866 L33.0013713,92.3511832 C32.7245877,93.2017862 32.4613059,94.05914 32.2115256,94.9232446 L32.2013994,95.1865265 C27.222507,112.604067 27.5114307,131.105757 33.0317499,148.35934 L33.1633909,148.774516 C33.4199219,149.55086 33.6832038,150.323828 33.9532365,151.093421 L34.0544988,151.387082 C34.6823248,153.118667 35.3709082,154.860378 36.079744,156.561584 L36.211385,156.86537 C36.5354242,157.60796 36.8729651,158.347175 37.2240076,159.083014 L37.3961534,159.437432 C38.1961253,161.128512 39.0467283,162.789213 39.9175838,164.37903 L39.9175838,164.46004 C40.332759,165.209381 40.7681868,165.968848 41.2137407,166.728315 L41.3757603,167.011849 C41.8415668,167.801695 42.2871207,168.520657 42.7428009,169.249745 L42.8136845,169.37126 C43.8263071,170.910446 44.8389297,172.409128 45.9325621,173.968567 L46.0945818,174.191343 C46.5873914,174.866425 47.0903273,175.541507 47.6033895,176.216589 L47.7552829,176.419113 C48.8995464,177.897542 50.0944411,179.345593 51.3095883,180.732886 C51.9272881,181.431595 52.5247354,182.099926 53.1424352,182.758131 L53.3145811,182.940403 C55.1980591,184.965648 57.2131782,186.92001 59.2789283,188.773109 L59.400443,188.874372 C60.0789002,189.481945 60.7674836,190.079392 61.4256883,190.666714 L61.4256883,190.666714 L61.5573292,190.707218 Z" fill="#FFFFFF"></path>
                <path d="M119.94515,240.892796 C117.127754,240.891 114.524055,239.390498 113.109947,236.953694 L104.492528,222.027636 L103.864702,221.9365 C58.9930231,214.957353 23.880033,179.598158 17.2145846,134.678809 L17.1234485,134.050983 L3.95935445,126.425934 C1.51953295,125.019245 0.0161764248,122.41715 0.0161764248,119.600858 C0.0161764248,116.784565 1.51953295,114.182471 3.95935445,112.775781 L17.1740797,105.140607 L17.2652157,104.512781 C24.111934,59.0760817 59.9948745,23.5349619 105.495025,17.1234485 L106.132977,17.0323125 L113.130199,4.88084104 C114.536889,2.44101953 117.138983,0.937663011 119.955276,0.937663011 C122.771568,0.937663011 125.373663,2.44101953 126.780352,4.88084104 L133.868711,17.0930699 L134.496537,17.1842059 C179.568238,23.7924434 215.050227,59.0402685 221.956753,104.067227 L222.047889,104.695053 L235.941071,112.816286 C238.380892,114.222975 239.884249,116.82507 239.884249,119.641363 C239.884249,122.457655 238.380892,125.05975 235.941071,126.466439 L222.01751,134.506663 L221.926374,135.134489 C215.106364,179.564029 180.442292,214.542932 136.076228,221.764354 L135.458528,221.865617 L126.770226,236.953694 C125.357936,239.387376 122.758927,240.887397 119.94515,240.892796 Z M60.8586196,189.927499 C63.0155058,191.740094 65.2939067,193.471678 67.6229387,195.081748 C69.9519707,196.691818 72.4430224,198.241131 74.9138216,199.63855 L74.9847052,199.63855 C96.8041693,211.826562 122.657221,214.566613 146.546746,207.223093 C147.437854,206.949685 148.328962,206.656025 149.209943,206.352238 L149.209943,206.352238 L149.270701,206.352238 C150.101051,206.068704 150.921276,205.764917 151.7415,205.46113 L152.156675,205.29911 C152.885764,205.015576 153.624978,204.732042 154.354066,204.428255 L154.688232,204.296614 C156.379312,203.587778 158.060265,202.828311 159.690588,202.038466 L159.913365,201.927077 C160.642453,201.572659 161.361415,201.197989 162.080377,200.823318 L162.455047,200.620794 C163.190886,200.229247 163.919975,199.827573 164.642312,199.415773 L164.794206,199.334763 C166.353644,198.443655 167.923209,197.49179 169.462396,196.489294 L169.725678,196.317148 C170.400759,195.871594 171.075841,195.422664 171.750923,194.97036 L172.034457,194.777961 C174.241975,193.228649 176.419113,191.557821 178.49499,189.816111 L178.738019,189.60346 C179.372596,189.063394 180.003797,188.516578 180.631623,187.963011 L180.763264,187.841496 C182.130305,186.616223 183.477093,185.330192 184.813755,184.023909 L184.864386,183.973278 C185.47871,183.352203 186.082908,182.721001 186.67698,182.079674 L186.839,181.907528 C188.712352,179.882283 190.504694,177.776028 192.175521,175.609015 L192.236279,175.528005 C192.783095,174.81917 193.319785,174.100207 193.846349,173.381245 L193.917232,173.290109 C195.537428,171.052213 197.086741,168.702929 198.504413,166.313139 L198.56517,166.222003 C200.471509,163.001106 202.179272,159.66674 203.678914,156.237544 C204.826553,153.597975 205.839176,150.944903 206.716782,148.278331 L206.716782,148.278331 L206.716782,148.177068 C213.726958,126.759163 212.594894,103.508598 203.537147,82.8730354 C202.372631,80.2199641 201.076474,77.6377764 199.689181,75.1365986 L199.63855,75.0353363 C198.261383,72.5746633 196.752576,70.144369 195.152632,67.815337 L195.061496,67.6836961 C194.555184,66.947857 194.035371,66.2187687 193.502057,65.4964312 L193.502057,65.4255476 C192.361169,63.8728596 191.193277,62.3843043 189.998383,60.9598819 L189.89712,60.8383671 C189.343553,60.1632854 188.783235,59.5152069 188.216167,58.8941317 L187.99339,58.6511023 C186.747864,57.2536831 185.461833,55.906895 184.175803,54.6006118 L184.104919,54.5297282 C183.497345,53.9289055 182.879646,53.3348335 182.25182,52.7475124 L181.907528,52.4335994 C181.320207,51.8867832 180.722759,51.3467178 180.115186,50.8134032 L179.902535,50.6210049 C178.555747,49.4463626 177.148202,48.2919729 175.710277,47.178088 L175.27485,46.8439225 C174.694279,46.3983686 174.106958,45.9595654 173.512886,45.5275131 L173.077459,45.2136001 C171.629408,44.2009775 170.130727,43.1883548 168.642172,42.1757322 L168.156113,41.8719454 L166.353644,40.778313 L165.766323,40.4340213 C165.091242,40.0424739 164.41616,39.6610527 163.741078,39.2897577 L163.437291,39.1176119 C162.654196,38.6923104 161.864351,38.2771351 161.067754,37.8720861 L160.601948,37.6391829 L158.688091,36.7075701 L157.969129,36.4544144 L156.095777,35.6139376 L155.518582,35.360782 C154.701733,35.0097395 153.878134,34.6721986 153.047783,34.3481593 L152.743996,34.2367709 C152.021659,33.9532365 151.295946,33.6798284 150.566858,33.4165465 L149.827643,33.1532647 L147.954291,32.5153124 L147.235329,32.2824092 C127.484603,26.0364846 106.200607,26.6646891 86.8526423,34.064625 C84.1185612,35.0772476 81.4148588,36.302521 78.8022925,37.6088042 L78.7212827,37.6088042 C76.1593474,38.8847087 73.6581695,40.3125066 71.1772441,41.8415668 L71.0759819,41.9023241 C68.6558138,43.4111318 66.2862769,45.0617067 63.9876235,46.7932914 L63.8559826,46.8945536 C61.6079603,48.6160121 59.4105692,50.4691115 57.3346929,52.3930945 L57.1929257,52.5247354 C56.517844,53.1593123 55.8427622,53.7972645 55.1676805,54.4385922 C53.817517,55.7887557 52.5011076,57.1726733 51.2184522,58.5903449 L51.0665588,58.7624908 C50.4792377,59.4375725 49.8986674,60.1126543 49.3248479,60.787736 L49.2235857,60.9092507 C48.0185647,62.3471749 46.8439225,63.8458563 45.7300376,65.3647903 L45.5882705,65.5571886 C45.0752083,66.2322703 44.5722724,66.9377307 44.0794627,67.6735698 L43.9275694,67.8862206 C42.8643156,69.4355332 41.8415668,71.035477 40.8897015,72.6354207 L40.7681868,72.8379452 C40.3293836,73.5737843 39.9007067,74.3197497 39.482156,75.0758412 L39.3201364,75.3593755 C38.4087761,77.0099504 37.5379206,78.7010302 36.7278225,80.4224887 L36.6468127,80.5946345 C36.2721423,81.3844802 35.9177244,82.1743258 35.5633065,82.9641714 L35.4114131,83.3084631 C34.7430822,85.0603003 34.0342463,86.8323899 33.4165465,88.584227 L33.4165465,88.6956155 C33.1127597,89.5360923 32.8292254,90.376569 32.5558173,91.2170458 L32.4343026,91.6018424 C32.1575191,92.4524454 31.8942372,93.3097992 31.6444569,94.1739039 L31.5735734,94.4371858 C26.5946809,111.854726 26.8836047,130.356416 32.4039239,147.61 L32.5355649,148.025175 C32.7920959,148.801519 33.0553778,149.574488 33.3254105,150.344081 L33.4266728,150.637741 C34.0544988,152.369326 34.7430822,154.111037 35.451918,155.812243 L35.5835589,156.11603 C35.9075982,156.85862 36.2451391,157.597834 36.5961816,158.333673 L36.7683274,158.688091 C37.5682993,160.379171 38.4189023,162.039872 39.2897577,163.62969 L39.2897577,163.710699 C39.704933,164.46004 40.1403607,165.219507 40.5859147,165.978974 L40.7479343,166.262508 C41.2137407,167.052354 41.6592947,167.771316 42.1149749,168.500404 L42.1858584,168.621919 C43.1984811,170.161105 44.2111037,171.659787 45.3047361,173.219226 L45.4667557,173.442003 C45.9595654,174.117084 46.4625013,174.792166 46.9755634,175.467248 L47.1274568,175.669773 C48.2717204,177.148202 49.4666151,178.596252 50.6817622,179.983545 C51.299462,180.682254 51.8969094,181.350585 52.5146092,182.00879 L52.686755,182.191062 C54.5702331,184.216307 56.5853521,186.170669 58.6511023,188.023769 L58.772617,188.125031 C59.4510742,188.732604 60.1396575,189.330052 60.7978622,189.917373 L60.7978622,189.917373 L60.8586196,189.927499 Z" fill="#435B71"></path>
                <polygon fill="#435B71" points="159.528568 97.5155585 163.082873 58.5599662 127.570198 74.9644527 92.0575226 91.3689392 111.43912 105.039345 125.119651 98.7205794 138.790057 92.4018143 137.423016 107.408882 136.055976 122.415949 155.984389 136.471151"></polygon>
                <path d="M178.95067,148.642875 L190.089519,23.4827186 C190.164837,22.6901796 189.809557,21.9180785 189.158639,21.4597152 C188.507721,21.0013518 187.661054,20.9270653 186.940262,21.2650751 L72.7569354,73.7088007 C72.0412158,74.0378542 71.5577225,74.7263487 71.4911571,75.5112689 C71.4151658,76.304717 71.7708355,77.077912 72.4227699,77.5365142 L92.0676488,91.3993179 L127.59045,74.934074 L163.103126,58.5295876 L159.528568,97.5155585 L155.943884,136.471151 L175.446996,150.232692 C176.091496,150.685702 176.927943,150.762793 177.644387,150.435217 C178.37289,150.119191 178.872884,149.433152 178.95067,148.642875 L178.95067,148.642875 Z" fill="#42B983"></path>
                <polygon fill="#435B71" points="112.077072 166.6068 76.6859112 183.264442 79.9566823 144.288597 83.2274533 105.302626 102.700186 118.841391 101.444534 133.848458 100.178756 148.865652 113.808657 142.445624 127.448683 136.035723 147.468232 149.949158"></polygon>
                <path d="M166.758693,167.366267 L52.9500369,220.630217 C52.2344226,220.964591 51.3949706,220.893091 50.7462144,220.442508 C50.0974583,219.991925 49.7373357,219.230279 49.8007806,218.442952 L60.0181428,93.1612812 C60.0827542,92.3786068 60.5620078,91.6906459 61.2737949,91.358813 C61.9884729,91.0282896 62.8248219,91.1015183 63.471186,91.5512113 L83.2173271,105.312753 L79.9971872,144.288597 L76.6859112,183.284695 L112.127703,166.627052 L147.569495,149.96941 L167.082733,163.558806 C167.7385,164.014998 168.098237,164.788627 168.024472,165.584051 C167.950943,166.361484 167.468513,167.040745 166.758693,167.366267 Z" fill="#42B983"></path>
            </g>
        </g>
    </g>
</svg>