<?xml version="1.0" encoding="UTF-8" standalone="no"?>
<!DOCTYPE svg PUBLIC "-//W3C//DTD SVG 1.1//EN" "http://www.w3.org/Graphics/SVG/1.1/DTD/svg11.dtd">
<svg version="1.1" xmlns="http://www.w3.org/2000/svg" xmlns:xlink="http://www.w3.org/1999/xlink" preserveAspectRatio="xMidYMid meet" viewBox="0 0 720 720" width="720" height="720"><defs><path d="M0 0L720 0L720 720L0 720L0 0Z" id="dFJ4YztKv"></path><path d="M0 0L136.48 0L136.48 534.26L0 534.26L0 0Z" id="b29TZxZeV9"></path><path d="M156.65 366.55L360 366.55L360 720L156.65 720L156.65 366.55Z" id="f5VWVNTmzT"></path><path d="M315.66 273.64L618.59 273.64L618.59 345.96L315.66 345.96L315.66 273.64Z" id="dxcqgS9MV"></path><path d="M639.51 273.64L720 273.64L720 345.96L639.51 345.96L639.51 273.64Z" id="b37eXal7ye"></path><path d="M156.65 0L295.46 0L295.46 345.96L156.65 345.96L156.65 0Z" id="a4sm0Xq3Q"></path><path d="M380.55 647.68L719.98 647.68L719.98 720L380.55 720L380.55 647.68Z" id="a1ML3hiN4P"></path><path d="M380.55 366.55L719.98 366.55L719.98 626.54L380.55 626.54L380.55 366.55Z" id="a1EokvZhFH"></path><path d="M0 554.43L136.48 554.43L136.48 720.08L0 720.08L0 554.43Z" id="cguNmVcgP"></path><path d="M528.69 0L720 0L720 252.64L528.69 252.64L528.69 0Z" id="b5eDVWr4C"></path><path d="M315.66 0L505.44 0L505.44 163.9L315.66 163.9L315.66 0Z" id="aoeqELKK"></path><path d="M315.66 185.18L505.44 185.18L505.44 252.64L315.66 252.64L315.66 185.18Z" id="b11nUQrjbW"></path></defs><g><g><g><use xlink:href="#dFJ4YztKv" opacity="1" fill="#ffffff" fill-opacity="1"></use></g><g><use xlink:href="#b29TZxZeV9" opacity="1" fill="#478fcc" fill-opacity="1"></use></g><g><use xlink:href="#f5VWVNTmzT" opacity="1" fill="#478fcc" fill-opacity="1"></use></g><g><use xlink:href="#dxcqgS9MV" opacity="1" fill="#88c1e9" fill-opacity="1"></use></g><g><use xlink:href="#b37eXal7ye" opacity="1" fill="#478fcc" fill-opacity="1"></use></g><g><use xlink:href="#a4sm0Xq3Q" opacity="1" fill="#88c1e9" fill-opacity="1"></use></g><g><use xlink:href="#a1ML3hiN4P" opacity="1" fill="#478fcc" fill-opacity="1"></use></g><g><use xlink:href="#a1EokvZhFH" opacity="1" fill="#88c1e9" fill-opacity="1"></use></g><g><use xlink:href="#cguNmVcgP" opacity="1" fill="#b3dbf5" fill-opacity="1"></use></g><g><use xlink:href="#b5eDVWr4C" opacity="1" fill="#b3dbf5" fill-opacity="1"></use></g><g><use xlink:href="#aoeqELKK" opacity="1" fill="#2a68b2" fill-opacity="1"></use></g><g><use xlink:href="#b11nUQrjbW" opacity="1" fill="#478fcc" fill-opacity="1"></use></g></g></g></svg>