<?xml version="1.0" encoding="utf-8"?>
<!-- Generator: Adobe Illustrator 20.0.0, SVG Export Plug-In . SVG Version: 6.00 Build 0)  -->
<svg version="1.1" id="Layer_1" xmlns="http://www.w3.org/2000/svg" xmlns:xlink="http://www.w3.org/1999/xlink" x="0px" y="0px"
	 viewBox="0 0 859.7 257.6" style="enable-background:new 0 0 859.7 257.6;" xml:space="preserve">
<style type="text/css">
	.st0{fill:#00CD98;}
	.st1{fill:#324854;}
	.st2{fill:#BCBEC0;}
</style>
<path class="st0" d="M195.6,52.9c-6.4-2.6-13.6-1.2-18.5,3.7l-48.2,48.2L80.7,56.6c-4.9-4.9-12.2-6.3-18.5-3.7
	c-6.4,2.6-10.5,8.8-10.5,15.7V189c0,6.9,4.1,13.1,10.5,15.7c2.1,0.9,4.3,1.3,6.5,1.3c4.5,0,8.8-1.8,12-5l60.2-60.2l31.2-31.2V189
	c0,9.4,7.6,17,17,17s17-7.6,17-17V68.6C206,61.7,201.9,55.5,195.6,52.9z M75.9,196.2c-2.9,2.9-7.3,3.8-11.1,2.2
	c-3.8-1.6-6.3-5.3-6.3-9.4V68.6c0-4.1,2.5-7.8,6.3-9.4c1.3-0.5,2.6-0.8,3.9-0.8c2.6,0,5.2,1,7.2,3l48.2,48.2l-7.2,7.2
	c-2.7,2.7-4.3,6.1-4.8,9.6l0,0L84.7,99c-1-1-2.4-1.3-3.7-0.7c-1.3,0.5-2.1,1.8-2.1,3.1v54.7c0,1.4,0.8,2.6,2.1,3.1
	c0.4,0.2,0.9,0.3,1.3,0.3c0.9,0,1.8-0.3,2.4-1l27.4-27.4l0,0c0.5,3.5,2.1,6.9,4.8,9.6c2.7,2.7,6.1,4.3,9.6,4.8L75.9,196.2z
	 M136.1,136c-4,4-10.4,4-14.4,0c-1.9-1.9-3-4.5-3-7.2s1.1-5.3,3-7.2l7.2-7.2l7.2,7.2c1.9,1.9,3,4.5,3,7.2S138,134.1,136.1,136z
	 M104.8,128.8L85.6,148v-38.3L104.8,128.8z M199.2,189c0,5.6-4.6,10.2-10.2,10.2c-5.6,0-10.2-4.6-10.2-10.2v-87.5
	c0-1.4-0.8-2.6-2.1-3.1c-0.4-0.2-0.9-0.3-1.3-0.3c-0.9,0-1.8,0.3-2.4,1l-27.4,27.4c-0.5-3.5-2.1-6.9-4.8-9.6l-7.2-7.2l48.2-48.2
	c2.9-2.9,7.3-3.8,11.1-2.2s6.3,5.3,6.3,9.4L199.2,189L199.2,189z"/>
<g>
	<path class="st1" d="M275.6,103c8.2,0,14.7,2.8,19.6,8.3c2.2,2.4,3.8,5.1,4.8,8.2c1.1,3.1,1.6,6.2,1.6,9.2c0,3.1-0.5,6.2-1.6,9.2
		c-1.1,3.1-2.7,5.8-4.8,8.2c-4.9,5.5-11.4,8.3-19.6,8.3h-14.8c-0.9,0-1.7-0.3-2.4-1c-0.6-0.6-1-1.4-1-2.4v-44.7c0-0.9,0.3-1.7,1-2.4
		c0.6-0.7,1.4-1,2.4-1L275.6,103L275.6,103z M274.8,148.2c6.1,0,11-1.8,14.7-5.4c3.6-3.6,5.5-8.3,5.5-14.1s-1.8-10.5-5.5-14.1
		s-8.6-5.4-14.7-5.4h-10.6v38.9L274.8,148.2L274.8,148.2z"/>
	<path class="st1" d="M321.6,102.6c0.9,0,1.7,0.3,2.4,1c0.7,0.7,1,1.5,1,2.4v45.5c0,0.9-0.3,1.7-1,2.4c-0.7,0.6-1.5,1-2.4,1
		s-1.7-0.3-2.4-1c-0.6-0.6-1-1.4-1-2.4V106c0-0.9,0.3-1.7,1-2.4C319.9,103,320.6,102.6,321.6,102.6z"/>
	<path class="st1" d="M368.4,148.8c4.6,0,8.9-1.1,12.9-3.2v-13.3h-12.2c-0.8,0-1.5-0.3-2.1-0.9c-0.6-0.6-0.9-1.3-0.9-2.1
		s0.3-1.5,0.9-2.1s1.3-0.9,2.1-0.9h14.5c1,0,1.8,0.3,2.5,1s1,1.5,1,2.5v16.7c0,1-0.3,2-0.8,2.8s-1.2,1.4-2,1.8
		c-5.5,2.8-11.1,4.1-16.9,4.1c-7.7,0-13.9-2.5-18.7-7.4c-4.8-5-7.1-11.3-7.1-19c0-7.8,2.5-14.2,7.4-19.3c4.8-4.8,10.8-7.2,18.2-7.2
		c4.2,0,7.7,0.5,10.6,1.5s5.5,2.3,7.8,3.8c1,0.5,1.5,1.3,1.5,2.3s-0.3,1.8-0.8,2.4s-1.2,0.9-2,0.9s-1.4-0.1-1.9-0.4
		c-4.8-2.8-9.6-4.1-14.4-4.1c-5.7,0-10.4,1.7-14,5.2c-3.8,3.6-5.7,8.6-5.7,14.9c0,5.8,1.8,10.6,5.3,14.3
		C357.3,146.9,362.2,148.8,368.4,148.8z"/>
	<path class="st1" d="M408.4,102.6c0.9,0,1.7,0.3,2.4,1c0.7,0.7,1,1.5,1,2.4v45.5c0,0.9-0.3,1.7-1,2.4c-0.7,0.6-1.5,1-2.4,1
		s-1.7-0.3-2.4-1c-0.6-0.6-1-1.4-1-2.4V106c0-0.9,0.3-1.7,1-2.4C406.7,103,407.5,102.6,408.4,102.6z"/>
	<path class="st1" d="M467.6,103.9c0.6,0.6,0.9,1.4,0.9,2.2c0,0.9-0.3,1.6-0.9,2.2s-1.4,0.9-2.2,0.9h-15v42.2c0,0.9-0.3,1.7-1,2.4
		c-0.7,0.6-1.5,1-2.4,1s-1.7-0.3-2.4-1c-0.6-0.6-1-1.4-1-2.4v-42.2h-15c-0.9,0-1.6-0.3-2.2-0.9s-0.9-1.3-0.9-2.2
		c0-0.9,0.3-1.6,0.9-2.2s1.3-0.9,2.2-0.9h36.7C466.2,103,466.9,103.3,467.6,103.9z"/>
	<path class="st1" d="M519.6,150c0.2,0.6,0.4,1.2,0.4,1.9s-0.3,1.3-0.9,2c-0.6,0.6-1.5,1-2.8,1s-2.2-0.7-2.8-2.1l-4.8-11.5h-25.1
		l-4.8,11.5c-0.6,1.4-1.5,2.1-2.8,2.1s-2.2-0.3-2.8-1c-0.6-0.6-0.9-1.3-0.9-2s0.1-1.3,0.4-1.9l18.8-44.4c0.9-2,2.3-3,4.3-3h0.7
		c2,0,3.4,1,4.3,3L519.6,150z M506.1,135.1l-9.9-23.9l-9.9,23.9H506.1z"/>
	<path class="st1" d="M567.7,148.7c0.7,0.7,1,1.5,1,2.4s-0.3,1.7-1,2.4c-0.7,0.6-1.5,1-2.4,1h-26.2c-1.3,0-2.4-0.5-3.3-1.4
		c-0.9-0.9-1.4-2-1.4-3.3V106c0-0.9,0.3-1.7,1-2.4c0.6-0.7,1.4-1,2.4-1c0.9,0,1.7,0.3,2.4,1s1,1.5,1,2.4v41.7h24.1
		C566.2,147.7,567,148.1,567.7,148.7z"/>
	<path class="st2" d="M637.9,104.1c0.9,1,1.4,2.1,1.4,3.4v44c0,0.9-0.3,1.7-1,2.4c-0.6,0.6-1.4,1-2.4,1c-0.9,0-1.7-0.3-2.4-1
		c-0.7-0.6-1-1.4-1-2.4v-41.8l-17,42.1c-0.4,0.9-1,1.7-1.8,2.2c-0.8,0.6-1.8,0.8-2.9,0.8c-1.1,0-2-0.3-2.9-0.8
		c-0.8-0.6-1.5-1.3-1.8-2.2l-17-42.1v41.8c0,0.9-0.3,1.7-1,2.4c-0.7,0.6-1.5,1-2.4,1s-1.7-0.3-2.4-1c-0.6-0.6-1-1.4-1-2.4v-44
		c0-1.3,0.5-2.5,1.4-3.4c0.9-1,2.1-1.4,3.4-1.4h2.4c1,0,1.9,0.3,2.7,0.9s1.4,1.3,1.8,2.2l16.7,41.7l16.7-41.7c0.4-0.9,1-1.6,1.8-2.2
		s1.7-0.9,2.7-0.9h2.4C635.9,102.6,637,103.1,637.9,104.1z"/>
	<path class="st2" d="M701.1,150c0.2,0.6,0.4,1.2,0.4,1.9s-0.3,1.3-0.9,2c-0.6,0.6-1.5,1-2.8,1s-2.2-0.7-2.8-2.1l-4.8-11.5h-25.1
		l-4.8,11.5c-0.6,1.4-1.5,2.1-2.8,2.1s-2.2-0.3-2.8-1c-0.6-0.6-0.9-1.3-0.9-2s0.1-1.3,0.4-1.9l18.8-44.4c0.9-2,2.3-3,4.3-3h0.7
		c2,0,3.4,1,4.3,3L701.1,150z M687.7,135.1l-9.9-23.9l-9.9,23.9H687.7z"/>
	<path class="st2" d="M758,150c0.2,0.6,0.4,1.2,0.4,1.9s-0.3,1.3-0.9,2c-0.6,0.6-1.5,1-2.8,1s-2.2-0.7-2.8-2.1l-4.8-11.5H722
		l-4.8,11.5c-0.6,1.4-1.5,2.1-2.8,2.1s-2.2-0.3-2.8-1c-0.6-0.6-0.9-1.3-0.9-2s0.1-1.3,0.4-1.9l18.8-44.4c0.9-2,2.3-3,4.3-3h0.7
		c2,0,3.4,1,4.3,3L758,150z M744.5,135.1l-9.9-23.9l-9.9,23.9H744.5z"/>
	<path class="st2" d="M788.5,148.8c8.6,0,12.9-2.8,12.9-8.5c0-2.4-1.6-4.2-4.9-5.7c-1.4-0.6-3.1-1.1-5-1.6s-3.8-1-5.7-1.5
		s-3.9-1.2-5.7-1.8c-1.9-0.7-3.6-1.6-5-2.7c-3.2-2.5-4.9-5.7-4.9-9.7c0-4.3,1.6-7.9,4.9-10.6c3.5-3,8.3-4.5,14.2-4.5
		c5.4,0,10.2,0.8,14.7,2.4c1.4,0.5,2.1,1.5,2.1,2.9c0,0.7-0.3,1.4-0.8,2.1s-1.1,1-1.7,1c-0.6,0-1.5-0.2-2.5-0.6
		c-3.2-1.1-6.9-1.7-11-1.7c-3.8,0-6.9,0.7-9.4,2.1c-2.5,1.5-3.8,3.6-3.8,6.3c0,2.8,1.6,4.9,4.9,6.3c1.5,0.7,3.1,1.3,5,1.7
		c1.9,0.4,3.8,0.9,5.7,1.4c2,0.5,3.9,1.1,5.7,1.7c1.9,0.7,3.5,1.5,5,2.6c3.2,2.4,4.9,5.7,4.9,10.2c0,4.2-1.7,7.7-5.1,10.3
		c-3.5,2.7-8.1,4.1-13.8,4.1c-6.2,0-12.1-1.2-17.5-3.5c-0.5-0.2-1-0.6-1.4-1.2c-0.4-0.5-0.6-1.2-0.6-2s0.3-1.5,0.8-2.1
		s1.2-0.9,1.9-0.9s1.6,0.2,2.7,0.7c1.1,0.5,2.8,1,5.2,1.7C782.5,148.5,785.3,148.8,788.5,148.8z"/>
</g>
</svg>
