<?xml version="1.0" encoding="UTF-8"?>
<!DOCTYPE svg PUBLIC "-//W3C//DTD SVG 1.1//EN" "http://www.w3.org/Graphics/SVG/1.1/DTD/svg11.dtd">
<!-- Creator: CorelDRAW -->
<svg xmlns="http://www.w3.org/2000/svg" xml:space="preserve" width="5.80985in" height="1.3685in" style="shape-rendering:geometricPrecision; text-rendering:geometricPrecision; image-rendering:optimizeQuality; fill-rule:evenodd; clip-rule:evenodd"
viewBox="0 0 5.80986 1.3685"
 xmlns:xlink="http://www.w3.org/1999/xlink">
 <defs>
  <style type="text/css">
   <![CDATA[
    .fil2 {fill:#00BFFF}
    .fil4 {fill:#244D85}
    .fil5 {fill:white}
    .fil1 {fill:#00BFFF;fill-rule:nonzero}
    .fil0 {fill:#244D85;fill-rule:nonzero}
    .fil3 {fill:url(#id0)}
   ]]>
  </style>
  <linearGradient id="id0" gradientUnits="userSpaceOnUse" x1="1.12354" y1="1.30693" x2="1.12354" y2="0.0214331">
   <stop offset="0" style="stop-color:#00BFFF"/>
   <stop offset="0.490196" style="stop-color:#00BFFF"/>
   <stop offset="1" style="stop-color:white"/>
  </linearGradient>
 </defs>
 <g id="Layer_x0020_1">
  <metadata id="CorelCorpID_0Corel-Layer"/>
  <g id="_291644168">
   <path id="_295690416" class="fil0" d="M4.20147 0.427335l0 0 0 0.297705 0.258295 -0.297705 0.255185 0 -0.288642 0.309902 0.291752 0.498429 -0.255185 0 -0.14885 -0.273591c-0.0306063,-0.0547244 -0.0567993,-0.0778071 -0.0791024,-0.0697638 -0.0223032,0.00804331 -0.0334528,0.0202284 -0.0334528,0.036311l0 0.112547 0 0.194496 -0.21265 0 0 -1.04536 0.109441 0c0.0282677,0 0.0526457,0.0101102 0.0728741,0.0303347 0.0202244,0.0202284 0.0303347,0.0435748 0.0303347,0.0700197l0 0.136673zm-1.49952 0.808331c-0.0669095,0.00415355 -0.139264,0.00311024 -0.217327,-0.00311024 -0.0780591,-0.00596457 -0.116953,-0.0557559 -0.116953,-0.148858l0 -0.507508 -0.124162 0 0 -0.0425394c0,-0.0303347 0.0101181,-0.0552284 0.0303425,-0.0746851 0.0202284,-0.0191851 0.0446063,-0.0287874 0.0728741,-0.0287874l0.0209449 0 0 -0.23987 0.109437 0c0.0264488,0 0.0497953,0.0101102 0.0700197,0.0303347 0.0202284,0.0202284 0.0303465,0.0446063 0.0303465,0.0728741l0 0.136665 0.205725 0 0 0.0425394c0,0.0303268 -0.0101181,0.0552284 -0.0303425,0.0746851 -0.0202284,0.0191851 -0.0446142,0.0287874 -0.0728741,0.0287874l-0.102508 0 0 0.449937c0,0.0344843 0.0202244,0.0516024 0.0606772,0.0516024l0.0637993 0 0 0.157933zm0.0424095 0l0 -0.392111c0,-0.0788308 0.0116654,-0.145225 0.0350118,-0.198906 0.0233386,-0.0536811 0.0552323,-0.0967245 0.095693,-0.129146 0.038378,-0.0303347 0.0835001,-0.0526378 0.135106,-0.0669095 0.0516142,-0.0142599 0.104768,-0.0212599 0.159492,-0.0212599 0.00414961,0 0.00907481,0 0.0152953,0l0.148134 0c-0.0256299,0.0172953 -0.0494528,0.0383189 -0.0711378,0.063441 -0.0389488,0.0451339 -0.0649646,0.0970946 -0.0814134,0.152315l-0.0502992 0c-0.0588583,0 -0.102437,0.0142795 -0.130697,0.0425394 -0.0282599,0.0282599 -0.0425394,0.0728662 -0.0425394,0.133807l0 0.416229 -0.212646 0zm0.674776 -0.486244l0.309902 0c-0.00388977,-0.0547166 -0.0181496,-0.0951772 -0.0425315,-0.121626 -0.026189,-0.0282677 -0.0637874,-0.0425276 -0.112284,-0.0425276 -0.0446063,0 -0.0811693,0.0142599 -0.109437,0.0425276 -0.0285315,0.0285236 -0.0435709,0.0689843 -0.0456496,0.121626zm0.364626 0.237024l0.151965 0c-0.0223032,0.085067 -0.0648308,0.149902 -0.127587,0.194508 -0.0627678,0.0466733 -0.141858,0.0700158 -0.237036,0.0700158 -0.115394,0 -0.20565,-0.0376063 -0.27048,-0.112555 -0.0648347,-0.0728662 -0.0972442,-0.177118 -0.0972442,-0.313012 0,-0.129662 0.031378,-0.231059 0.0941339,-0.303933 0.0648308,-0.074941 0.155079,-0.112547 0.27048,-0.112547 0.121634,0 0.215768,0.036563 0.282673,0.109437 0.0648347,0.074941 0.0972442,0.179193 0.0972442,0.313012 0,0.00803938 0,0.0153032 0,0.0212677 0,0.00622048 0,0.0101102 0,0.012185 0,0.0101181 -0.0010315,0.0171181 -0.00311024,0.0212677l-0.525666 0c0.00207874,0.0627559 0.0171181,0.109441 0.0456496,0.139776 0.0261929,0.0324213 0.0658662,0.0487559 0.118512,0.0487559 0.0344882,0 0.0637914,-0.00700788 0.0881694,-0.0212677 0.00596457,-0.0020748 0.0116693,-0.00570473 0.0165984,-0.0106339 0.00518898,-0.00518898 0.0106378,-0.010626 0.0168543,-0.0168543 0.00181496,-0.00596457 0.00960237,-0.014 0.0225669,-0.0241181 0.0132284,-0.0101181 0.0321575,-0.0153032 0.0562756,-0.0153032z"/>
   <path id="_291638624" class="fil1" d="M4.98609 0.228937l-0.0496615 0 -0.160008 0.171417 0.0303544 0.0303544 0.125756 -0.133256 -0.00194488 0.939359 0.055504 0 0 -1.00787zm0.458599 1.02541c0.0730355,0 0.132925,-0.0158307 0.179662,-0.0474725 0.0467402,-0.0316378 0.0840001,-0.0725552 0.11174,-0.122701 0.0277441,-0.0501496 0.0469922,-0.106142 0.0577008,-0.167976 0.0107126,-0.0618268 0.0160669,-0.122937 0.0160669,-0.183319 0,-0.0603701 -0.00535433,-0.121488 -0.0160669,-0.183315 -0.0107087,-0.0618347 -0.0299567,-0.117827 -0.0577008,-0.167976 -0.0277402,-0.0501496 -0.065,-0.0910631 -0.11174,-0.122705 -0.0467363,-0.0316378 -0.106626,-0.0474685 -0.179662,-0.0474685 -0.0730355,0 -0.132933,0.0158307 -0.179662,0.0474685 -0.0467481,0.0316418 -0.0840079,0.0725552 -0.111752,0.122705 -0.0277402,0.0501496 -0.0469803,0.106142 -0.057689,0.167976 -0.0107126,0.0618347 -0.0160748,0.122945 -0.0160748,0.183315 0,0.0603819 0.00536221,0.121484 0.0160748,0.183319 0.0107087,0.0618347 0.0299488,0.117827 0.057689,0.167976 0.0277441,0.0501457 0.065004,0.0910631 0.111752,0.122701 0.0467284,0.0316418 0.106626,0.0474725 0.179662,0.0474725zm0 -0.0482048c-0.0632993,0 -0.114906,-0.0151063 -0.154831,-0.0452796 -0.0399292,-0.0301772 -0.0713347,-0.0686575 -0.0942205,-0.115398 -0.0228858,-0.0467363 -0.0387048,-0.0978701 -0.0474725,-0.153374 -0.00875591,-0.055504 -0.0131417,-0.108575 -0.0131417,-0.159213 0,-0.0506339 0.00438583,-0.103705 0.0131417,-0.159209 0.00876772,-0.055504 0.0245866,-0.106638 0.0474725,-0.153378 0.022874,-0.0467363 0.0542914,-0.0852166 0.0942205,-0.115394 0.0399252,-0.0301732 0.0915316,-0.0452835 0.154831,-0.0452835 0.0632914,0 0.114906,0.0151102 0.154835,0.0452835 0.0399252,0.0301772 0.0713308,0.0686575 0.0942087,0.115394 0.0228858,0.0467402 0.0387048,0.0978741 0.0474685,0.153378 0.00875591,0.055504 0.0131536,0.108575 0.0131536,0.159209 0,0.0506378 -0.00439764,0.103709 -0.0131536,0.159213 -0.00876379,0.055504 -0.0245827,0.106638 -0.0474685,0.153374 -0.0228858,0.0467402 -0.0542835,0.0852205 -0.0942087,0.115398 -0.0399292,0.0301732 -0.0915434,0.0452796 -0.154835,0.0452796z"/>
   <path id="_291641240" class="fil2" d="M0.822044 0.306744c-0.100882,-0.0512048 -0.222728,-0.042004 -0.313481,0.0266103 -0.0691654,0.0523071 -0.11139,0.132413 -0.11676,0.218725l-0.00319292 0.0512441 -0.0509882 0.00606693c-0.190701,0.0226536 -0.337622,0.184977 -0.337622,0.378319 0,0.210276 0.170496,0.380788 0.380772,0.380788 0.495178,0 0.990351,0 1.48552,0 0.210284,0 0.380788,-0.170504 0.380788,-0.380788 0,-0.161551 -0.102209,-0.305732 -0.254272,-0.359252l-0.0417717 -0.0147087 0.000657481 -0.0442756c0.00404725,-0.273768 -0.192118,-0.512965 -0.462418,-0.56091 -0.232492,-0.0412481 -0.468839,0.0692048 -0.585933,0.273858l-0.0290827 0.0508268 -0.0522205 -0.026504z"/>
   <path id="_291640808" class="fil3" d="M0.899449 0.470174c0.0497678,-0.271036 0.309835,-0.44874 0.579079,-0.400996 0.280516,0.0497835 0.460544,0.324036 0.399918,0.599575 0.170677,0.00638583 0.307075,0.146736 0.307075,0.318957 0,0.176307 -0.142917,0.319225 -0.319225,0.319225 -0.560792,0 -1.09685,0 -1.48552,0 -0.176291,0 -0.319209,-0.142917 -0.319209,-0.319225 0,-0.219784 0.216571,-0.371622 0.421315,-0.302532 -0.0577205,-0.101791 -0.0309803,-0.231772 0.0628189,-0.302709 0.117996,-0.0892127 0.290331,-0.0474725 0.353752,0.0877048z"/>
   <path id="_291641024" class="fil4" d="M0.209988 1.03134l0.547504 -0.425835 0.282335 0.234555 0.434366 -0.403953 0.577874 0.547953c-0.0359607,0.143173 -0.143284,0.247059 -0.270122,0.247059 -0.497103,0 -0.9723,0 -1.31682,0 -0.11239,0 -0.209461,-0.0815788 -0.255134,-0.19978z"/>
   <path id="_289204296" class="fil5" d="M0.328894 0.995072c0.197169,-0.116854 0.347957,-0.140949 0.452485,-0.0724804 0.0349173,-0.0611024 0.0994843,-0.0859528 0.186536,-0.0833426l-0.212114 -0.176217c-0.142299,0.110681 -0.284603,0.221358 -0.426906,0.33204zm1.47932 -0.174898l-0.332244 -0.310599c-0.212689,0.198225 -0.42537,0.396441 -0.638059,0.59467 0.355484,-0.202421 0.478461,-0.345051 0.61891,-0.220744 0.0656418,-0.0834449 0.175701,-0.113079 0.351394,-0.0633268z"/>
  </g>
 </g>
</svg>
