<?xml version="1.0" encoding="UTF-8" standalone="no"?>
<svg
   xmlns:dc="http://purl.org/dc/elements/1.1/"
   xmlns:cc="http://creativecommons.org/ns#"
   xmlns:rdf="http://www.w3.org/1999/02/22-rdf-syntax-ns#"
   xmlns:svg="http://www.w3.org/2000/svg"
   xmlns="http://www.w3.org/2000/svg"
   viewBox="0 0 306.97333 47.130669"
   height="47.130669"
   width="306.97333"
   xml:space="preserve"
   id="svg2"
   version="1.1"><metadata
     id="metadata8"><rdf:RDF><cc:Work
         rdf:about=""><dc:format>image/svg+xml</dc:format><dc:type
           rdf:resource="http://purl.org/dc/dcmitype/StillImage" /></cc:Work></rdf:RDF></metadata><defs
     id="defs6"><clipPath
       id="clipPath18"
       clipPathUnits="userSpaceOnUse"><path
         id="path16"
         d="M 0,35.348 H 230.23 V 0 H 0 Z" /></clipPath><clipPath
       id="clipPath30"
       clipPathUnits="userSpaceOnUse"><path
         id="path28"
         d="m 204.934,29.674 v -24 h 5.696 v 9.525 h 1.966 l 5.186,-9.525 h 6.78 l -6.272,10.271 c 1.56,0.475 2.781,1.266 3.662,2.374 v 0 c 0.881,1.107 1.322,2.474 1.322,4.101 v 0 c 0,1.379 -0.26,2.531 -0.78,3.458 v 0 c -0.52,0.926 -1.215,1.672 -2.085,2.237 v 0 c -0.87,0.564 -1.853,0.966 -2.949,1.203 v 0 c -1.096,0.238 -2.22,0.356 -3.373,0.356 v 0 z m 5.662,-4.678 h 3.085 c 0.429,0 0.875,-0.034 1.339,-0.102 v 0 c 0.462,-0.067 0.881,-0.197 1.254,-0.39 v 0 c 0.372,-0.191 0.677,-0.462 0.915,-0.813 v 0 c 0.237,-0.35 0.356,-0.808 0.356,-1.373 v 0 c 0,-0.61 -0.13,-1.107 -0.39,-1.491 v 0 c -0.26,-0.384 -0.593,-0.679 -1,-0.882 v 0 c -0.407,-0.203 -0.859,-0.345 -1.357,-0.424 v 0 c -0.496,-0.078 -0.982,-0.118 -1.457,-0.118 v 0 h -2.745 z" /></clipPath><clipPath
       id="clipPath42"
       clipPathUnits="userSpaceOnUse"><path
         id="path40"
         d="M 0,35.348 H 230.23 V 0 H 0 Z" /></clipPath><clipPath
       id="clipPath54"
       clipPathUnits="userSpaceOnUse"><path
         id="path52"
         d="m 185.957,29.674 v -24 h 16.741 v 4.949 h -11.149 v 4.983 h 9.963 v 4.644 h -9.963 v 4.509 h 10.539 v 4.915 z" /></clipPath><clipPath
       id="clipPath66"
       clipPathUnits="userSpaceOnUse"><path
         id="path64"
         d="M 0,35.348 H 230.23 V 0 H 0 Z" /></clipPath><clipPath
       id="clipPath78"
       clipPathUnits="userSpaceOnUse"><path
         id="path76"
         d="m 177.281,29.674 -8.573,-9.762 h -0.102 v 9.762 h -5.693 v -24 h 5.693 v 11.051 h 0.067 l 8.913,-11.051 h 7.557 l -10.945,12.949 10.336,11.051 z" /></clipPath><clipPath
       id="clipPath90"
       clipPathUnits="userSpaceOnUse"><path
         id="path88"
         d="M 0,35.348 H 230.23 V 0 H 0 Z" /></clipPath><clipPath
       id="clipPath102"
       clipPathUnits="userSpaceOnUse"><path
         id="path100"
         d="m 154.712,29.674 0.135,-15.661 h -0.102 l -9.625,15.661 h -6.607 v -24 h 5.626 l -0.136,15.695 h 0.101 l 9.658,-15.695 h 6.575 v 24 z" /></clipPath><clipPath
       id="clipPath114"
       clipPathUnits="userSpaceOnUse"><path
         id="path112"
         d="M 0,35.348 H 230.23 V 0 H 0 Z" /></clipPath><clipPath
       id="clipPath124"
       clipPathUnits="userSpaceOnUse"><path
         id="path122"
         d="m 91.068,5.674 h 5.828 v 23.999 h -5.828 z" /></clipPath><clipPath
       id="clipPath136"
       clipPathUnits="userSpaceOnUse"><path
         id="path134"
         d="M 0,35.348 H 230.23 V 0 H 0 Z" /></clipPath><clipPath
       id="clipPath146"
       clipPathUnits="userSpaceOnUse"><path
         id="path144"
         d="m 81.58,5.674 h 5.828 V 29.673 H 81.58 Z" /></clipPath><clipPath
       id="clipPath158"
       clipPathUnits="userSpaceOnUse"><path
         id="path156"
         d="M 0,35.348 H 230.23 V 0 H 0 Z" /></clipPath><clipPath
       id="clipPath170"
       clipPathUnits="userSpaceOnUse"><path
         id="path168"
         d="m 119.534,29.674 v -24 h 16.742 v 4.949 h -11.149 v 4.983 h 9.963 v 4.644 h -9.963 v 4.509 h 10.539 v 4.915 z" /></clipPath><clipPath
       id="clipPath182"
       clipPathUnits="userSpaceOnUse"><path
         id="path180"
         d="M 0,35.348 H 230.23 V 0 H 0 Z" /></clipPath><clipPath
       id="clipPath194"
       clipPathUnits="userSpaceOnUse"><path
         id="path192"
         d="m 100.557,29.674 v -4.949 h 2.745 c 0.994,0 1.96,-0.114 2.897,-0.34 v 0 c 0.938,-0.224 1.774,-0.603 2.508,-1.134 v 0 c 0.735,-0.531 1.322,-1.244 1.763,-2.136 v 0 c 0.44,-0.893 0.66,-2.017 0.66,-3.373 v 0 c 0,-1.333 -0.22,-2.452 -0.66,-3.356 v 0 c -0.441,-0.904 -1.028,-1.628 -1.763,-2.169 v 0 c -0.734,-0.543 -1.582,-0.933 -2.541,-1.17 v 0 c -0.96,-0.237 -1.96,-0.356 -2.999,-0.356 v 0 h -2.61 V 5.674 h 3.152 c 1.649,0 3.276,0.232 4.88,0.695 v 0 c 1.603,0.464 3.044,1.186 4.321,2.169 v 0 c 1.276,0.983 2.304,2.238 3.083,3.763 v 0 c 0.779,1.526 1.17,3.339 1.17,5.441 v 0 c 0,2.26 -0.396,4.158 -1.187,5.695 v 0 c -0.79,1.536 -1.829,2.763 -3.118,3.677 v 0 c -1.287,0.917 -2.756,1.572 -4.404,1.967 v 0 c -1.65,0.396 -3.322,0.593 -5.016,0.593 v 0 z" /></clipPath><clipPath
       id="clipPath206"
       clipPathUnits="userSpaceOnUse"><path
         id="path204"
         d="M 0,35.348 H 230.23 V 0 H 0 Z" /></clipPath><clipPath
       id="clipPath218"
       clipPathUnits="userSpaceOnUse"><path
         id="path216"
         d="m 61.246,29.674 v -24 h 16.741 v 4.949 H 66.838 v 4.983 h 9.963 v 4.644 h -9.963 v 4.509 h 10.539 v 4.915 z" /></clipPath><clipPath
       id="clipPath230"
       clipPathUnits="userSpaceOnUse"><path
         id="path228"
         d="M 0,35.348 H 230.23 V 0 H 0 Z" /></clipPath><clipPath
       id="clipPath242"
       clipPathUnits="userSpaceOnUse"><path
         id="path240"
         d="M 54.027,29.674 50.164,13.708 h -0.101 l -4.304,15.966 h -6.033 l -4.27,-15.966 h -0.101 l -3.796,15.966 h -6.235 l 6.811,-24 h 5.761 l 4.745,16.237 h 0.101 L 47.487,5.674 h 5.727 l 6.846,24 z" /></clipPath><clipPath
       id="clipPath254"
       clipPathUnits="userSpaceOnUse"><path
         id="path252"
         d="M 0,35.348 H 230.23 V 0 H 0 Z" /></clipPath><clipPath
       id="clipPath266"
       clipPathUnits="userSpaceOnUse"><path
         id="path264"
         d="M 5.939,29.674 V 24.759 H 17.092 L 5.668,10.691 V 5.674 h 18.915 v 5.017 H 12.651 L 24.346,25.03 v 4.644 z" /></clipPath></defs><g
     transform="matrix(1.3333333,0,0,-1.3333333,0,47.130667)"
     id="g10"><g
       id="g12"><g
         clip-path="url(#clipPath18)"
         id="g14"><g
           transform="translate(217.7823,5.6742)"
           id="g20"><path
             id="path22"
             style="fill:#4c4846;fill-opacity:1;fill-rule:evenodd;stroke:none"
             d="M 0,0 -5.187,9.525 H -7.153 V 0 h -5.695 v 24 h 9.153 c 1.153,0 2.277,-0.119 3.373,-0.356 1.096,-0.237 2.079,-0.639 2.949,-1.204 0.87,-0.565 1.565,-1.31 2.085,-2.237 0.519,-0.926 0.779,-2.079 0.779,-3.457 0,-1.627 -0.44,-2.995 -1.322,-4.102 C 3.288,11.537 2.068,10.746 0.508,10.271 L 6.779,0 Z m -0.237,16.644 c 0,0.565 -0.119,1.023 -0.356,1.373 -0.238,0.35 -0.543,0.621 -0.916,0.813 -0.372,0.192 -0.791,0.322 -1.254,0.39 -0.463,0.068 -0.909,0.102 -1.339,0.102 h -3.085 v -5.593 h 2.746 c 0.475,0 0.961,0.039 1.458,0.118 0.497,0.079 0.949,0.22 1.356,0.424 0.406,0.203 0.74,0.497 1,0.881 0.26,0.385 0.39,0.882 0.39,1.492" /></g></g></g><g
       id="g24"><g
         clip-path="url(#clipPath30)"
         id="g26"><path
           id="path32"
           style="fill:#4c4846;fill-opacity:1;fill-rule:nonzero;stroke:none"
           d="m -42.332,-42.326 h 315 v 120 h -315 z" /><path
           id="path34"
           style="fill:#4c4846;fill-opacity:1;fill-rule:nonzero;stroke:none"
           d="m 199.935,34.674 h 29.627 v -34 h -29.627 z" /></g></g><g
       id="g36"><g
         clip-path="url(#clipPath42)"
         id="g38"><g
           transform="translate(185.9571,5.6742)"
           id="g44"><path
             id="path46"
             style="fill:#4c4846;fill-opacity:1;fill-rule:evenodd;stroke:none"
             d="M 0,0 V 24 H 16.131 V 19.084 H 5.591 v -4.508 h 9.964 V 9.932 H 5.591 V 4.949 h 11.15 V 0 Z" /></g></g></g><g
       id="g48"><g
         clip-path="url(#clipPath54)"
         id="g50"><path
           id="path56"
           style="fill:#4c4846;fill-opacity:1;fill-rule:nonzero;stroke:none"
           d="m -42.332,-42.326 h 315 v 120 h -315 z" /><path
           id="path58"
           style="fill:#4c4846;fill-opacity:1;fill-rule:nonzero;stroke:none"
           d="m 180.957,34.674 h 26.741 v -34 h -26.741 z" /></g></g><g
       id="g60"><g
         clip-path="url(#clipPath66)"
         id="g62"><g
           transform="translate(177.5865,5.6742)"
           id="g68"><path
             id="path70"
             style="fill:#4c4846;fill-opacity:1;fill-rule:evenodd;stroke:none"
             d="M 0,0 -8.913,11.051 H -8.98 V 0 h -5.694 v 24 h 5.694 v -9.763 h 0.101 L -0.305,24 H 6.947 L -3.389,12.949 7.557,0 Z" /></g></g></g><g
       id="g72"><g
         clip-path="url(#clipPath78)"
         id="g74"><path
           id="path80"
           style="fill:#4c4846;fill-opacity:1;fill-rule:nonzero;stroke:none"
           d="m -42.332,-42.326 h 315 v 120 h -315 z" /><path
           id="path82"
           style="fill:#4c4846;fill-opacity:1;fill-rule:nonzero;stroke:none"
           d="m 157.913,34.674 h 32.231 v -34 h -32.231 z" /></g></g><g
       id="g84"><g
         clip-path="url(#clipPath90)"
         id="g86"><g
           transform="translate(153.7623,5.6742)"
           id="g92"><path
             id="path94"
             style="fill:#4c4846;fill-opacity:1;fill-rule:evenodd;stroke:none"
             d="M 0,0 -9.658,15.695 H -9.76 L -9.624,0 h -5.626 v 24 h 6.608 L 0.983,8.339 H 1.084 L 0.949,24 H 6.575 V 0 Z" /></g></g></g><g
       id="g96"><g
         clip-path="url(#clipPath102)"
         id="g98"><path
           id="path104"
           style="fill:#4c4846;fill-opacity:1;fill-rule:nonzero;stroke:none"
           d="m -42.332,-42.326 h 315 v 120 h -315 z" /><path
           id="path106"
           style="fill:#4c4846;fill-opacity:1;fill-rule:nonzero;stroke:none"
           d="m 133.512,34.674 h 31.825 v -34 h -31.825 z" /></g></g><g
       id="g108"><g
         clip-path="url(#clipPath114)"
         id="g110"><path
           id="path116"
           style="fill:#4c4846;fill-opacity:1;fill-rule:evenodd;stroke:none"
           d="m 91.068,29.674 h 5.829 v -24 h -5.829 z" /></g></g><g
       id="g118"><g
         clip-path="url(#clipPath124)"
         id="g120"><path
           id="path126"
           style="fill:#4c4846;fill-opacity:1;fill-rule:nonzero;stroke:none"
           d="m -42.332,-42.326 h 315 v 120 h -315 z" /><path
           id="path128"
           style="fill:#4c4846;fill-opacity:1;fill-rule:nonzero;stroke:none"
           d="m 86.068,34.674 h 15.829 v -34 H 86.068 Z" /></g></g><g
       id="g130"><g
         clip-path="url(#clipPath136)"
         id="g132"><path
           id="path138"
           style="fill:#4c4846;fill-opacity:1;fill-rule:evenodd;stroke:none"
           d="m 81.579,29.674 h 5.829 v -24 h -5.829 z" /></g></g><g
       id="g140"><g
         clip-path="url(#clipPath146)"
         id="g142"><path
           id="path148"
           style="fill:#4c4846;fill-opacity:1;fill-rule:nonzero;stroke:none"
           d="m -42.332,-42.326 h 315 v 120 h -315 z" /><path
           id="path150"
           style="fill:#4c4846;fill-opacity:1;fill-rule:nonzero;stroke:none"
           d="m 76.579,34.674 h 15.829 v -34 H 76.579 Z" /></g></g><g
       id="g152"><g
         clip-path="url(#clipPath158)"
         id="g154"><g
           transform="translate(119.5348,5.6742)"
           id="g160"><path
             id="path162"
             style="fill:#4c4846;fill-opacity:1;fill-rule:evenodd;stroke:none"
             d="M 0,0 V 24 H 16.131 V 19.084 H 5.592 v -4.508 h 9.963 V 9.932 H 5.592 V 4.949 H 16.741 V 0 Z" /></g></g></g><g
       id="g164"><g
         clip-path="url(#clipPath170)"
         id="g166"><path
           id="path172"
           style="fill:#4c4846;fill-opacity:1;fill-rule:nonzero;stroke:none"
           d="m -42.332,-42.326 h 315 v 120 h -315 z" /><path
           id="path174"
           style="fill:#4c4846;fill-opacity:1;fill-rule:nonzero;stroke:none"
           d="m 114.535,34.674 h 26.741 v -34 h -26.741 z" /></g></g><g
       id="g176"><g
         clip-path="url(#clipPath182)"
         id="g178"><g
           transform="translate(100.5567,5.6742)"
           id="g184"><path
             id="path186"
             style="fill:#4c4846;fill-opacity:1;fill-rule:evenodd;stroke:none"
             d="m 0,0 h 3.152 c 1.649,0 3.276,0.231 4.88,0.695 1.604,0.463 3.044,1.186 4.321,2.169 1.276,0.983 2.304,2.238 3.084,3.763 0.779,1.525 1.169,3.339 1.169,5.44 0,2.261 -0.396,4.159 -1.187,5.696 -0.79,1.536 -1.829,2.762 -3.117,3.677 -1.288,0.916 -2.757,1.571 -4.406,1.967 C 6.247,23.802 4.575,24 2.881,24 H 0 v -4.949 h 2.745 c 0.994,0 1.96,-0.114 2.898,-0.34 0.938,-0.225 1.773,-0.604 2.507,-1.135 0.735,-0.531 1.322,-1.243 1.763,-2.136 0.44,-0.892 0.661,-2.017 0.661,-3.373 0,-1.333 -0.221,-2.451 -0.661,-3.356 C 9.472,7.808 8.885,7.084 8.15,6.542 7.416,6 6.569,5.61 5.609,5.373 4.648,5.135 3.649,5.017 2.61,5.017 H 0 Z" /></g></g></g><g
       id="g188"><g
         clip-path="url(#clipPath194)"
         id="g190"><path
           id="path196"
           style="fill:#4c4846;fill-opacity:1;fill-rule:nonzero;stroke:none"
           d="m -42.332,-42.326 h 315 v 120 h -315 z" /><path
           id="path198"
           style="fill:#4c4846;fill-opacity:1;fill-rule:nonzero;stroke:none"
           d="m 95.557,34.674 h 26.606 v -34 H 95.557 Z" /></g></g><g
       id="g200"><g
         clip-path="url(#clipPath206)"
         id="g202"><g
           transform="translate(61.2457,5.6742)"
           id="g208"><path
             id="path210"
             style="fill:#4c4846;fill-opacity:1;fill-rule:evenodd;stroke:none"
             d="M 0,0 V 24 H 16.131 V 19.084 H 5.592 v -4.508 h 9.963 V 9.932 H 5.592 V 4.949 H 16.741 V 0 Z" /></g></g></g><g
       id="g212"><g
         clip-path="url(#clipPath218)"
         id="g214"><path
           id="path220"
           style="fill:#4c4846;fill-opacity:1;fill-rule:nonzero;stroke:none"
           d="m -42.332,-42.326 h 315 v 120 h -315 z" /><path
           id="path222"
           style="fill:#4c4846;fill-opacity:1;fill-rule:nonzero;stroke:none"
           d="m 56.246,34.674 h 26.741 v -34 H 56.246 Z" /></g></g><g
       id="g224"><g
         clip-path="url(#clipPath230)"
         id="g226"><g
           transform="translate(53.214,5.6742)"
           id="g232"><path
             id="path234"
             style="fill:#4c4846;fill-opacity:1;fill-rule:evenodd;stroke:none"
             d="m 0,0 h -5.727 l -4.745,16.237 h -0.101 L -15.317,0 h -5.762 l -6.811,24 h 6.235 l 3.796,-15.966 h 0.101 L -13.488,24 h 6.032 L -3.151,8.034 H -3.05 L 0.813,24 h 6.033 z" /></g></g></g><g
       id="g236"><g
         clip-path="url(#clipPath242)"
         id="g238"><path
           id="path244"
           style="fill:#4c4846;fill-opacity:1;fill-rule:nonzero;stroke:none"
           d="m -42.332,-42.326 h 315 v 120 h -315 z" /><path
           id="path246"
           style="fill:#4c4846;fill-opacity:1;fill-rule:nonzero;stroke:none"
           d="M 20.324,34.674 H 65.06 v -34 H 20.324 Z" /></g></g><g
       id="g248"><g
         clip-path="url(#clipPath254)"
         id="g250"><g
           transform="translate(5.6681,5.6742)"
           id="g256"><path
             id="path258"
             style="fill:#4c4846;fill-opacity:1;fill-rule:evenodd;stroke:none"
             d="M 0,0 V 5.017 L 11.424,19.084 H 0.271 V 24 H 18.678 V 19.356 L 6.983,5.017 H 18.915 V 0 Z" /></g></g></g><g
       id="g260"><g
         clip-path="url(#clipPath266)"
         id="g262"><path
           id="path268"
           style="fill:#4c4846;fill-opacity:1;fill-rule:nonzero;stroke:none"
           d="m -42.332,-42.326 h 315 v 120 h -315 z" /><path
           id="path270"
           style="fill:#4c4846;fill-opacity:1;fill-rule:nonzero;stroke:none"
           d="m 0.668,34.674 h 28.915 v -34 H 0.668 Z" /></g></g></g></svg>