<?xml version="1.0" standalone="no"?>
<!DOCTYPE svg PUBLIC "-//W3C//DTD SVG 20010904//EN"
 "http://www.w3.org/TR/2001/REC-SVG-20010904/DTD/svg10.dtd">
<svg version="1.0" xmlns="http://www.w3.org/2000/svg"
 width="638.000000pt" height="638.000000pt" viewBox="0 0 638.000000 638.000000"
 preserveAspectRatio="xMidYMid meet">
<metadata>
Created by potrace 1.11, written by Peter Selinger 2001-2013
</metadata>
<g transform="translate(0.000000,638.000000) scale(0.100000,-0.100000)"
fill="#000000" stroke="none">
<path d="M1710 6350 c0 -9 4 -20 8 -25 7 -9 65 -140 68 -155 0 -3 9 -23 19
-45 10 -22 20 -44 21 -50 2 -5 37 -89 79 -185 42 -96 78 -179 79 -185 1 -5 12
-32 24 -59 12 -27 22 -50 22 -52 0 -2 11 -27 24 -56 13 -29 59 -136 101 -238
43 -102 84 -200 91 -217 8 -18 14 -35 14 -38 -1 -3 6 -18 13 -33 8 -15 19 -38
25 -52 6 -14 20 -45 30 -70 11 -25 50 -117 87 -205 37 -88 78 -185 92 -215 14
-30 26 -59 28 -65 1 -5 7 -21 13 -35 195 -457 254 -597 256 -605 1 -5 4 -14 7
-20 4 -5 23 -50 44 -100 20 -49 45 -108 55 -130 34 -77 48 -111 85 -200 20
-49 43 -103 50 -120 7 -16 34 -79 60 -140 25 -60 51 -122 58 -137 6 -15 15
-24 19 -22 8 5 13 15 93 194 26 58 55 123 65 145 68 152 153 341 175 390 7 17
26 59 43 95 16 36 75 166 130 290 55 124 111 250 125 280 14 30 46 102 72 160
26 58 56 125 67 150 11 25 29 65 40 90 11 25 36 79 55 120 19 41 36 80 37 85
2 6 21 50 44 99 23 49 42 90 42 92 0 4 48 110 91 200 16 34 29 64 29 67 0 3
18 45 41 94 22 48 46 102 54 118 7 17 34 77 60 135 75 167 81 181 116 255 17
39 33 72 34 75 8 31 31 80 37 80 4 0 8 6 8 14 0 12 68 169 91 209 6 11 7 22 4
25 -4 4 -686 7 -1516 7 -1357 0 -1509 -2 -1509 -15z"/>
<path d="M405 5499 c-2 -3 3 -19 11 -35 9 -16 79 -155 155 -309 77 -154 145
-289 151 -300 6 -11 125 -246 263 -521 139 -276 256 -508 261 -515 5 -8 9 -16
9 -19 0 -4 162 -326 195 -389 5 -9 35 -70 68 -136 33 -66 199 -397 370 -735
516 -1026 602 -1198 602 -1208 0 -6 3 -12 8 -14 4 -1 138 -263 297 -581 160
-318 292 -581 295 -584 3 -2 5 -8 6 -11 2 -14 59 -131 64 -131 3 0 23 37 45
82 22 45 44 85 48 88 5 3 8 9 8 13 -2 10 122 250 139 272 7 8 10 14 6 14 -3 0
5 18 19 40 14 22 22 40 19 40 -4 0 -1 6 5 13 10 13 33 57 203 387 47 91 121
235 165 320 44 85 120 232 168 325 48 94 109 211 135 260 26 50 103 198 170
330 152 296 167 325 181 341 6 8 8 14 4 14 -3 0 2 15 13 33 18 31 145 275 276
532 34 66 63 122 66 125 3 3 26 48 53 100 54 107 213 417 242 470 11 19 20 37
20 40 1 5 34 69 107 207 24 45 86 166 138 270 52 103 97 190 100 193 3 3 14
24 24 48 11 23 23 42 28 42 4 0 7 3 6 8 -2 7 41 95 152 307 29 55 104 201 168
325 63 124 119 231 125 238 5 6 6 13 1 13 -5 1 -330 2 -722 3 -466 1 -716 -2
-721 -9 -4 -5 -18 -35 -31 -65 -12 -30 -40 -92 -61 -138 -22 -45 -39 -84 -39
-86 0 -2 -16 -39 -36 -83 -20 -43 -42 -91 -49 -108 -18 -41 -72 -161 -95 -210
-64 -138 -90 -196 -90 -200 0 -2 -15 -37 -34 -77 -19 -40 -71 -156 -117 -258
-45 -102 -97 -219 -117 -260 -19 -41 -35 -81 -35 -87 0 -7 -4 -13 -9 -13 -4 0
-7 -3 -6 -7 1 -5 -10 -33 -24 -63 -14 -30 -74 -161 -132 -291 -94 -213 -121
-271 -174 -389 -9 -19 -17 -37 -17 -40 -1 -3 -14 -32 -29 -65 -15 -33 -38 -82
-51 -110 -12 -27 -35 -77 -51 -110 -15 -33 -29 -64 -30 -70 -6 -21 -137 -310
-145 -319 -4 -5 -15 9 -25 30 -9 21 -22 53 -30 69 -7 17 -54 127 -105 245 -50
118 -96 226 -102 240 -5 14 -11 27 -12 30 -4 12 -134 317 -153 360 -9 19 -16
37 -17 40 0 3 -11 27 -23 54 -12 27 -22 50 -22 52 0 2 -11 27 -24 56 -13 29
-36 82 -51 118 -36 86 -273 644 -295 695 -10 22 -36 85 -60 140 -23 55 -48
114 -55 130 -7 17 -21 48 -30 70 -9 22 -83 195 -164 385 l-147 345 -728 0
c-400 0 -729 -3 -731 -6z"/>
</g>
</svg>
