<svg xmlns="http://www.w3.org/2000/svg" viewBox="0 0 200.1 21"><defs><style>.a{fill:#868175;}.b{fill:#006eb4;}</style></defs><title>Element 1</title><path class="a" d="M19.4.5H13.9c1.1.9,1.2,2,1.2,3.5V8.5H4.3V4c0-1.5.1-2.6,1.2-3.5H0c1.1.9,1.2,2,1.2,3.5V16.9c0,1.5-.1,2.6-1.2,3.5H5.5c-1.1-1-1.2-2-1.2-3.5V10.8H15.1v6.2c0,1.5-.1,2.6-1.2,3.5h5.5c-1.1-1-1.2-2-1.2-3.5V4C18.2,2.5,18.3,1.4,19.4.5Z"/><path class="a" d="M31.7,0a10.8,10.8,0,0,0-8.9,4.4,10.4,10.4,0,0,0,1.1,13.7,11.3,11.3,0,0,0,7.8,2.8,10.8,10.8,0,0,0,7.5-2.8,10.5,10.5,0,0,0,3.5-7.6,10.2,10.2,0,0,0-3.2-7.6A11.3,11.3,0,0,0,31.7,0Zm-.1,18.8c-4.2,0-7.5-3.5-7.5-8.5s3.3-8.1,7.7-8.1,7.5,3.5,7.5,8.5S36,18.8,31.6,18.8Z"/><path class="a" d="M63.4.5H57.9c1.1.9,1.2,2,1.2,3.5V8.5H48.3V4c0-1.5.1-2.6,1.2-3.5H44c1.1.9,1.2,2,1.2,3.5V16.9c0,1.5-.1,2.6-1.2,3.5h5.5c-1.1-1-1.2-2-1.2-3.5V10.8H59.1v6.2c0,1.5-.1,2.6-1.2,3.5h5.5c-1.1-1-1.2-2-1.2-3.5V4C62.2,2.5,62.3,1.4,63.4.5Z"/><path class="a" d="M71,17.9V10.7h1.8c1.5,0,2.5,0,3.1.7V8.5H71V2.9a15,15,0,0,1,3-.4,5.7,5.7,0,0,1,3.7,1.1V.5h-11c1.1.9,1.2,2,1.2,3.5V16.9c0,1.5-.1,2.6-1.2,3.5H78.8l1.4-3.9a9.7,9.7,0,0,1-5.5,1.7Z"/><path class="a" d="M98.1,4V15.5L86.3.5H82.2c1.1.9,1.2,2,1.2,3.5V16.9c0,1.5-.1,2.6-1.2,3.5h4.5c-1.1-1-1.2-2-1.2-3.5V4.8l10.3,13c1.5,1.9,2.7,3.1,4.4,3.2V4c0-1.5.1-2.6,1.2-3.5H96.9C98,1.4,98.1,2.5,98.1,4Z"/><path class="a" d="M116.3,11a19.7,19.7,0,0,0-4.1-2.3c-2.9-1.4-4.5-2.2-4.5-4s1.4-2.7,3.8-2.7A8.2,8.2,0,0,1,116.6,4V.6a26.1,26.1,0,0,0-4.8-.5c-4.7,0-7.4,2.2-7.4,5.3s1.7,4,5.1,5.6,4.2,1.9,4.9,2.9a2.8,2.8,0,0,1,.5,1.6c0,1.8-1.7,3.2-4.6,3.2a11.9,11.9,0,0,1-6.6-2.3l.9,3.6a17.8,17.8,0,0,0,5.3,1c5,0,8.3-2.9,8.3-6.2A4.8,4.8,0,0,0,116.3,11Z"/><path class="a" d="M119.6,3.7c.9-.8,2.3-1.1,4.4-1.1h1.6V16.9c0,1.5-.1,2.6-1.2,3.5h5.5c-1.1-1-1.2-2-1.2-3.5V2.7h2.2a3.7,3.7,0,0,1,3,1l.9-3.2H120.6Z"/><path class="a" d="M141.2,17.9V10.7H143c1.5,0,2.5,0,3.1.7V8.5h-4.9V2.9a15,15,0,0,1,3-.4,5.7,5.7,0,0,1,3.7,1.1V.5h-11c1.1.9,1.2,2,1.2,3.5V16.9c0,1.5-.1,2.6-1.2,3.5h12.2l1.4-3.9a9.7,9.7,0,0,1-5.5,1.7Z"/><path class="a" d="M158,.5h-5.5c1.1.9,1.2,2,1.2,3.5V16.9c0,1.5-.1,2.6-1.2,3.5H158c-1.1-1-1.2-2-1.2-3.5V4C156.8,2.5,156.9,1.4,158,.5Z"/><path class="a" d="M177.2,4V15.5L165.4.5h-4.1c1.1.9,1.2,2,1.2,3.5V16.9c0,1.5-.1,2.6-1.2,3.5h4.5c-1.1-1-1.2-2-1.2-3.5V4.8l10.3,13c1.5,1.9,2.7,3.1,4.4,3.2V4c0-1.5.1-2.6,1.2-3.5H176C177.1,1.4,177.2,2.5,177.2,4Z"/><circle class="b" cx="192.6" cy="11.6" r="7.5"/></svg>