<svg id="Layer_1" data-name="Layer 1" xmlns="http://www.w3.org/2000/svg" viewBox="0 0 285.8 73.84"><defs><style>.cls-1{fill:#30b8e3;}</style></defs><title>Artboard 1</title><path class="cls-1" d="M29.35,39.91A3.11,3.11,0,0,0,27,38.69a4,4,0,0,0-2.28.78,9,9,0,0,0-2,2,12.13,12.13,0,0,0-1.52,2.8,11.83,11.83,0,0,0-.78,3.11v7.7A2,2,0,0,0,21.88,57a10.29,10.29,0,0,0,3.75.61v5.83H3V57.6c3.11,0,4.67-.84,4.67-2.5V43.35q0-2.49-4.61-2.49V35.13H20.35v5.06q2.61-6.11,8.23-6.11a9.15,9.15,0,0,1,2.89.47,8.19,8.19,0,0,1,2.58,1.37,7.37,7.37,0,0,1,1.87,2.26,6.41,6.41,0,0,1,.72,3.07,8.31,8.31,0,0,1-1.53,5.11,4.93,4.93,0,0,1-4.2,2.06A5.4,5.4,0,0,1,27.1,47.2,4.15,4.15,0,0,1,25.8,44a4.89,4.89,0,0,1,.8-2.67A3.41,3.41,0,0,1,29.35,39.91Z"/><path class="cls-1" d="M51.65,49.87q.16,4.5,1.45,6.42a4.57,4.57,0,0,0,4.11,1.92A6.9,6.9,0,0,0,61.16,57a5.81,5.81,0,0,0,2.39-3.59l5.89.39a13,13,0,0,1-1.33,3.92,11.78,11.78,0,0,1-2.67,3.39,13.32,13.32,0,0,1-4,2.39,14.94,14.94,0,0,1-5.42.92,27.83,27.83,0,0,1-6.59-.75A14.46,14.46,0,0,1,44,61.13a11.8,11.8,0,0,1-3.62-4.67,17.66,17.66,0,0,1-1.3-7.2Q39.09,42,43.2,38t11.95-4a24,24,0,0,1,6.82.86,10.59,10.59,0,0,1,7.53,7.68,26.28,26.28,0,0,1,.89,7.31Zm8.62-4.78A12.55,12.55,0,0,0,60.08,43a7.25,7.25,0,0,0-.7-2.09,4.72,4.72,0,0,0-1.33-1.6A3.34,3.34,0,0,0,56,38.64c-2.49,0-3.89,2.15-4.23,6.45Z"/><path class="cls-1" d="M100.69,44.42,95,44.75a5.57,5.57,0,0,0-1.22-2.25,6.32,6.32,0,0,0-1.92-1.45,8.91,8.91,0,0,0-2.39-.75,16.6,16.6,0,0,0-2.64-.22c-2.3,0-3.45.59-3.45,1.78a1.72,1.72,0,0,0,1,1.56,11.6,11.6,0,0,0,2.76,1c1.15.28,2.48.55,4,.81a41.83,41.83,0,0,1,4.71,1.11A11,11,0,0,1,101,49.26a7.58,7.58,0,0,1,1.67,5.22,8.32,8.32,0,0,1-1,4.2,9,9,0,0,1-2.53,2.86,10.89,10.89,0,0,1-3.42,1.67,13.17,13.17,0,0,1-3.72.56,35.09,35.09,0,0,1-4.87-.28c-1.24-.19-2.25-.38-3-.58s-1.42-.4-1.92-.59A4.34,4.34,0,0,0,80.73,62a1.13,1.13,0,0,0-.81.31,3.17,3.17,0,0,0-.58,1.08H73.67v-9.5l5.67-.23a3.92,3.92,0,0,0,1.39,2,9.52,9.52,0,0,0,2.53,1.38,16.18,16.18,0,0,0,3.17.84,19.9,19.9,0,0,0,3.31.28c2,0,3.06-.69,3.06-2.06a1.68,1.68,0,0,0-.87-1.53,7.29,7.29,0,0,0-2.33-.83c-1-.21-2.14-.4-3.48-.59a39.14,39.14,0,0,1-4.22-.83,17.51,17.51,0,0,1-4-1.47,8.84,8.84,0,0,1-2.53-2A6.53,6.53,0,0,1,74,46.42a11.34,11.34,0,0,1-.39-3.06A8.24,8.24,0,0,1,76.27,37q2.66-2.45,7.46-2.44a20.83,20.83,0,0,1,3.78.3c1.08.21,2,.42,2.76.64s1.4.44,1.94.64a4,4,0,0,0,1.42.31c.63,0,1.26-.45,1.89-1.34h5.17Z"/><path class="cls-1" d="M121.93,34.08a30.27,30.27,0,0,1,5.31.47,16.64,16.64,0,0,1,4.89,1.61,9.89,9.89,0,0,1,3.59,3.1,8.4,8.4,0,0,1,1.39,5V56.32A2.85,2.85,0,0,0,137.5,58a1.37,1.37,0,0,0,1.17.5,1.26,1.26,0,0,0,1.16-.64,3,3,0,0,0,.39-1.58V53.93h3.84v1a10,10,0,0,1-.89,4.56,7,7,0,0,1-2.28,2.67,8.28,8.28,0,0,1-3,1.28,15.9,15.9,0,0,1-3.14.33,9.49,9.49,0,0,1-5.78-1.47,7.71,7.71,0,0,1-2.73-4.14,11.08,11.08,0,0,1-1.33,2.28,8.76,8.76,0,0,1-2.09,2,10.41,10.41,0,0,1-3,1.39,14.29,14.29,0,0,1-4.09.53q-5.11,0-7.45-2.17a7.35,7.35,0,0,1-2.33-5.62,8.17,8.17,0,0,1,.92-3.8,6.39,6.39,0,0,1,2.8-2.81,12.11,12.11,0,0,1,2.92-1.09c1.13-.27,2.37-.53,3.73-.77s2.79-.53,4.31-.87a39.45,39.45,0,0,0,4.67-1.33V44.2a7.2,7.2,0,0,0-.31-2,4.9,4.9,0,0,0-2.7-3.15,5.81,5.81,0,0,0-2.5-.5,15.84,15.84,0,0,0-3,.25,7.81,7.81,0,0,0-2.53,1,5.52,5.52,0,0,1,2.47.75,2.44,2.44,0,0,1,1,2.26,3.94,3.94,0,0,1-1.17,3,7.15,7.15,0,0,1-7.7,0,4.86,4.86,0,0,1-1.19-3.64,5.65,5.65,0,0,1,1-3.19,8.31,8.31,0,0,1,2.81-2.54,16.49,16.49,0,0,1,4.47-1.7A25.89,25.89,0,0,1,121.93,34.08Zm3.39,14.29a21.59,21.59,0,0,1-3.19,1.91c-1,.47-1.84.9-2.56,1.31a5.52,5.52,0,0,0-1.7,1.42,3.55,3.55,0,0,0-.61,2.2,2.72,2.72,0,0,0,.58,1.69,2.59,2.59,0,0,0,2.14.75,5.16,5.16,0,0,0,3.12-1.06,6.65,6.65,0,0,0,2.22-3Z"/><path class="cls-1" d="M164.08,55.1c0,1.66,1.55,2.5,4.67,2.5v5.83h-22V57.6c3.11,0,4.67-.84,4.67-2.5V28.85q0-2.51-4.67-2.5V20.62h17.35Z"/><path class="cls-1" d="M183.7,49.87c.11,3,.6,5.14,1.45,6.42a4.57,4.57,0,0,0,4.11,1.92,6.9,6.9,0,0,0,4-1.25,5.81,5.81,0,0,0,2.39-3.59l5.9.39a13.3,13.3,0,0,1-1.34,3.92,11.78,11.78,0,0,1-2.67,3.39,13.2,13.2,0,0,1-4,2.39,14.91,14.91,0,0,1-5.42.92,27.83,27.83,0,0,1-6.59-.75,14.54,14.54,0,0,1-5.39-2.5,11.8,11.8,0,0,1-3.62-4.67,17.66,17.66,0,0,1-1.3-7.2q0-7.29,4.11-11.26t12-4a24,24,0,0,1,6.81.86,11.25,11.25,0,0,1,4.75,2.75,11.37,11.37,0,0,1,2.78,4.93,26.28,26.28,0,0,1,.89,7.31Zm8.62-4.78a12.55,12.55,0,0,0-.19-2.13,7,7,0,0,0-.7-2.09,4.72,4.72,0,0,0-1.33-1.6,3.34,3.34,0,0,0-2.06-.63q-3.72,0-4.23,6.45Z"/><path class="cls-1" d="M259,48.48V34.41A16,16,0,0,0,256.26,25a18.07,18.07,0,0,0-5.61-5.15h27.67v32q0,2.37,2.66,3.34a36.94,36.94,0,0,0-4.41-42.67,9.74,9.74,0,0,1-.74.83,10.51,10.51,0,0,1-3.3,2.23,10.45,10.45,0,0,1-8,0,10.58,10.58,0,0,1-3.29-2.23A10.41,10.41,0,0,1,259,10a10.18,10.18,0,0,1-.8-4,10.14,10.14,0,0,1,.8-4c.08-.18.17-.36.26-.53A36.89,36.89,0,0,0,215.1,22l.24-.16a26.7,26.7,0,0,1,7.17-2.73,41.55,41.55,0,0,1,9.58-1,49.63,49.63,0,0,1,8.5.76,26.77,26.77,0,0,1,7.84,2.58c.45.23.87.49,1.28.75s.55.37.82.56a15.66,15.66,0,0,1,3.65,3.66,11.6,11.6,0,0,1,1.62,3.42h0a14.08,14.08,0,0,1,.45,2.13v0c.05.34.08.69.11,1,0,0,0,.09,0,.13,0,.39,0,.8,0,1.21V49.1c0,1.09-.26,9.87,2.49,16.23a12.25,12.25,0,0,1-2.47.4h-.08l-.6,0h-.24l-.45,0h-1.94l-1.1,0h-1l-.5,0a12.67,12.67,0,0,1-7.22-2.32A12.31,12.31,0,0,1,239,56.8a18.08,18.08,0,0,1-2.14,3.66,14.22,14.22,0,0,1-3.34,3.16,17.4,17.4,0,0,1-4.81,2.23,20.71,20.71,0,0,1-2.09.47,36.88,36.88,0,0,0,46.06-1.14H261.74C258.5,58.79,259,48.48,259,48.48Z"/><path class="cls-1" d="M223.05,40.64q3.24-.59,6.9-1.38a66.51,66.51,0,0,0,7.48-2.14V34.36a11.31,11.31,0,0,0-.49-3.26,8.39,8.39,0,0,0-.63-1.55,8,8,0,0,0-.93-1.38,7.85,7.85,0,0,0-2.76-2.1,9.34,9.34,0,0,0-4-.8,24.31,24.31,0,0,0-4.76.4,12.69,12.69,0,0,0-4.06,1.65,8.71,8.71,0,0,1,4,1.2,3.91,3.91,0,0,1,1.65,3.61,8.39,8.39,0,0,1-.12,1.44,6.56,6.56,0,0,1-.61,1.86,5.63,5.63,0,0,1-.71,1,4.79,4.79,0,0,1-.43.47q-1.87,1.79-6.15,1.78A10,10,0,0,1,212,37.49a36.59,36.59,0,0,0,.59,6,19.41,19.41,0,0,1,4.51-1.66C218.89,41.44,220.88,41,223.05,40.64Z"/><path class="cls-1" d="M234,54.22a10.7,10.7,0,0,0,3.56-4.81V41a37.27,37.27,0,0,1-3.92,2.46c-.41.22-.81.43-1.2.61q-2.35,1.11-4.1,2.09a8.91,8.91,0,0,0-2.72,2.28,5.69,5.69,0,0,0-1,3.51,4.32,4.32,0,0,0,.94,2.72c.62.8,1.77,1.2,3.43,1.2A8.3,8.3,0,0,0,234,54.22Z"/></svg>