<?xml version="1.0" encoding="UTF-8" standalone="no"?>
<!DOCTYPE svg PUBLIC "-//W3C//DTD SVG 1.1//EN" "http://www.w3.org/Graphics/SVG/1.1/DTD/svg11.dtd">
<svg version="1.1" xmlns="http://www.w3.org/2000/svg" xmlns:xlink="http://www.w3.org/1999/xlink" preserveAspectRatio="xMidYMid meet" viewBox="0 0 720 720" width="720" height="720"><defs><path d="M0 106.99L159.68 106.99L159.68 618.99L0 618.99L0 106.99Z" id="i9EdyN81O"></path><path d="M159.68 106.99L720 106.99L720 597.89L159.68 597.89L159.68 106.99Z" id="i5umT3Hfp"></path><path d="M361.4 224.41L692.24 224.41L692.24 467.09L361.4 467.09L361.4 224.41Z" id="i2uLPhMiqx"></path><path d="M361.4 492.99L692.24 492.99L692.24 597.89L361.4 597.89L361.4 492.99Z" id="c9skO5VlD"></path><path d="M361.4 168.69L506.22 168.69L506.22 181.14L361.4 181.14L361.4 168.69Z" id="aRqO4ZUbV"></path><path d="M199.55 224.41L318.33 224.41L318.33 236.87L199.55 236.87L199.55 224.41Z" id="anGA8A43G"></path><path d="M199.55 256.51L318.33 256.51L318.33 268.97L199.55 268.97L199.55 256.51Z" id="b2LVVokXle"></path><path d="M199.55 288.89L318.33 288.89L318.33 301.34L199.55 301.34L199.55 288.89Z" id="bgufGJhT"></path><path d="M199.55 320.75L318.33 320.75L318.33 333.2L199.55 333.2L199.55 320.75Z" id="b7tk1ypnG"></path><path d="M199.55 352.87L318.33 352.87L318.33 365.32L199.55 365.32L199.55 352.87Z" id="aDW3qZGYp"></path><path d="M199.55 384.73L318.33 384.73L318.33 397.18L199.55 397.18L199.55 384.73Z" id="e4gEGph0be"></path><path d="M199.55 416.85L318.33 416.85L318.33 429.3L199.55 429.3L199.55 416.85Z" id="c17p4JT7as"></path><path d="M159.68 106.99L720 106.99L720 141.41L159.68 141.41L159.68 106.99Z" id="a1PWd1EQHg"></path><path d="M159.68 597.89L720 597.89L720 618.99L159.68 618.99L159.68 597.89Z" id="e58nzk4zce"></path></defs><g><g><g><use xlink:href="#i9EdyN81O" opacity="1" fill="#424242" fill-opacity="1"></use></g><g><use xlink:href="#i5umT3Hfp" opacity="1" fill="#fafafa" fill-opacity="1"></use></g><g><use xlink:href="#i2uLPhMiqx" opacity="1" fill="#e1e1e1" fill-opacity="1"></use></g><g><use xlink:href="#c9skO5VlD" opacity="1" fill="#e1e1e1" fill-opacity="1"></use></g><g><use xlink:href="#aRqO4ZUbV" opacity="1" fill="#e1e1e1" fill-opacity="1"></use></g><g><use xlink:href="#anGA8A43G" opacity="1" fill="#e1e1e1" fill-opacity="1"></use></g><g><use xlink:href="#b2LVVokXle" opacity="1" fill="#e1e1e1" fill-opacity="1"></use></g><g><use xlink:href="#bgufGJhT" opacity="1" fill="#e1e1e1" fill-opacity="1"></use></g><g><use xlink:href="#b7tk1ypnG" opacity="1" fill="#e1e1e1" fill-opacity="1"></use></g><g><use xlink:href="#aDW3qZGYp" opacity="1" fill="#e1e1e1" fill-opacity="1"></use></g><g><use xlink:href="#e4gEGph0be" opacity="1" fill="#e1e1e1" fill-opacity="1"></use></g><g><use xlink:href="#c17p4JT7as" opacity="1" fill="#e1e1e1" fill-opacity="1"></use></g><g><use xlink:href="#a1PWd1EQHg" opacity="1" fill="#2196f3" fill-opacity="1"></use></g><g><use xlink:href="#e58nzk4zce" opacity="1" fill="#616161" fill-opacity="1"></use><g><use xlink:href="#e58nzk4zce" opacity="1" fill-opacity="0" stroke="#000000" stroke-width="1" stroke-opacity="0"></use></g></g></g></g></svg>