<svg id="Layer_1" data-name="Layer 1" xmlns="http://www.w3.org/2000/svg" viewBox="0 0 159 48"><defs><style>.cls-1{fill:#848484;}.cls-2{fill:#1697f6;}.cls-3{fill:#7bc6ff;}.cls-4{fill:#1867c0;}.cls-5{fill:#aeddff;}</style></defs><title>header-logo</title><path class="cls-1" d="M67.37,27.71l.45,1.57h.08l.45-1.57,5.14-15h2.91L69,32.66H66.7L59.3,12.75h2.93Z"/><path class="cls-1" d="M87.67,30.47a5,5,0,0,1-1.79,1.83,4.9,4.9,0,0,1-2.53.64,4.75,4.75,0,0,1-3.77-1.54,7.17,7.17,0,0,1-1.35-4.81V17.87h2.69v8.75a5.51,5.51,0,0,0,.7,3.25,2.59,2.59,0,0,0,2.17.89,4.43,4.43,0,0,0,2.37-.58,3.64,3.64,0,0,0,1.42-1.65V17.87h2.69V32.66H87.85Z"/><path class="cls-1" d="M100.33,32.95a6.24,6.24,0,0,1-4.92-2.06,7.75,7.75,0,0,1-1.83-5.34v-.6a7.59,7.59,0,0,1,1.88-5.26,5.79,5.79,0,0,1,4.45-2.1,5.6,5.6,0,0,1,4.53,1.8A7.19,7.19,0,0,1,106,24.21v1.68h-9.6l0,.07a5.82,5.82,0,0,0,1.08,3.5,3.44,3.44,0,0,0,2.91,1.37,6.78,6.78,0,0,0,2.4-.39,5.51,5.51,0,0,0,1.78-1.07l1.05,1.75a6.25,6.25,0,0,1-2.09,1.31A8.43,8.43,0,0,1,100.33,32.95Zm-.41-13.23a2.92,2.92,0,0,0-2.31,1.14,5.38,5.38,0,0,0-1.18,2.85l0,.07h6.82v-.35a4.11,4.11,0,0,0-.85-2.64A3,3,0,0,0,99.92,19.71Z"/><path class="cls-1" d="M112.55,14.3v3.57h2.8v2h-2.8v9a2,2,0,0,0,.43,1.46,1.56,1.56,0,0,0,1.14.42,2.68,2.68,0,0,0,.51-.05,3.12,3.12,0,0,0,.5-.14l.36,1.85a2.38,2.38,0,0,1-.88.4,4.47,4.47,0,0,1-1.17.16,3.49,3.49,0,0,1-2.61-1,4.3,4.3,0,0,1-1-3.11v-9h-2.35v-2h2.35V14.3Z"/><path class="cls-1" d="M121.59,14.08H118.9V11.33h2.69Zm0,18.58H118.9V17.87h2.69Z"/><path class="cls-1" d="M126.85,32.66V19.86h-2.31v-2h2.31V16a5.08,5.08,0,0,1,1.24-3.66A4.55,4.55,0,0,1,131.54,11a6,6,0,0,1,.94.08q.47.08,1,.21l-.33,2.05q-.25-.05-.59-.1a6.27,6.27,0,0,0-.73,0,2.13,2.13,0,0,0-1.75.7,3.17,3.17,0,0,0-.57,2v1.87h3.08v2h-3.08v12.8Z"/><path class="cls-1" d="M139.92,27.18,140.4,29h.08l3.64-11.17h3L140.9,34.93a7.68,7.68,0,0,1-1.61,2.6,3.7,3.7,0,0,1-2.82,1.11,5.93,5.93,0,0,1-.83-.08q-.51-.08-.78-.14l.27-2.12.49,0,.72,0a1.66,1.66,0,0,0,1.41-.77,8,8,0,0,0,.92-1.7l.64-1.54-5.5-14.49h3Z"/><polyline class="cls-2" points="21 0 11.19 0 21 23.19"/><polyline class="cls-3" points="21 30 21 48 0 7 11 7"/><polyline class="cls-4" points="21 0 30.81 0 21 23.19"/><polyline class="cls-5" points="21 30 21 48 42 7 31 7"/></svg>