<?xml version="1.0" encoding="UTF-8" standalone="no"?>
<!DOCTYPE svg PUBLIC "-//W3C//DTD SVG 1.1//EN" "http://www.w3.org/Graphics/SVG/1.1/DTD/svg11.dtd">
<svg version="1.1" xmlns="http://www.w3.org/2000/svg" xmlns:xlink="http://www.w3.org/1999/xlink" preserveAspectRatio="xMidYMid meet" viewBox="0 0 720 720" width="720" height="720"><defs><path d="M0 137.84L720 137.84L720 574.05L0 574.05L0 137.84Z" id="b1XEG9Xtrr"></path><path d="M313.42 191.02C321.53 191.02 328.1 197.6 328.1 205.71C328.1 211.08 328.1 212.52 328.1 217.89C328.1 226 321.53 232.57 313.42 232.57C270.93 232.57 158.14 232.57 115.65 232.57C107.54 232.57 100.96 226 100.96 217.89C100.96 212.52 100.96 211.08 100.96 205.71C100.96 197.6 107.54 191.02 115.65 191.02C158.14 191.02 270.93 191.02 313.42 191.02Z" id="a3RJRiRFkN"></path><path d="M87.88 211.83C87.88 223.32 78.56 232.64 67.07 232.64C55.59 232.64 46.26 223.32 46.26 211.83C46.26 200.35 55.59 191.02 67.07 191.02C78.56 191.02 87.88 200.35 87.88 211.83Z" id="a3ir79ONJB"></path><path d="M384 211.83C384 223.32 374.68 232.64 363.19 232.64C351.71 232.64 342.38 223.32 342.38 211.83C342.38 200.35 351.71 191.02 363.19 191.02C374.68 191.02 384 200.35 384 211.83Z" id="e1s3x4I6d3"></path><path d="M470.98 261.14C480.42 261.14 488.08 268.79 488.08 278.23C488.08 283.12 488.08 280.7 488.08 285.59C488.08 295.03 480.42 302.68 470.98 302.68C407.63 302.68 234.69 302.68 171.34 302.68C161.9 302.68 154.25 295.03 154.25 285.59C154.25 280.7 154.25 283.12 154.25 278.23C154.25 268.79 161.9 261.14 171.34 261.14C234.69 261.14 407.63 261.14 470.98 261.14Z" id="a2o1GLxvot"></path><path d="M142.58 281.95C142.58 293.43 133.26 302.76 121.77 302.76C110.29 302.76 100.96 293.43 100.96 281.95C100.96 270.46 110.29 261.14 121.77 261.14C133.26 261.14 142.58 270.46 142.58 281.95Z" id="a7lx5l00mt"></path><path d="M666.33 281.95C666.33 293.43 657.01 302.76 645.52 302.76C634.04 302.76 624.71 293.43 624.71 281.95C624.71 270.46 634.04 261.14 645.52 261.14C657.01 261.14 666.33 270.46 666.33 281.95Z" id="cjZ9SpDq"></path><path d="M603.61 261.14C607.39 261.14 610.45 264.2 610.45 267.98C610.45 274.92 610.45 288.9 610.45 295.84C610.45 299.62 607.39 302.68 603.61 302.68C583.81 302.68 531.26 302.68 511.46 302.68C507.68 302.68 504.62 299.62 504.62 295.84C504.62 288.9 504.62 274.92 504.62 267.98C504.62 264.2 507.68 261.14 511.46 261.14C531.26 261.14 583.81 261.14 603.61 261.14Z" id="g5Dwrm0fQJ"></path><path d="M313.42 473.07C321.53 473.07 328.1 479.64 328.1 487.75C328.1 493.12 328.1 494.56 328.1 499.94C328.1 508.04 321.53 514.62 313.42 514.62C270.93 514.62 158.14 514.62 115.65 514.62C107.54 514.62 100.96 508.04 100.96 499.94C100.96 494.56 100.96 493.12 100.96 487.75C100.96 479.64 107.54 473.07 115.65 473.07C158.14 473.07 270.93 473.07 313.42 473.07Z" id="bjBBjlNmQ"></path><path d="M87.88 493.88C87.88 505.36 78.56 514.69 67.07 514.69C55.59 514.69 46.26 505.36 46.26 493.88C46.26 482.39 55.59 473.07 67.07 473.07C78.56 473.07 87.88 482.39 87.88 493.88Z" id="a1JzdtofuJ"></path><path d="M384 493.88C384 505.36 374.68 514.69 363.19 514.69C351.71 514.69 342.38 505.36 342.38 493.88C342.38 482.39 351.71 473.07 363.19 473.07C374.68 473.07 384 482.39 384 493.88Z" id="ifsl050y5"></path><path d="M470.98 332.29C480.42 332.29 488.08 339.95 488.08 349.39C488.08 354.28 488.08 351.86 488.08 356.75C488.08 366.19 480.42 373.84 470.98 373.84C407.63 373.84 234.69 373.84 171.34 373.84C161.9 373.84 154.25 366.19 154.25 356.75C154.25 351.86 154.25 354.28 154.25 349.39C154.25 339.95 161.9 332.29 171.34 332.29C234.69 332.29 407.63 332.29 470.98 332.29Z" id="a7Djm3HYkp"></path><path d="M142.58 353.1C142.58 364.59 133.26 373.91 121.77 373.91C110.29 373.91 100.96 364.59 100.96 353.1C100.96 341.62 110.29 332.29 121.77 332.29C133.26 332.29 142.58 341.62 142.58 353.1Z" id="g5jnoNZSbx"></path><path d="M666.33 353.1C666.33 364.59 657.01 373.91 645.52 373.91C634.04 373.91 624.71 364.59 624.71 353.1C624.71 341.62 634.04 332.29 645.52 332.29C657.01 332.29 666.33 341.62 666.33 353.1Z" id="h48VkUeDRE"></path><path d="M603.61 332.29C607.39 332.29 610.45 335.36 610.45 339.14C610.45 346.08 610.45 360.06 610.45 367C610.45 370.78 607.39 373.84 603.61 373.84C583.81 373.84 531.26 373.84 511.46 373.84C507.68 373.84 504.62 370.78 504.62 367C504.62 360.06 504.62 346.08 504.62 339.14C504.62 335.36 507.68 332.29 511.46 332.29C531.26 332.29 583.81 332.29 603.61 332.29Z" id="h4GleEwKY"></path><path d="M470.98 402.52C480.42 402.52 488.08 410.17 488.08 419.62C488.08 424.51 488.08 422.08 488.08 426.97C488.08 436.41 480.42 444.07 470.98 444.07C407.63 444.07 234.69 444.07 171.34 444.07C161.9 444.07 154.25 436.41 154.25 426.97C154.25 422.08 154.25 424.51 154.25 419.62C154.25 410.17 161.9 402.52 171.34 402.52C234.69 402.52 407.63 402.52 470.98 402.52Z" id="e6wQtBOZjf"></path><path d="M142.58 423.33C142.58 434.81 133.26 444.14 121.77 444.14C110.29 444.14 100.96 434.81 100.96 423.33C100.96 411.84 110.29 402.52 121.77 402.52C133.26 402.52 142.58 411.84 142.58 423.33Z" id="g11S1zyM5Z"></path><path d="M666.33 423.33C666.33 434.81 657.01 444.14 645.52 444.14C634.04 444.14 624.71 434.81 624.71 423.33C624.71 411.84 634.04 402.52 645.52 402.52C657.01 402.52 666.33 411.84 666.33 423.33Z" id="i4bHwzwhhY"></path><path d="M603.61 402.52C607.39 402.52 610.45 405.58 610.45 409.36C610.45 416.3 610.45 430.28 610.45 437.23C610.45 441 607.39 444.07 603.61 444.07C583.81 444.07 531.26 444.07 511.46 444.07C507.68 444.07 504.62 441 504.62 437.23C504.62 430.28 504.62 416.3 504.62 409.36C504.62 405.58 507.68 402.52 511.46 402.52C531.26 402.52 583.81 402.52 603.61 402.52Z" id="aoPADQMgX"></path></defs><g><g><g><use xlink:href="#b1XEG9Xtrr" opacity="1" fill="#222222" fill-opacity="1"></use></g><g><use xlink:href="#a3RJRiRFkN" opacity="1" fill="#fca311" fill-opacity="1"></use></g><g><use xlink:href="#a3ir79ONJB" opacity="1" fill="#1bafe0" fill-opacity="1"></use></g><g><use xlink:href="#e1s3x4I6d3" opacity="1" fill="#1bafe0" fill-opacity="1"></use></g><g><use xlink:href="#a2o1GLxvot" opacity="1" fill="#90cfa1" fill-opacity="1"></use></g><g><use xlink:href="#a7lx5l00mt" opacity="1" fill="#ffffff" fill-opacity="1"></use></g><g><use xlink:href="#cjZ9SpDq" opacity="1" fill="#ffffff" fill-opacity="1"></use></g><g><use xlink:href="#g5Dwrm0fQJ" opacity="1" fill="#f1877e" fill-opacity="1"></use></g><g><use xlink:href="#bjBBjlNmQ" opacity="1" fill="#fca311" fill-opacity="1"></use></g><g><use xlink:href="#a1JzdtofuJ" opacity="1" fill="#1bafe0" fill-opacity="1"></use><g><use xlink:href="#a1JzdtofuJ" opacity="1" fill-opacity="0" stroke="#000000" stroke-width="1" stroke-opacity="0"></use></g></g><g><use xlink:href="#ifsl050y5" opacity="1" fill="#1bafe0" fill-opacity="1"></use></g><g><use xlink:href="#a7Djm3HYkp" opacity="1" fill="#90cfa1" fill-opacity="1"></use></g><g><use xlink:href="#g5jnoNZSbx" opacity="1" fill="#ffffff" fill-opacity="1"></use></g><g><use xlink:href="#h48VkUeDRE" opacity="1" fill="#ffffff" fill-opacity="1"></use></g><g><use xlink:href="#h4GleEwKY" opacity="1" fill="#f1877e" fill-opacity="1"></use></g><g><use xlink:href="#e6wQtBOZjf" opacity="1" fill="#90cfa1" fill-opacity="1"></use></g><g><use xlink:href="#g11S1zyM5Z" opacity="1" fill="#ffffff" fill-opacity="1"></use></g><g><use xlink:href="#i4bHwzwhhY" opacity="1" fill="#ffffff" fill-opacity="1"></use></g><g><use xlink:href="#aoPADQMgX" opacity="1" fill="#f1877e" fill-opacity="1"></use></g></g></g></svg>