<?xml version="1.0" encoding="UTF-8"?>
<svg width="676px" height="241px" viewBox="0 0 676 241" version="1.1" xmlns="http://www.w3.org/2000/svg" xmlns:xlink="http://www.w3.org/1999/xlink">
    <!-- Generator: Sketch 47.1 (45422) - http://www.bohemiancoding.com/sketch -->
    <title>powered-by-madewithvue-2</title>
    <desc>Created with Sketch.</desc>
    <defs></defs>
    <g id="Page-1" stroke="none" stroke-width="1" fill="none" fill-rule="evenodd">
        <g id="powered-by-madewithvue-2">
            <g id="Text" transform="translate(273.000000, 9.000000)">
                <path d="M3.56979625,105.468433 L3.56979625,65.806064 C3.56688539,64.8006769 4.10805269,63.8723669 4.98436633,63.3795322 C6.09062241,62.7103078 7.37067268,62.3846145 8.66224851,62.4437397 C9.82242346,62.4115687 10.9636809,62.7425333 11.926641,63.3904136 C12.7764049,63.9039816 13.2962619,64.8240461 13.2976858,65.8169453 L13.2976858,69.3860144 C15.8017821,64.5384806 20.9057153,61.5994657 26.3552557,61.8670304 C29.1590884,61.8447375 31.8817628,62.8074937 34.0483406,64.5873575 C36.3636206,66.4844313 38.1387177,68.9575581 39.1951994,71.7581396 C40.6121441,68.7719334 42.8167383,66.2287496 45.5716461,64.4023752 C48.0607781,62.7665369 50.9717283,61.8894713 53.9502534,61.8779117 C58.502263,61.8547071 62.8511833,63.7603249 65.9196925,67.1227023 C69.2783896,70.6119751 70.9613653,75.2981919 70.9686195,81.1813525 L70.9686195,105.468433 C70.8780007,106.466669 70.2883063,107.35121 69.4017111,107.818795 C68.3357391,108.548044 67.0696087,108.928263 65.7782355,108.906926 C64.5187381,108.917984 63.2868677,108.537778 62.2526916,107.818795 C61.3677611,107.354801 60.7779938,106.474246 60.6857832,105.479314 L60.6857832,81.2466404 C60.8399069,78.47057 59.8487539,75.7527653 57.9436935,73.7276564 C56.2858244,71.9703602 53.9722264,70.9810704 51.5563656,70.996448 C49.1338731,70.9952809 46.8155541,71.9815488 45.1363937,73.7276564 C43.2133803,75.6673544 42.1878056,78.322015 42.3072536,81.0507768 L42.3072536,105.566364 C42.3391952,106.622721 41.7466156,107.598985 40.7947517,108.058184 C39.661665,108.638531 38.4002508,108.923004 37.1277509,108.885163 C35.9022134,108.905766 34.6907533,108.621596 33.602207,108.058184 C32.6271324,107.617335 32.0101556,106.636171 32.0352986,105.566364 L32.0352986,81.1487086 C32.1325353,78.4792646 31.1658068,75.8804478 29.3476155,73.9235199 C27.7106779,72.1057732 25.3737482,71.0759398 22.9276436,71.0943798 C20.500462,71.0698974 18.1732864,72.0599331 16.5076718,73.8255882 C14.6442719,75.8335348 13.6745224,78.5111426 13.8199886,81.2466404 L13.8199886,105.468433 C13.7277781,106.463364 13.1380108,107.34392 12.2530802,107.807914 C11.1864846,108.535857 9.92077896,108.915949 8.62960459,108.896045 C7.33558103,108.93707 6.06346626,108.555054 5.00612894,107.807914 C4.17545874,107.307998 3.63972801,106.435406 3.56979625,105.468433 Z" id="Shape" fill="#435B71" fill-rule="nonzero"></path>
                <path d="M78.3896717,96.7525046 C78.3896717,91.5294767 80.3483072,87.9023739 84.2655782,85.8711964 C88.1828491,83.8400188 93.862892,82.8135488 101.305707,82.7917861 L105.65823,82.7917861 L105.65823,80.9419637 C105.720821,78.2069485 104.875138,75.5283159 103.253461,73.325048 C101.650282,71.1850574 99.2164957,70.115062 95.9521032,70.115062 C93.39647,70.0586931 90.8640476,70.6106791 88.5636949,71.7254957 C87.4511875,72.3565719 86.2905252,72.8986994 85.0925576,73.3468106 C83.9645438,73.3394018 82.9301841,72.7179519 82.3939931,71.7254957 C81.7128005,70.6567509 81.357399,69.4128454 81.3711502,68.1455453 C81.3711502,66.4480612 82.952567,64.9972201 86.1154006,63.793022 C89.3163446,62.5464649 92.7237857,61.9151838 96.1588481,61.9323183 C102.883497,61.9323183 107.859882,63.7458696 111.088003,67.3729724 C114.368668,71.1121098 116.10374,75.9594177 115.941066,80.9310824 L115.941066,105.511958 C115.9045,106.500587 115.372828,107.40443 114.526496,107.916727 C113.474906,108.636282 112.219839,108.998687 110.946546,108.950451 C109.753308,108.980451 108.583317,108.617219 107.616866,107.916727 C106.790059,107.391414 106.276725,106.491043 106.245821,105.511958 L106.245821,102.04082 C101.893298,107.118764 96.9640649,109.657736 91.4581229,109.657736 C88.027369,109.788117 84.6775248,108.596195 82.1001978,106.328056 C79.6265137,104.122777 78.3896717,100.930927 78.3896717,96.7525046 Z M88.7704398,95.4793916 C88.6435826,97.2446507 89.2863431,98.9785172 90.5332117,100.234523 C91.8018918,101.345668 93.4513283,101.922776 95.1360051,101.844957 C97.8212647,101.761262 100.368982,100.637614 102.241499,98.7111401 C104.490303,96.6219289 105.614705,94.402142 105.614705,92.0517795 L105.614705,88.4065412 L103.166411,88.4065412 C100.759208,88.3757949 98.352657,88.5066647 95.9629845,88.7982683 C94.1484686,89.0409317 92.4277473,89.749464 90.968464,90.8548356 C89.5108643,91.9337067 88.6866166,93.6678912 88.7704398,95.4793916 Z" id="Shape" fill="#435B71" fill-rule="nonzero"></path>
                <path d="M124.613469,90.1910757 L124.613469,81.1813525 C124.514168,76.1527153 126.353164,71.2785956 129.749447,67.5688359 C132.835424,63.9393044 137.368351,61.860053 142.132375,61.888793 C144.830689,61.8450358 147.481387,62.6023779 149.749291,64.0650547 C151.859066,65.4015981 153.607877,67.2363556 154.841743,69.407777 L154.841743,38.2763541 C154.859248,37.2705169 155.421886,36.3536241 156.31072,35.8824663 C157.436582,35.2220703 158.727805,34.8973769 160.032127,34.9466738 C161.322078,34.8894639 162.600575,35.2109794 163.71001,35.871585 C164.576184,36.3586713 165.115746,37.2717761 165.12458,38.2654728 L165.12458,105.457551 C165.050974,106.434822 164.501794,107.313509 163.655603,107.807914 C162.597565,108.553614 161.325943,108.935482 160.032127,108.896045 C158.852458,108.911613 157.702129,108.52817 156.767735,107.807914 C155.940024,107.287675 155.413492,106.400671 155.353165,105.424907 L155.353165,101.95377 C154.133924,104.244404 152.278555,106.133782 150.010443,107.394424 C147.549892,108.895175 144.720657,109.682538 141.83858,109.668617 C137.268431,109.668617 133.253228,107.695474 129.792972,103.749186 C126.428767,100.03837 124.58031,95.1997609 124.613469,90.1910757 Z M134.896305,90.1910757 C134.902911,92.8666186 135.957614,95.4330618 137.834259,97.3400953 C139.582104,99.355323 142.119815,100.510994 144.787415,100.506556 C147.406829,100.475079 149.907037,99.406915 151.740571,97.5359588 C153.829782,95.5628149 154.874387,93.8617037 154.874387,92.4326252 L154.874387,81.2031151 C154.970146,78.4440499 153.862249,75.779538 151.838502,73.9017573 C149.978877,72.0886507 147.48256,71.0768412 144.885346,71.0834985 C142.217177,71.0810077 139.67362,72.2123565 137.888665,74.1955526 C135.992337,76.0359501 134.914258,78.5606161 134.896305,81.2031151 L134.896305,90.1910757 Z" id="Shape" fill="#435B71" fill-rule="nonzero"></path>
                <path d="M174.264879,90.1910757 L174.264879,80.8875572 C174.240913,75.778308 176.417406,70.9059758 180.238717,67.5144294 C184.106889,63.8059215 189.287906,61.7828205 194.645569,61.888793 C199.713407,61.7805781 204.633276,63.600735 208.410424,66.9812453 C212.147495,70.1954758 214.247754,74.9150678 214.133992,79.8429516 C214.186574,81.4844753 213.954643,83.1227148 213.44847,84.6851338 C213.088444,85.8018123 212.307931,86.7345248 211.272208,87.2857664 C210.4133,87.7427604 209.488025,88.0622006 208.530118,88.2324403 C207.426692,88.3809761 206.313669,88.446448 205.200438,88.4283038 L184.525952,88.4283038 L184.525952,90.6916159 C184.420584,93.7263216 185.751112,96.6333226 188.116784,98.5370392 C190.726124,100.562178 193.967715,101.599025 197.267964,101.464111 C199.922327,101.477075 202.538793,100.834172 204.88488,99.5925261 C206.235442,98.75735 207.702173,98.1266554 209.237403,97.720941 C210.377648,97.7468598 211.431888,98.3330006 212.055662,99.2878494 C212.768421,100.148543 213.181012,101.218222 213.230843,102.334616 C213.230843,103.945049 211.663935,105.573618 208.530118,107.220323 C204.935578,108.969018 200.969501,109.816758 196.974169,109.69038 C190.314808,109.69038 184.874154,107.876829 180.652207,104.249726 C176.467976,100.800053 174.110776,95.6118022 174.264879,90.1910757 L174.264879,90.1910757 Z M184.536834,81.8777563 L200.793508,81.8777563 C201.794319,81.9801126 202.802786,81.7791775 203.687936,81.3010469 C204.263128,80.6751014 204.530268,79.8258368 204.416984,78.9833283 C204.444247,76.5017275 203.411012,74.1264729 201.576962,72.4545433 C199.681734,70.6487814 197.142442,69.6769536 194.525875,69.7559789 C191.939134,69.7008303 189.424855,70.6126444 187.474787,72.3130863 C185.552775,73.9287209 184.471359,76.3318681 184.536834,78.8418713 L184.536834,81.8777563 Z" id="Shape" fill="#435B71" fill-rule="nonzero"></path>
                <path d="M237.615855,66.3936546 C237.721225,65.056079 238.559217,63.8870804 239.792117,63.3577696 C241.102191,62.549979 242.605754,62.1101868 244.14464,62.0846566 C245.492537,61.911915 246.784881,62.6792442 247.278457,63.9453603 L258.159765,94.4130233 L266.462203,67.3729724 C266.919218,65.8713518 268.127043,65.1205416 270.085679,65.1205416 C272.044314,65.1205416 273.25214,65.8713518 273.709155,67.3729724 L281.935424,94.576243 L292.903782,63.9235977 C293.295509,62.6831285 294.307471,62.0628939 295.939667,62.0628939 C297.477507,62.0952667 298.97931,62.5345441 300.292191,63.336007 C301.546716,63.8912714 302.386365,65.1003662 302.468452,66.4698238 C302.462086,67.0155577 302.327924,67.5522062 302.076725,68.0367322 L286.842894,107.797032 C286.320591,109.168077 284.949546,109.8536 282.729759,109.8536 C280.509972,109.8536 279.106283,109.200721 278.518693,107.894964 L269.998628,82.6285665 L261.576496,107.655575 C260.988905,109.157196 259.519929,109.908006 257.169566,109.908006 C254.993304,109.908006 253.62226,109.157196 253.056432,107.655575 L237.8226,68.0911387 C237.67564,67.5375704 237.606064,66.9663143 237.615855,66.3936546 Z" id="Shape" fill="#435B71" fill-rule="nonzero"></path>
                <path d="M308.126733,45.436255 C308.114331,43.9637477 308.760916,42.5628124 309.889505,41.6169158 C312.308137,39.5275589 315.893004,39.5275589 318.311637,41.6169158 C319.440502,42.5596608 320.092968,43.9546243 320.092968,45.4253737 C320.092968,46.896123 319.440502,48.2910865 318.311637,49.2338315 C315.91863,51.3909533 312.282512,51.3909533 309.889505,49.2338315 C308.771691,48.2890643 308.126838,46.8998435 308.126733,45.436255 L308.126733,45.436255 Z M309.008119,105.468433 L309.008119,65.806064 C309.013059,64.8084661 309.553153,63.8903072 310.422689,63.4012949 C311.528945,62.7320704 312.808995,62.4063771 314.100571,62.4655024 C315.404957,62.4155955 316.696348,62.7403313 317.821978,63.4012949 C318.714192,63.8743234 319.277392,64.7963031 319.290955,65.806064 L319.290955,105.468433 C319.207551,106.457135 318.636024,107.33892 317.767572,107.818795 C316.69105,108.560135 315.407214,108.941095 314.100571,108.906926 C312.806547,108.947951 311.534432,108.565935 310.477095,107.818795 C309.630904,107.32439 309.081725,106.445703 309.008119,105.468433 L309.008119,105.468433 Z" id="Shape" fill="#435B71" fill-rule="nonzero"></path>
                <path d="M329.965518,93.6186878 L329.965518,44.554869 C330.02467,43.5458106 330.623739,42.6472074 331.532427,42.2045064 C332.590239,41.5486954 333.813467,41.20891 335.05797,41.2251887 C336.319154,41.2122452 337.558941,41.5513966 338.637921,42.2045064 C339.565095,42.6333952 340.183127,43.5353872 340.248354,44.554869 L340.248354,62.4763837 L352.217794,62.4763837 C353.044836,62.4612497 353.821608,62.8722399 354.274361,63.5645145 C355.343262,65.2205643 355.343262,67.3491188 354.274361,69.0051686 C353.821608,69.6974432 353.044836,70.1084334 352.217794,70.0932994 L340.248354,70.0932994 L340.248354,93.5969252 C340.248354,95.9472878 340.756149,97.612128 341.771738,98.5914457 C342.787326,99.5707635 344.568234,100.060422 347.11446,100.060422 L350.542072,100.060422 C351.763941,99.9875153 352.956578,100.452644 353.806465,101.333535 C355.373373,103.128951 355.373373,105.805753 353.806465,107.601169 C352.957411,108.483311 351.764174,108.948674 350.542072,108.874282 L347.11446,108.874282 C335.681832,108.88879 329.965518,103.803592 329.965518,93.6186878 Z" id="Shape" fill="#435B71" fill-rule="nonzero"></path>
                <path d="M362.380935,105.468433 L362.380935,38.2763541 C362.389769,37.2826574 362.929331,36.3695526 363.795506,35.8824663 C364.904695,35.2212662 366.183372,34.8997052 367.473388,34.9575551 C368.762661,34.9200978 370.036681,35.2442567 371.15127,35.8933476 C372.062859,36.3480045 372.648872,37.2688826 372.674653,38.2872354 L372.674653,69.407777 C375.073139,64.7121571 379.938051,61.7940548 385.20992,61.888793 C389.847095,61.9026367 394.236107,63.9854223 397.179359,67.5688359 C400.520947,71.3052215 402.321334,76.1697676 402.217405,81.1813525 L402.217405,105.468433 C402.207327,106.528219 401.601281,107.492001 400.650497,107.960252 C399.550891,108.59747 398.29767,108.921125 397.027021,108.896045 C395.78944,108.915372 394.570186,108.595506 393.501477,107.971133 C392.548925,107.504846 391.942111,106.539843 391.934569,105.479314 L391.934569,81.2466404 C391.919969,78.6078957 390.864101,76.0816339 388.996615,74.2173153 C387.236375,72.2241389 384.702619,71.0861295 382.043459,71.0943798 C379.579772,71.1005063 377.223929,72.1056662 375.514674,73.8799947 C373.5803,75.8353196 372.550727,78.509842 372.674653,81.2575217 L372.674653,105.479314 C372.580504,106.473556 371.9913,107.353271 371.107745,107.818795 C370.04146,108.54739 368.775543,108.927545 367.484269,108.906926 C366.19035,108.947156 364.918482,108.565214 363.860793,107.818795 C363.010427,107.326977 362.456896,106.44784 362.380935,105.468433 Z" id="Shape" fill="#435B71" fill-rule="nonzero"></path>
                <path d="M0.870504659,153.015783 C0.908194237,152.167031 1.37028087,151.39416 2.10009249,150.959216 C2.84618059,150.394723 3.75430187,150.085656 4.68984385,150.07783 C5.71473342,149.982225 6.67703486,150.583663 7.04020643,151.546807 L19.9672006,186.802245 L32.8941948,151.982059 C33.4164976,150.74159 34.1673079,150.121355 35.1466256,150.121355 C36.0623595,150.164733 36.9462696,150.470702 37.6928517,151.002741 C38.4606697,151.37125 38.9804569,152.113803 39.0638966,152.961377 C39.0579348,153.507163 38.9237496,154.043904 38.6721695,154.528285 L22.9051538,195.877256 C22.5134267,196.921862 21.534109,197.444165 19.9672006,197.444165 C18.4002922,197.444165 17.4209745,196.921862 17.0292474,195.877256 L1.26223176,154.528285 C0.97906027,154.076468 0.842257075,153.548256 0.870504659,153.015783 Z" id="Shape" fill="#42B983" fill-rule="nonzero"></path>
                <path d="M46.2129161,178.869772 L46.2129161,152.754632 C46.2516786,152.085145 46.596931,151.470917 47.1487086,151.089792 C47.7967641,150.556746 48.6169029,150.278208 49.4555459,150.306337 C50.2504681,150.30378 51.0209198,150.581143 51.6318076,151.089792 C52.2001239,151.461543 52.5623239,152.077283 52.6111253,152.754632 L52.6111253,178.869772 C52.6117754,182.138155 53.9159485,185.271303 56.234601,187.574818 C58.44307,190.000914 61.5718538,191.383759 64.8525971,191.383759 C68.1333404,191.383759 71.2621242,190.000914 73.4705932,187.574818 C75.7892457,185.271303 77.0934188,182.138155 77.0940689,178.869772 L77.0940689,152.56965 C77.1114932,151.882932 77.4816369,151.253688 78.0733866,150.904809 C78.7339264,150.446154 79.5217586,150.206379 80.3258174,150.219287 C81.1061322,150.207477 81.8694084,150.447909 82.5020791,150.904809 C83.068536,151.270968 83.4153611,151.895253 83.4269903,152.56965 L83.4269903,178.815365 C83.4501066,183.705327 81.4446716,188.385989 77.8884044,191.742359 C72.6042426,196.995983 64.6931454,198.585717 57.7896992,195.781192 C50.8862531,192.976667 46.325206,186.320124 46.2020348,178.869772 L46.2129161,178.869772 Z" id="Shape" fill="#42B983" fill-rule="nonzero"></path>
                <path d="M93.513963,178.684789 L93.513963,167.705549 C93.4646188,162.899831 95.4392264,158.295046 98.9546171,155.017944 C106.202854,147.986475 117.693839,147.881141 125.069757,154.778555 C128.637657,158.04136 130.621272,162.686985 130.510411,167.520567 C130.557503,168.997226 130.34386,170.470622 129.879295,171.87309 C129.529055,172.893577 128.789902,173.734413 127.822728,174.212572 C127.005416,174.627155 126.133508,174.923897 125.232977,175.093958 C124.151724,175.245338 123.06018,175.31083 121.968584,175.289821 L99.868647,175.289821 L99.868647,178.913297 C99.7412846,182.477188 101.282142,185.896846 104.036188,188.162409 C107.075266,190.571685 110.879488,191.807574 114.754277,191.644427 C116.738918,191.684554 118.713501,191.352381 120.575777,190.66511 C121.927014,190.177337 123.210492,189.519144 124.395116,188.706474 C124.987036,188.179361 125.721374,187.838689 126.50609,187.727156 C127.266023,187.750949 127.970872,188.129554 128.410319,188.749999 C128.908122,189.306667 129.200012,190.017188 129.237298,190.763041 C129.237298,192.134086 127.833609,193.555911 125.026232,195.028514 C121.759868,196.588135 118.164803,197.334773 114.547532,197.204776 C108.345186,197.204776 103.285378,195.492783 99.3681068,192.068798 C95.5063795,188.712566 93.3570859,183.798753 93.513963,178.684789 L93.513963,178.684789 Z M99.8795283,170.654384 L119.465883,170.654384 C120.803792,170.772665 122.150092,170.555762 123.383154,170.023268 C124.140878,169.353764 124.509248,168.346884 124.362472,167.346466 C124.380292,164.145826 123.132656,161.067804 120.891335,158.782877 C118.63763,156.343423 115.440989,154.994964 112.121,155.083232 C108.863372,155.017645 105.719791,156.282936 103.415954,158.587013 C101.103049,160.751543 99.8043367,163.787134 99.8360031,166.954739 L99.8795283,170.654384 Z" id="Shape" fill="#42B983" fill-rule="nonzero"></path>
                <path d="M137.866175,192.32995 C137.825562,191.043089 138.263677,189.786899 139.095763,188.804406 C139.865057,187.878089 141.014865,187.353264 142.218699,187.378955 C143.38536,187.395234 144.481768,187.939436 145.200177,188.858813 C146.044675,189.816085 146.502418,191.053543 146.484172,192.32995 C146.491618,193.575095 146.033693,194.778119 145.200177,195.703155 C144.479598,196.618448 143.38352,197.158486 142.218699,197.172132 C141.014865,197.197823 139.865057,196.672998 139.095763,195.746681 C138.276353,194.799672 137.838123,193.581937 137.866175,192.32995 Z" id="Shape" fill="#42B983" fill-rule="nonzero"></path>
                <path d="M147.071762,216.377641 C147.042494,215.578331 147.323189,214.798623 147.855216,214.201379 C148.34935,213.639979 149.066141,213.325388 149.813852,213.341756 C152.715534,213.341756 154.608882,212.282642 155.493895,210.164414 C156.378908,208.046186 156.835923,204.872471 156.86494,200.643269 L156.86494,152.56965 C156.846212,151.8867 157.178915,151.241831 157.746326,150.861284 C159.135218,149.982861 160.90582,149.982861 162.294712,150.861284 C162.874025,151.235889 163.222627,151.879778 163.219624,152.56965 L163.219624,200.752082 C163.219624,213.084232 158.910626,219.250306 150.292629,219.250306 C149.391205,219.326658 148.500167,219.013805 147.844335,218.390683 C147.344694,217.839548 147.069133,217.121539 147.071762,216.377641 L147.071762,216.377641 Z M156.86494,135.333657 C156.048186,134.593854 155.585179,133.541205 155.591827,132.439229 C155.580949,131.352032 156.046072,130.314451 156.86494,129.599208 C157.716231,128.813648 158.84084,128.39192 159.998756,128.424027 C161.113674,128.397328 162.192329,128.820945 162.991116,129.599208 C163.786775,130.327542 164.234053,131.360636 164.220704,132.439229 C164.231968,133.531009 163.790813,134.578753 163.001997,135.333657 C162.218055,136.140512 161.134392,136.585799 160.009638,136.563245 C158.838655,136.593237 157.705011,136.149978 156.86494,135.333657 Z" id="Shape" fill="#42B983" fill-rule="nonzero"></path>
                <path d="M172.631955,190.229857 C172.651163,189.521565 172.890796,188.836898 173.317478,188.271222 C173.640371,187.700627 174.229999,187.332109 174.884386,187.291904 C175.696613,187.445972 176.450057,187.822694 177.060648,188.380035 C178.367266,189.311327 179.781097,190.082176 181.271714,190.675991 C183.34653,191.503735 185.567276,191.903469 187.800499,191.851172 C191.260755,191.851172 193.799727,191.198294 195.417415,189.892537 C196.98725,188.716661 197.897795,186.859148 197.865709,184.898016 C197.951843,182.734854 197.031777,180.653655 195.373889,179.261499 C193.602957,177.801203 191.551237,176.719791 189.345645,176.084157 L182.251032,173.907895 C179.923497,173.220188 177.825428,171.915475 176.179262,170.132081 C174.445597,168.145133 173.552084,165.562138 173.687442,162.928655 C173.683952,159.439758 175.088506,156.097076 177.58295,153.65778 C180.158193,151.01725 184.024685,149.693357 189.182425,149.686103 C192.237492,149.66262 195.272744,150.178319 198.148623,151.209486 C200.91973,152.225075 202.30891,153.313206 202.316164,154.473878 C202.276706,155.260961 202.003988,156.018513 201.53271,156.65014 C201.162326,157.341855 200.455759,157.788108 199.672006,157.825321 C198.435042,157.449375 197.22453,156.991343 196.048531,156.454277 C193.922505,155.559045 191.641521,155.089539 189.334763,155.07235 C186.070371,155.07235 183.622077,155.841296 181.98988,157.379188 C180.468531,158.674515 179.576853,160.560909 179.541586,162.558691 C179.506559,164.46114 180.467963,166.243658 182.076931,167.259416 C183.945257,168.492624 185.993516,169.428656 188.148701,170.034149 L195.308602,172.156004 C197.709927,172.892203 199.811542,174.379735 201.304202,176.399715 C203.018573,178.794342 203.880606,181.694605 203.752497,184.636865 C203.911763,188.207655 202.369805,191.642749 199.595837,193.896858 C196.817476,196.145662 192.947358,197.270064 187.985481,197.270064 C184.226317,197.379856 180.495417,196.588906 177.104173,194.963226 C174.122694,193.439843 172.631955,191.862054 172.631955,190.229857 Z" id="Shape" fill="#42B983" fill-rule="nonzero"></path>
                <path d="M4.275,27.3841601 L4.275,9.44611454 C4.275,9.09610215 4.44514236,8.81415195 4.78543219,8.60025548 C5.12572202,8.38635902 5.54864732,8.27941239 6.05422078,8.27941239 C6.55979424,8.27941239 6.97785833,8.38635902 7.30842559,8.60025548 C7.63899285,8.81415195 7.804274,9.09610215 7.804274,9.44611454 L7.804274,10.3211412 C8.17373153,9.6988969 8.70360346,9.17388618 9.39390568,8.74609325 C10.0842079,8.31830032 10.8668628,8.10440707 11.7418938,8.10440707 C13.2002787,8.10440707 14.4350262,8.6828911 15.4461731,9.83987652 C16.45732,10.9968619 16.9628859,12.3920293 16.9628859,14.0254205 L16.9628859,16.4171599 C16.9628859,17.9922157 16.4475976,19.3825218 15.4170055,20.5881201 C14.3864135,21.7937183 13.2002782,22.3965084 11.858564,22.3965084 C11.0224233,22.3965084 10.2494908,22.1680315 9.53974345,21.7110709 C8.8299961,21.2541103 8.32929143,20.7145159 8.03761443,20.0922717 L8.03761443,27.3841601 C8.03761443,27.6952822 7.84802723,27.9723712 7.46884714,28.2154354 C7.08966704,28.4584995 6.63757448,28.5800298 6.11255589,28.5800298 C5.58753729,28.5800298 5.15002836,28.4584995 4.80001597,28.2154354 C4.45000357,27.9723712 4.275,27.6952822 4.275,27.3841601 Z M8.03761443,16.9421759 C8.03761443,17.3310785 8.30011979,17.7880323 8.82513839,18.3130509 C9.35015698,18.8380695 9.94322464,19.1005748 10.6043592,19.1005748 C11.2849388,19.1005748 11.8877289,18.8234858 12.4127475,18.2692996 C12.9377661,17.7151133 13.2002714,17.0977395 13.2002714,16.4171599 L13.2002714,14.0254205 C13.2002714,13.3448408 12.9377661,12.7371895 12.4127475,12.2024484 C11.8877289,11.6677072 11.265494,11.4003406 10.5460241,11.4003406 C9.88488953,11.4003406 9.30154429,11.6434012 8.79597083,12.1295295 C8.29039737,12.6156578 8.03761443,13.2476152 8.03761443,14.0254205 L8.03761443,16.9421759 Z M18.8587769,16.4171599 L18.8587769,14.0254205 C18.8587769,12.4309196 19.4810118,11.0454746 20.7255003,9.86904407 C21.9699888,8.69261352 23.4575192,8.10440707 25.188136,8.10440707 C26.8798626,8.10440707 28.3576706,8.68775231 29.6216042,9.85446029 C30.8855379,11.0211683 31.5174952,12.4114744 31.5174952,14.0254205 L31.5174952,16.4171599 C31.5174952,17.9922157 30.8855379,19.3825218 29.6216042,20.5881201 C28.3576706,21.7937183 26.8798626,22.3965084 25.188136,22.3965084 C23.4964095,22.3965084 22.0186015,21.7937183 20.7546679,20.5881201 C19.4907342,19.3825218 18.8587769,17.9922157 18.8587769,16.4171599 Z M22.6213913,16.4171599 C22.6213913,17.1171847 22.8741743,17.7394196 23.3797477,18.2838833 C23.8853212,18.8283471 24.4881113,19.1005748 25.188136,19.1005748 C25.8687157,19.1005748 26.4666446,18.8283471 26.9819406,18.2838833 C27.4972366,17.7394196 27.7548808,17.1171847 27.7548808,16.4171599 L27.7548808,14.0254205 C27.7548808,13.364286 27.4972366,12.7614959 26.9819406,12.2170321 C26.4666446,11.6725684 25.8687157,11.4003406 25.188136,11.4003406 C24.4881113,11.4003406 23.8853212,11.6677072 23.3797477,12.2024484 C22.8741743,12.7371895 22.6213913,13.3448408 22.6213913,14.0254205 L22.6213913,16.4171599 Z M32.6550298,9.67945497 C32.6550298,9.25166204 32.9272576,8.88707127 33.4717213,8.58567171 C34.016185,8.28427214 34.5606406,8.13357462 35.1051043,8.13357462 C35.6690132,8.13357462 36.0287427,8.33774546 36.1843038,8.74609325 L39.1010592,17.0296785 L41.2886257,9.82529274 C41.4441868,9.31971928 41.8719733,9.06693634 42.5719981,9.06693634 C43.2720229,9.06693634 43.6998094,9.31971928 43.8553704,9.82529274 L46.0137694,17.0588461 L48.9596924,8.74609325 C49.1152534,8.33774546 49.474983,8.13357462 50.0388918,8.13357462 C50.5639104,8.13357462 51.0986436,8.28913335 51.6431073,8.60025548 C52.187571,8.91137761 52.4597988,9.2808296 52.4597988,9.70862253 C52.4597988,9.92251899 52.4209091,10.0975226 52.3431286,10.2336385 L47.8513253,21.7839898 C47.6763191,22.2312278 47.1804757,22.4548435 46.3637801,22.4548435 C45.5081942,22.4548435 44.9929059,22.2312278 44.8178997,21.7839898 L42.5719981,15.4254631 L40.355264,21.7548222 C40.1802578,22.2215054 39.6455247,22.4548435 38.7510485,22.4548435 C37.9537981,22.4548435 37.4676771,22.2215054 37.2926709,21.7548222 L32.8008676,10.2336385 C32.7036419,10.0391872 32.6550298,9.85446117 32.6550298,9.67945497 Z M53.5973334,16.4171599 L53.5973334,13.9379178 C53.5973334,12.3434169 54.2195683,10.9725556 55.4640568,9.82529274 C56.7085454,8.67802989 58.2155206,8.10440707 59.9850277,8.10440707 C61.637864,8.10440707 63.0524762,8.62455658 64.2289067,9.66487119 C65.4053373,10.7051858 65.9935438,12.0128514 65.9935438,13.5879072 C65.9935438,14.1712612 65.9206256,14.652521 65.7747871,15.0317011 C65.6289486,15.4108812 65.4053329,15.6782477 65.1039334,15.8338088 C64.8025338,15.9893699 64.5254448,16.0865941 64.2726581,16.1254844 C64.0198713,16.1643746 63.689309,16.1838195 63.2809613,16.1838195 L57.3599478,16.1838195 L57.3599478,16.6213328 C57.3599478,17.4574735 57.6710653,18.1331817 58.2933096,18.6484778 C58.9155538,19.1637738 59.7419596,19.4214179 60.7725516,19.4214179 C61.5114667,19.4214179 62.2406482,19.2366919 62.9601182,18.8672344 C63.6795881,18.4977769 64.1462643,18.3130509 64.3601607,18.3130509 C64.7685085,18.3130509 65.1087933,18.5026381 65.3810251,18.8818182 C65.653257,19.2609983 65.7893709,19.6255891 65.7893709,19.9756014 C65.7893709,20.5200652 65.2983886,21.0596595 64.3164094,21.5944007 C63.3344302,22.1291418 62.1142664,22.3965084 60.6558814,22.3965084 C58.5752522,22.3965084 56.8786898,21.8471916 55.5661433,20.7485416 C54.2535968,19.6498916 53.5973334,18.2061121 53.5973334,16.4171599 Z M57.3599478,13.9670854 L61.6184107,13.9670854 C61.9295328,13.9670854 62.1482873,13.9136121 62.2746806,13.8066638 C62.401074,13.6997156 62.4642697,13.4906836 62.4642697,13.1795614 C62.4642697,12.4989818 62.216348,11.9448038 61.7204971,11.5170109 C61.2246462,11.0892179 60.6169949,10.8753247 59.897525,10.8753247 C59.2169454,10.8753247 58.6238777,11.0843567 58.1183042,11.5024271 C57.6127308,11.9204974 57.3599478,12.4698142 57.3599478,13.1503939 L57.3599478,13.9670854 Z M68.2394454,20.9381307 L68.2394454,9.44611454 C68.2394454,9.09610215 68.4095878,8.81415195 68.7498776,8.60025548 C69.0901674,8.38635902 69.5325376,8.27941239 70.0770013,8.27941239 C70.5631296,8.27941239 70.9666101,8.38635902 71.2874548,8.60025548 C71.6082995,8.81415195 71.7687194,9.09610215 71.7687194,9.44611454 L71.7687194,10.6419842 C72.0798415,9.96140459 72.5659626,9.36833693 73.2270971,8.86276347 C73.8882316,8.35719001 74.5979683,8.10440707 75.3563285,8.10440707 L76.2605227,8.10440707 C76.6105351,8.10440707 76.9265137,8.26968822 77.2084682,8.60025548 C77.4904226,8.93082274 77.6313977,9.30999715 77.6313977,9.73779008 C77.6313977,10.1850281 77.4904226,10.573925 77.2084682,10.9044922 C76.9265137,11.2350595 76.6105351,11.4003406 76.2605227,11.4003406 L75.3563285,11.4003406 C74.4618524,11.4003406 73.6791975,11.7989599 73.0083404,12.5962103 C72.3374833,13.3934608 72.0020598,14.4337598 72.0020598,15.7171386 L72.0020598,20.9381307 C72.0020598,21.2298077 71.8076114,21.5020355 71.4187088,21.7548222 C71.0298061,22.007609 70.5825747,22.1340004 70.0770013,22.1340004 C69.5519827,22.1340004 69.1144738,22.0124702 68.7644614,21.769406 C68.414449,21.5263418 68.2394454,21.2492529 68.2394454,20.9381307 Z M78.4189217,16.4171599 L78.4189217,13.9379178 C78.4189217,12.3434169 79.0411566,10.9725556 80.2856451,9.82529274 C81.5301336,8.67802989 83.0371088,8.10440707 84.8066159,8.10440707 C86.4594522,8.10440707 87.8740644,8.62455658 89.050495,9.66487119 C90.2269255,10.7051858 90.815132,12.0128514 90.815132,13.5879072 C90.815132,14.1712612 90.7422138,14.652521 90.5963753,15.0317011 C90.4505368,15.4108812 90.2269212,15.6782477 89.9255216,15.8338088 C89.624122,15.9893699 89.3470331,16.0865941 89.0942463,16.1254844 C88.8414596,16.1643746 88.5108973,16.1838195 88.1025495,16.1838195 L82.1815361,16.1838195 L82.1815361,16.6213328 C82.1815361,17.4574735 82.4926535,18.1331817 83.1148978,18.6484778 C83.7371421,19.1637738 84.5635478,19.4214179 85.5941399,19.4214179 C86.3330549,19.4214179 87.0622365,19.2366919 87.7817064,18.8672344 C88.5011763,18.4977769 88.9678525,18.3130509 89.181749,18.3130509 C89.5900968,18.3130509 89.9303815,18.5026381 90.2026134,18.8818182 C90.4748452,19.2609983 90.6109591,19.6255891 90.6109591,19.9756014 C90.6109591,20.5200652 90.1199769,21.0596595 89.1379977,21.5944007 C88.1560184,22.1291418 86.9358546,22.3965084 85.4774697,22.3965084 C83.3968404,22.3965084 81.700278,21.8471916 80.3877315,20.7485416 C79.075185,19.6498916 78.4189217,18.2061121 78.4189217,16.4171599 Z M82.1815361,13.9670854 L86.4399989,13.9670854 C86.7511211,13.9670854 86.9698755,13.9136121 87.0962689,13.8066638 C87.2226623,13.6997156 87.285858,13.4906836 87.285858,13.1795614 C87.285858,12.4989818 87.0379363,11.9448038 86.5420854,11.5170109 C86.0462345,11.0892179 85.4385832,10.8753247 84.7191133,10.8753247 C84.0385336,10.8753247 83.4454659,11.0843567 82.9398925,11.5024271 C82.434319,11.9204974 82.1815361,12.4698142 82.1815361,13.1503939 L82.1815361,13.9670854 Z M92.5651852,16.4171599 L92.5651852,14.0254205 C92.5651852,12.4114744 93.0756123,11.0211683 94.0964818,9.85446029 C95.1173513,8.68775231 96.3375151,8.10440707 97.7570098,8.10440707 C98.6125956,8.10440707 99.3660833,8.31830032 100.017495,8.74609325 C100.668907,9.17388618 101.169612,9.6988969 101.519624,10.3211412 L101.519624,1.36670215 C101.519624,1.01668976 101.699489,0.734739555 102.059224,0.520843091 C102.418959,0.306946628 102.871051,0.2 103.415515,0.2 C103.959979,0.2 104.40721,0.306946628 104.757223,0.520843091 C105.107235,0.734739555 105.282239,1.01668976 105.282239,1.36670215 L105.282239,20.9381307 C105.282239,21.2492529 105.102374,21.5263418 104.742639,21.769406 C104.382904,22.0124702 103.940534,22.1340004 103.415515,22.1340004 C102.968277,22.1340004 102.574519,22.007609 102.234229,21.7548222 C101.893939,21.5020355 101.723797,21.2298077 101.723797,20.9381307 L101.723797,20.0922717 C101.412675,20.7145159 100.882803,21.2541103 100.134165,21.7110709 C99.3855278,22.1680315 98.5639833,22.3965084 97.6695071,22.3965084 C96.327793,22.3965084 95.1416576,21.7937183 94.1110656,20.5881201 C93.0804735,19.3825218 92.5651852,17.9922157 92.5651852,16.4171599 Z M96.3277997,16.4171599 C96.3277997,17.0977395 96.5805826,17.7151133 97.0861561,18.2692996 C97.5917295,18.8234858 98.1847972,19.1005748 98.8653768,19.1005748 C99.5459565,19.1005748 100.158469,18.8332083 100.702933,18.2984671 C101.247396,17.7637259 101.519624,17.3116334 101.519624,16.9421759 L101.519624,14.0254205 C101.519624,13.2476152 101.252258,12.6156578 100.717516,12.1295295 C100.182775,11.6434012 99.575124,11.4003406 98.8945444,11.4003406 C98.1945196,11.4003406 97.5917295,11.6677072 97.0861561,12.2024484 C96.5805826,12.7371895 96.3277997,13.3448408 96.3277997,14.0254205 L96.3277997,16.4171599 Z M114.09084,20.9381307 L114.09084,1.36670215 C114.09084,1.01668976 114.260982,0.734739555 114.601272,0.520843091 C114.941562,0.306946628 115.383932,0.2 115.928396,0.2 C116.47286,0.2 116.929813,0.306946628 117.299271,0.520843091 C117.668728,0.734739555 117.853454,1.01668976 117.853454,1.36670215 L117.853454,10.3211412 C118.184022,9.6988969 118.675004,9.17388618 119.326416,8.74609325 C119.977828,8.31830032 120.731315,8.10440707 121.586901,8.10440707 C123.006396,8.10440707 124.22656,8.68775231 125.247429,9.85446029 C126.268299,11.0211683 126.778726,12.4114744 126.778726,14.0254205 L126.778726,16.4171599 C126.778726,17.9922157 126.263437,19.3825218 125.232845,20.5881201 C124.202253,21.7937183 123.016118,22.3965084 121.674404,22.3965084 C120.799373,22.3965084 119.98269,22.1680315 119.224329,21.7110709 C118.465969,21.2541103 117.931236,20.7145159 117.620114,20.0922717 L117.620114,20.9381307 C117.620114,21.2298077 117.449972,21.5020355 117.109682,21.7548222 C116.769392,22.007609 116.375634,22.1340004 115.928396,22.1340004 C115.403377,22.1340004 114.965868,22.0124702 114.615856,21.769406 C114.265843,21.5263418 114.09084,21.2492529 114.09084,20.9381307 Z M117.853454,16.9421759 C117.853454,17.3116334 118.120821,17.7637259 118.655562,18.2984671 C119.190303,18.8332083 119.797955,19.1005748 120.478534,19.1005748 C121.159114,19.1005748 121.752181,18.8234858 122.257755,18.2692996 C122.763328,17.7151133 123.016111,17.0977395 123.016111,16.4171599 L123.016111,14.0254205 C123.016111,13.3448408 122.763328,12.7371895 122.257755,12.2024484 C121.752181,11.6677072 121.149391,11.4003406 120.449367,11.4003406 C119.788232,11.4003406 119.190303,11.6434012 118.655562,12.1295295 C118.120821,12.6156578 117.853454,13.2476152 117.853454,14.0254205 L117.853454,16.9421759 Z M127.79959,26.9758143 C127.79959,25.9257772 128.12043,25.4007664 128.762119,25.4007664 C129.676041,25.4007664 130.575365,25.0702041 131.460118,24.4090696 C132.344872,23.7479351 132.835854,22.6493016 132.93308,21.113136 L127.91626,10.3794763 C127.83848,10.1850249 127.79959,10.0197438 127.79959,9.88362785 C127.79959,9.41694465 128.086402,8.99888056 128.660033,8.62942304 C129.233664,8.25996551 129.782981,8.07523951 130.308,8.07523951 C130.891354,8.07523951 131.251083,8.28913277 131.387199,8.7169257 L134.887306,17.4380243 L137.716558,8.7169257 C137.852674,8.28913277 138.183237,8.07523951 138.708255,8.07523951 C139.213829,8.07523951 139.768007,8.26482672 140.370806,8.64400681 C140.973605,9.02318691 141.275,9.45583463 141.275,9.94196296 C141.275,10.097524 141.245833,10.2433603 141.187497,10.3794763 L136.929034,21.2589738 L136.433186,22.5423462 C136.199844,23.2034807 136.029702,23.6604345 135.922754,23.9132212 C135.815806,24.1660079 135.63108,24.559766 135.36857,25.0945071 C135.106061,25.6292483 134.872723,26.0181451 134.668549,26.2612093 C134.464375,26.5042734 134.177564,26.8056685 133.808106,27.1654034 C133.438649,27.5251384 133.064336,27.7876438 132.685155,27.9529274 C132.305975,28.118211 131.84416,28.2640473 131.299697,28.3904407 C130.755233,28.5168341 130.162165,28.5800298 129.520476,28.5800298 C128.956567,28.5800298 128.52878,28.4730832 128.237103,28.2591867 C127.945426,28.0452903 127.79959,27.6175037 127.79959,26.9758143 Z" id="powered-by" fill="#3D5B72"></path>
            </g>
            <g id="Shapes" fill-rule="nonzero">
                <path d="M61.5594937,190.713924 C63.7164557,192.526582 65.9949367,194.258228 68.3240506,195.868354 C70.6531646,197.478481 73.1443038,199.027848 75.6151899,200.425316 L75.6860759,200.425316 C97.5063073,212.613757 123.360268,215.353904 147.250633,208.010127 C148.141772,207.736709 149.032911,207.443038 149.913924,207.139241 L149.913924,207.139241 L149.974684,207.139241 C150.805063,206.855696 151.625316,206.551899 152.44557,206.248101 L152.860759,206.086076 C153.589873,205.802532 154.329114,205.518987 155.058228,205.21519 L155.392405,205.083544 C157.083544,204.374684 158.764557,203.61519 160.394937,202.825316 L160.617722,202.713924 C161.346835,202.359494 162.065823,201.98481 162.78481,201.610127 L163.159494,201.407595 C163.895359,201.016034 164.624473,200.614346 165.346835,200.202532 L165.498734,200.121519 C167.058228,199.23038 168.627848,198.278481 170.167089,197.275949 L170.43038,197.103797 C171.105485,196.658228 171.780591,196.209283 172.455696,195.756962 L172.739241,195.564557 C174.946835,194.01519 177.124051,192.344304 179.2,190.602532 L179.443038,190.389873 C180.077637,189.849789 180.708861,189.302954 181.336709,188.749367 L181.468354,188.627848 C182.835443,187.402532 184.182278,186.116456 185.518987,184.810127 L185.56962,184.759494 C186.183966,184.138397 186.788186,183.507173 187.382278,182.865823 L187.544304,182.693671 C189.417722,180.668354 191.210127,178.562025 192.881013,176.394937 L192.941772,176.313924 C193.488608,175.605063 194.025316,174.886076 194.551899,174.167089 L194.622785,174.075949 C196.243038,171.837975 197.792405,169.488608 199.210127,167.098734 L199.270886,167.007595 C201.177292,163.786584 202.885115,160.452101 204.38481,157.022785 C205.532489,154.383122 206.545148,151.729958 207.422785,149.063291 L207.422785,149.063291 L207.422785,148.962025 C214.431227,127.550764 213.302778,104.307597 204.253165,83.6759494 C203.088608,81.0227848 201.792405,78.4405063 200.405063,75.9392405 L200.35443,75.8379747 C198.977215,73.3772152 197.468354,70.9468354 195.868354,68.6177215 L195.777215,68.4860759 C195.270886,67.750211 194.751055,67.021097 194.217722,66.2987342 L194.217722,66.2278481 C193.009283,64.6818565 191.821097,63.1966245 190.653165,61.7721519 L190.551899,61.6506329 C189.998312,60.9755274 189.437975,60.3274262 188.870886,59.7063291 L188.648101,59.4632911 C187.402532,58.0658228 186.116456,56.7189873 184.83038,55.4126582 L184.759494,55.3417722 C184.151899,54.7409283 183.534177,54.1468354 182.906329,53.5594937 L182.562025,53.2455696 C181.974684,52.6987342 181.377215,52.1586498 180.76962,51.6253165 L180.556962,51.4329114 C179.210127,50.2582278 177.802532,49.1037975 176.364557,47.9898734 L175.929114,47.6556962 C175.348523,47.2101266 174.761181,46.771308 174.167089,46.3392405 L173.731646,46.0253165 C172.283544,45.0126582 170.78481,44 169.296203,42.9873418 L168.810127,42.6835443 L167.007595,41.5898734 L166.420253,41.2455696 C165.745148,40.8540084 165.070042,40.4725738 164.394937,40.1012658 L164.091139,39.9291139 C163.308017,39.5037975 162.518143,39.0886076 161.721519,38.6835443 L161.255696,38.4506329 L159.341772,37.5189873 L158.653165,37.1949367 L156.779747,36.3544304 L156.202532,36.1012658 C155.385654,35.750211 154.562025,35.4126582 153.731646,35.0886076 L153.427848,34.9772152 C152.705485,34.6936709 151.979747,34.4202532 151.250633,34.156962 L150.511392,33.8936709 L148.637975,33.2556962 L147.918987,33.0227848 C128.167566,26.7766406 106.882822,27.4048672 87.5341772,34.8050633 C84.8,35.8177215 82.0962025,37.043038 79.4835443,38.3493671 L79.4025316,38.3493671 C76.8405063,39.6253165 74.3392405,41.0531646 71.8582278,42.5822785 L71.756962,42.643038 C69.3367089,44.1518987 66.9670886,45.8025316 64.6683544,47.5341772 L64.5367089,47.635443 C62.2886076,49.356962 60.0911392,51.2101266 58.0151899,53.1341772 L57.8734177,53.2658228 C57.1983122,53.9004219 56.5232068,54.5383966 55.8481013,55.1797468 C54.4978903,56.5299578 53.1814346,57.9139241 51.8987342,59.3316456 L51.7468354,59.5037975 C51.1594937,60.178903 50.578903,60.8540084 50.0050633,61.5291139 L49.9037975,61.6506329 C48.6987342,63.0886076 47.5240506,64.5873418 46.4101266,66.1063291 L46.2683544,66.2987342 C45.7552743,66.9738397 45.2523207,67.6793249 44.7594937,68.4151899 L44.6075949,68.6278481 C43.5443038,70.1772152 42.521519,71.7772152 41.5696203,73.3772152 L41.4481013,73.5797468 C41.0092827,74.3156118 40.5805907,75.0616034 40.1620253,75.8177215 L40,76.1012658 C39.0886076,77.7518987 38.2177215,79.443038 37.4075949,81.164557 L37.3265823,81.3367089 C36.9518987,82.1265823 36.5974684,82.9164557 36.243038,83.7063291 L36.0911392,84.0506329 C35.3316456,85.8025316 34.6227848,87.5848101 33.9848101,89.3367089 L33.9848101,89.4481013 C33.6810127,90.2886076 33.3974684,91.1291139 33.1240506,91.9696203 L33.0025316,92.3544304 C32.7257384,93.2050633 32.4624473,94.0624473 32.2126582,94.9265823 L32.2025316,95.1898734 C27.2234641,112.608026 27.512398,131.110367 33.0329114,148.364557 L33.164557,148.779747 C33.421097,149.556118 33.6843882,150.329114 33.9544304,151.098734 L34.0556962,151.392405 C34.6835443,153.124051 35.3721519,154.865823 36.0810127,156.567089 L36.2126582,156.870886 C36.5367089,157.613502 36.8742616,158.352743 37.2253165,159.088608 L37.3974684,159.443038 C38.1974684,161.134177 39.0481013,162.794937 39.9189873,164.38481 L39.9189873,164.465823 C40.3341772,165.21519 40.7696203,165.974684 41.2151899,166.734177 L41.3772152,167.017722 C41.843038,167.807595 42.2886076,168.526582 42.7443038,169.255696 L42.8151899,169.377215 C43.8278481,170.916456 44.8405063,172.41519 45.9341772,173.974684 L46.0962025,174.197468 C46.5890295,174.872574 47.0919831,175.547679 47.6050633,176.222785 L47.756962,176.425316 C48.9012658,177.903797 50.0962025,179.351899 51.3113924,180.739241 C51.9291139,181.437975 52.5265823,182.106329 53.1443038,182.764557 L53.3164557,182.946835 C55.2,184.972152 57.2151899,186.926582 59.2810127,188.779747 L59.4025316,188.881013 C60.0810127,189.488608 60.7696203,190.086076 61.4278481,190.673418 L61.4278481,190.673418 L61.5594937,190.713924 Z" id="Shape" fill="#FFFFFF"></path>
                <path d="M119.949367,240.901266 C117.131873,240.89947 114.528082,239.398916 113.113924,236.962025 L104.496203,222.035443 L103.868354,221.944304 C58.9950974,214.964911 23.8808727,179.604473 17.2151899,134.683544 L17.1240506,134.055696 L3.95949367,126.43038 C1.51958638,125.023641 0.0161769936,122.421455 0.0161769936,119.605063 C0.0161769936,116.788672 1.51958638,114.186485 3.95949367,112.779747 L17.1746835,105.144304 L17.2658228,104.516456 C24.1127818,59.0781589 59.996984,23.5357895 105.498734,17.1240506 L106.136709,17.0329114 L113.134177,4.88101266 C114.540916,2.44110536 117.143102,0.937695981 119.959494,0.937695981 C122.775885,0.937695981 125.378072,2.44110536 126.78481,4.88101266 L133.873418,17.0936709 L134.501266,17.1848101 C179.574552,23.7932799 215.057789,59.0423444 221.964557,104.070886 L222.055696,104.698734 L235.949367,112.820253 C238.389274,114.226992 239.892684,116.829178 239.892684,119.64557 C239.892684,122.461961 238.389274,125.064147 235.949367,126.470886 L222.025316,134.511392 L221.934177,135.139241 C215.113928,179.570343 180.448636,214.550476 136.081013,221.772152 L135.463291,221.873418 L126.774684,236.962025 C125.362344,239.395793 122.763243,240.895867 119.949367,240.901266 Z M60.8607595,189.934177 C63.0177215,191.746835 65.2962025,193.478481 67.6253165,195.088608 C69.9544304,196.698734 72.4455696,198.248101 74.9164557,199.64557 L74.9873418,199.64557 C96.8075731,211.83401 122.661534,214.574157 146.551899,207.23038 C147.443038,206.956962 148.334177,206.663291 149.21519,206.359494 L149.21519,206.359494 L149.275949,206.359494 C150.106329,206.075949 150.926582,205.772152 151.746835,205.468354 L152.162025,205.306329 C152.891139,205.022785 153.63038,204.739241 154.359494,204.435443 L154.693671,204.303797 C156.38481,203.594937 158.065823,202.835443 159.696203,202.04557 L159.918987,201.934177 C160.648101,201.579747 161.367089,201.205063 162.086076,200.83038 L162.460759,200.627848 C163.196624,200.236287 163.925738,199.834599 164.648101,199.422785 L164.8,199.341772 C166.359494,198.450633 167.929114,197.498734 169.468354,196.496203 L169.731646,196.324051 C170.406751,195.878481 171.081857,195.429536 171.756962,194.977215 L172.040506,194.78481 C174.248101,193.235443 176.425316,191.564557 178.501266,189.822785 L178.744304,189.610127 C179.378903,189.070042 180.010127,188.523207 180.637975,187.96962 L180.76962,187.848101 C182.136709,186.622785 183.483544,185.336709 184.820253,184.03038 L184.870886,183.979747 C185.485232,183.35865 186.089451,182.727426 186.683544,182.086076 L186.84557,181.913924 C188.718987,179.888608 190.511392,177.782278 192.182278,175.61519 L192.243038,175.534177 C192.789873,174.825316 193.326582,174.106329 193.853165,173.387342 L193.924051,173.296203 C195.544304,171.058228 197.093671,168.708861 198.511392,166.318987 L198.572152,166.227848 C200.478558,163.006837 202.186381,159.672355 203.686076,156.243038 C204.833755,153.603376 205.846414,150.950211 206.724051,148.283544 L206.724051,148.283544 L206.724051,148.182278 C213.734473,126.763621 212.60237,103.512237 203.544304,82.8759494 C202.379747,80.2227848 201.083544,77.6405063 199.696203,75.1392405 L199.64557,75.0379747 C198.268354,72.5772152 196.759494,70.1468354 195.159494,67.8177215 L195.068354,67.6860759 C194.562025,66.950211 194.042194,66.221097 193.508861,65.4987342 L193.508861,65.4278481 C192.367932,63.8751055 191.2,62.3864979 190.005063,60.9620253 L189.903797,60.8405063 C189.350211,60.1654008 188.789873,59.5172996 188.222785,58.8962025 L188,58.6531646 C186.75443,57.2556962 185.468354,55.9088608 184.182278,54.6025316 L184.111392,54.5316456 C183.503797,53.9308017 182.886076,53.3367089 182.258228,52.7493671 L181.913924,52.435443 C181.326582,51.8886076 180.729114,51.3485232 180.121519,50.8151899 L179.908861,50.6227848 C178.562025,49.4481013 177.15443,48.2936709 175.716456,47.1797468 L175.281013,46.8455696 C174.700422,46.4 174.11308,45.9611814 173.518987,45.5291139 L173.083544,45.2151899 C171.635443,44.2025316 170.136709,43.1898734 168.648101,42.1772152 L168.162025,41.8734177 L166.359494,40.7797468 L165.772152,40.435443 C165.097046,40.0438819 164.421941,39.6624473 163.746835,39.2911392 L163.443038,39.1189873 C162.659916,38.6936709 161.870042,38.278481 161.073418,37.8734177 L160.607595,37.6405063 L158.693671,36.7088608 L157.974684,36.4556962 L156.101266,35.6151899 L155.524051,35.3620253 C154.707173,35.0109705 153.883544,34.6734177 153.053165,34.3493671 L152.749367,34.2379747 C152.027004,33.9544304 151.301266,33.6810127 150.572152,33.4177215 L149.832911,33.1544304 L147.959494,32.5164557 L147.240506,32.2835443 C127.489085,26.0374001 106.204341,26.6656267 86.8556962,34.0658228 C84.121519,35.078481 81.4177215,36.3037975 78.8050633,37.6101266 L78.7240506,37.6101266 C76.1620253,38.8860759 73.6607595,40.3139241 71.1797468,41.843038 L71.078481,41.9037975 C68.6582278,43.4126582 66.2886076,45.0632911 63.9898734,46.7949367 L63.8582278,46.8962025 C61.6101266,48.6177215 59.4126582,50.4708861 57.3367089,52.3949367 L57.1949367,52.5265823 C56.5198312,53.1611814 55.8447257,53.7991561 55.1696203,54.4405063 C53.8194093,55.7907173 52.5029536,57.1746835 51.2202532,58.5924051 L51.0683544,58.764557 C50.4810127,59.4396624 49.9004219,60.1147679 49.3265823,60.7898734 L49.2253165,60.9113924 C48.0202532,62.3493671 46.8455696,63.8481013 45.7316456,65.3670886 L45.5898734,65.5594937 C45.0767932,66.2345992 44.5738397,66.9400844 44.0810127,67.6759494 L43.9291139,67.8886076 C42.8658228,69.4379747 41.843038,71.0379747 40.8911392,72.6379747 L40.7696203,72.8405063 C40.3308017,73.5763713 39.9021097,74.3223629 39.4835443,75.078481 L39.321519,75.3620253 C38.4101266,77.0126582 37.5392405,78.7037975 36.7291139,80.4253165 L36.6481013,80.5974684 C36.2734177,81.3873418 35.9189873,82.1772152 35.564557,82.9670886 L35.4126582,83.3113924 C34.7443038,85.0632911 34.035443,86.835443 33.4177215,88.5873418 L33.4177215,88.6987342 C33.1139241,89.5392405 32.8303797,90.3797468 32.556962,91.2202532 L32.435443,91.6050633 C32.1586498,92.4556962 31.8953586,93.3130802 31.6455696,94.1772152 L31.5746835,94.4405063 C26.595616,111.858659 26.8845499,130.361 32.4050633,147.61519 L32.5367089,148.03038 C32.7932489,148.806751 33.0565401,149.579747 33.3265823,150.349367 L33.4278481,150.643038 C34.0556962,152.374684 34.7443038,154.116456 35.4531646,155.817722 L35.5848101,156.121519 C35.9088608,156.864135 36.2464135,157.603376 36.5974684,158.339241 L36.7696203,158.693671 C37.5696203,160.38481 38.4202532,162.04557 39.2911392,163.635443 L39.2911392,163.716456 C39.7063291,164.465823 40.1417722,165.225316 40.5873418,165.98481 L40.7493671,166.268354 C41.2151899,167.058228 41.6607595,167.777215 42.1164557,168.506329 L42.1873418,168.627848 C43.2,170.167089 44.2126582,171.665823 45.3063291,173.225316 L45.4683544,173.448101 C45.9611814,174.123207 46.464135,174.798312 46.9772152,175.473418 L47.1291139,175.675949 C48.2734177,177.15443 49.4683544,178.602532 50.6835443,179.989873 C51.3012658,180.688608 51.8987342,181.356962 52.5164557,182.01519 L52.6886076,182.197468 C54.5721519,184.222785 56.5873418,186.177215 58.6531646,188.03038 L58.7746835,188.131646 C59.4531646,188.739241 60.1417722,189.336709 60.8,189.924051 L60.8,189.924051 L60.8607595,189.934177 Z" id="Shape" fill="#435B71"></path>
                <polygon id="Shape" fill="#435B71" points="159.534177 97.5189873 163.088608 58.5620253 127.574684 74.9670886 92.0607595 91.3721519 111.443038 105.043038 125.124051 98.7240506 138.794937 92.4050633 137.427848 107.412658 136.060759 122.420253 155.989873 136.475949"></polygon>
                <path d="M178.956962,148.648101 L190.096203,23.4835443 C190.171524,22.6909774 189.816231,21.9188492 189.16529,21.4604697 C188.514349,21.0020903 187.667652,20.9278012 186.946835,21.2658228 L72.7594937,73.7113924 C72.0437489,74.0404575 71.5602386,74.7289762 71.4936709,75.5139241 C71.4176769,76.3074 71.7733591,77.0806222 72.4253165,77.5392405 L92.0708861,91.4025316 L127.594937,74.9367089 L163.108861,58.5316456 L159.534177,97.5189873 L155.949367,136.475949 L175.453165,150.237975 C176.097687,150.691 176.934164,150.768095 177.650633,150.440506 C178.379161,150.12447 178.879174,149.438406 178.956962,148.648101 L178.956962,148.648101 Z" id="Shape" fill="#42B983"></path>
                <polygon id="Shape" fill="#435B71" points="112.081013 166.612658 76.6886076 183.270886 79.9594937 144.293671 83.2303797 105.306329 102.703797 118.84557 101.448101 133.853165 100.182278 148.870886 113.812658 142.450633 127.453165 136.040506 147.473418 149.95443"></polygon>
                <path d="M166.764557,167.372152 L52.9518987,220.637975 C52.2362593,220.97236 51.3967777,220.900858 50.7479988,220.450259 C50.0992199,219.99966 49.7390845,219.237988 49.8025316,218.450633 L60.0202532,93.164557 C60.0848668,92.381855 60.5641373,91.6938699 61.2759494,91.3620253 C61.9906525,91.0314903 62.8270309,91.1047216 63.4734177,91.5544304 L83.2202532,105.316456 L80,144.293671 L76.6886076,183.291139 L112.131646,166.632911 L147.574684,149.974684 L167.088608,163.564557 C167.744398,164.020765 168.104147,164.794421 168.03038,165.589873 C167.956848,166.367334 167.474402,167.046619 166.764557,167.372152 Z" id="Shape" fill="#42B983"></path>
            </g>
        </g>
    </g>
</svg>