<?xml version="1.0" encoding="utf-8"?>
<!-- Generator: Adobe Illustrator 21.1.0, SVG Export Plug-In . SVG Version: 6.00 Build 0)  -->
<svg version="1.1" id="Artwork" xmlns="http://www.w3.org/2000/svg" xmlns:xlink="http://www.w3.org/1999/xlink" x="0px" y="0px"
	 viewBox="0 0 65.3 55.8" style="enable-background:new 0 0 65.3 55.8;" xml:space="preserve">
<style type="text/css">
	.st0{fill:#FFFFFF;}
	.st1{fill:#F6914D;}
</style>
<g>
	<path class="st0" d="M28.5,2H5.9C1.1,2,1.1,2,1.1,6.4c0,4.3,0,4.3,4.7,4.3h13.5v15.3l9.2-7.2V2z"/>
	<path class="st1" d="M19.3,49.4c0,4.4,0,4.4,4.6,4.4c4.6,0,4.6,0,4.6-4.4V27.6l-9.2,7.2V49.4z"/>
	<path class="st0" d="M35.8,2h22.6c4.7,0,5.7,0,5.7,4.3c0,4.3-1,4.3-5.7,4.3H45v15.3l-9.2-7.2V2z"/>
	<path class="st1" d="M45,49.4c0,4.4,0,4.4-4.6,4.4c-4.6,0-4.6,0-4.6-4.4V27.6l9.2,7.2V49.4z"/>
</g>
</svg>
