<?xml version="1.0" encoding="UTF-8" standalone="no"?>
<!DOCTYPE svg PUBLIC "-//W3C//DTD SVG 1.1//EN" "http://www.w3.org/Graphics/SVG/1.1/DTD/svg11.dtd">
<svg version="1.1" xmlns="http://www.w3.org/2000/svg" xmlns:xlink="http://www.w3.org/1999/xlink" preserveAspectRatio="xMidYMid meet" viewBox="0 0 720 720" width="720" height="720"><defs><path d="M0 106.99L159.68 106.99L159.68 586.96L0 586.96L0 106.99Z" id="a1GCROqoH7"></path><path d="M159.68 106.99L720 106.99L720 586.96L159.68 586.96L159.68 106.99Z" id="a2bnQQB4i"></path><path d="M361.4 224.41L692.24 224.41L692.24 467.09L361.4 467.09L361.4 224.41Z" id="b7jzeRRYL"></path><path d="M361.4 492.99L692.24 492.99L692.24 586.96L361.4 586.96L361.4 492.99Z" id="f6lCQZu423"></path><path d="M361.4 168.69L506.22 168.69L506.22 181.14L361.4 181.14L361.4 168.69Z" id="bdbURVjD1"></path><path d="M199.55 224.41L318.33 224.41L318.33 236.87L199.55 236.87L199.55 224.41Z" id="a2JpwG6qXI"></path><path d="M199.55 256.51L318.33 256.51L318.33 268.97L199.55 268.97L199.55 256.51Z" id="b9kq4utQ7"></path><path d="M199.55 288.89L318.33 288.89L318.33 301.34L199.55 301.34L199.55 288.89Z" id="cgh7UQWXc"></path><path d="M199.55 320.75L318.33 320.75L318.33 333.2L199.55 333.2L199.55 320.75Z" id="a2CnOGedLL"></path><path d="M199.55 352.87L318.33 352.87L318.33 365.32L199.55 365.32L199.55 352.87Z" id="b5rBLfXC0W"></path><path d="M199.55 384.73L318.33 384.73L318.33 397.18L199.55 397.18L199.55 384.73Z" id="aMQmIRqXg"></path><path d="M199.55 416.85L318.33 416.85L318.33 429.3L199.55 429.3L199.55 416.85Z" id="j5uZMS8S1t"></path><path d="M159.68 106.99L720 106.99L720 123.23L159.68 123.23L159.68 106.99Z" id="abSEhASt2"></path><path d="M0 586.96L720 586.96L720 618.99L0 618.99L0 586.96Z" id="bbWA3LL0R"></path></defs><g><g><g><use xlink:href="#a1GCROqoH7" opacity="1" fill="#2a68b2" fill-opacity="1"></use></g><g><use xlink:href="#a2bnQQB4i" opacity="1" fill="#fafafa" fill-opacity="1"></use></g><g><use xlink:href="#b7jzeRRYL" opacity="1" fill="#e1e1e1" fill-opacity="1"></use></g><g><use xlink:href="#f6lCQZu423" opacity="1" fill="#e1e1e1" fill-opacity="1"></use></g><g><use xlink:href="#bdbURVjD1" opacity="1" fill="#e1e1e1" fill-opacity="1"></use></g><g><use xlink:href="#a2JpwG6qXI" opacity="1" fill="#e1e1e1" fill-opacity="1"></use></g><g><use xlink:href="#b9kq4utQ7" opacity="1" fill="#e1e1e1" fill-opacity="1"></use></g><g><use xlink:href="#cgh7UQWXc" opacity="1" fill="#e1e1e1" fill-opacity="1"></use></g><g><use xlink:href="#a2CnOGedLL" opacity="1" fill="#e1e1e1" fill-opacity="1"></use></g><g><use xlink:href="#b5rBLfXC0W" opacity="1" fill="#e1e1e1" fill-opacity="1"></use></g><g><use xlink:href="#aMQmIRqXg" opacity="1" fill="#e1e1e1" fill-opacity="1"></use></g><g><use xlink:href="#j5uZMS8S1t" opacity="1" fill="#e1e1e1" fill-opacity="1"></use></g><g><use xlink:href="#abSEhASt2" opacity="1" fill="#afafaf" fill-opacity="1"></use></g><g><use xlink:href="#bbWA3LL0R" opacity="1" fill="#000000" fill-opacity="1"></use></g></g></g></svg>