<svg viewBox="0 0 801 204" xmlns="http://www.w3.org/2000/svg" fill-rule="evenodd" clip-rule="evenodd" stroke-linejoin="round" stroke-miterlimit="1.414"><path d="M0 0h30.448l30.865 89.884 5.422 19.186h1.668l5.84-19.186L106.359 0h30.448L82.376 149.319H52.762L0 0zM211.258 135.972h-1.669c-3.197 5.144-7.507 9.211-12.93 12.2-5.422 2.989-11.609 4.484-18.56 4.484-12.93 0-22.558-3.962-28.884-11.887-6.326-7.925-9.489-18.491-9.489-31.699V47.132h27.32v58.601c0 7.369 1.633 12.826 4.901 16.371 3.267 3.545 8.029 5.318 14.285 5.318 3.754 0 7.056-.799 9.906-2.398 2.85-1.599 5.283-3.754 7.299-6.465s3.545-5.909 4.588-9.593c1.043-3.685 1.564-7.612 1.564-11.783V47.132h27.32v102.187h-25.651v-13.347zM352.861 124.711c-4.727 8.342-11.088 15.085-19.082 20.229-7.995 5.144-17.761 7.716-29.301 7.716-7.786 0-14.981-1.355-21.585-4.067-6.604-2.711-12.339-6.499-17.205-11.365-4.866-4.866-8.654-10.601-11.365-17.205-2.712-6.604-4.067-13.869-4.067-21.794 0-7.368 1.321-14.355 3.962-20.959 2.642-6.603 6.326-12.373 11.053-17.309 4.727-4.935 10.323-8.863 16.788-11.783 6.465-2.919 13.59-4.379 21.376-4.379 8.203 0 15.502 1.355 21.898 4.066 6.395 2.712 11.748 6.465 16.058 11.262 4.31 4.797 7.577 10.462 9.801 16.996 2.225 6.535 3.337 13.626 3.337 21.272v2.503a14.04 14.04 0 0 0-.208 2.294 11.72 11.72 0 0 0-.209 2.294h-76.954c.556 4.171 1.703 7.751 3.441 10.74 1.738 2.989 3.893 5.492 6.465 7.508s5.388 3.475 8.446 4.379a32.943 32.943 0 0 0 9.385 1.356c6.256 0 11.435-1.425 15.537-4.276 4.101-2.85 7.334-6.43 9.697-10.74l22.732 11.262zm-24.817-39.624c-.139-1.807-.73-3.823-1.773-6.048-1.043-2.224-2.572-4.31-4.588-6.256-2.016-1.947-4.518-3.546-7.508-4.797-2.989-1.251-6.569-1.877-10.74-1.877-5.839 0-10.983 1.669-15.432 5.005-4.449 3.337-7.577 7.995-9.385 13.973h49.426z" fill="#18ca84" fill-rule="nonzero"/><path d="M460.471 0v101.979c0 8.342-1.286 15.676-3.858 22.002-2.572 6.326-6.048 11.609-10.428 15.849-4.379 4.241-9.523 7.439-15.432 9.594-5.909 2.155-12.27 3.232-19.082 3.232-11.818 0-22.141-3.198-30.969-9.593-8.829-6.395-14.981-15.224-18.457-26.485l25.86-10.636c1.808 6.673 4.727 11.678 8.759 15.015 4.032 3.337 8.968 5.005 14.807 5.005 6.534 0 11.609-2.085 15.224-6.256s5.422-10.011 5.422-17.518V28.154h-44.134V0h72.288zM553.298 146.928a56.743 56.743 0 0 1-3.674 1.661c-6.604 2.712-13.868 4.067-21.793 4.067-7.924 0-15.189-1.355-21.793-4.067-6.604-2.711-12.304-6.465-17.101-11.261-4.796-4.797-8.55-10.532-11.261-17.205-2.711-6.674-4.067-13.973-4.067-21.898 0-7.924 1.356-15.223 4.067-21.897 2.711-6.673 6.465-12.408 11.261-17.205 4.797-4.797 10.497-8.55 17.101-11.262 6.604-2.711 13.869-4.066 21.793-4.066 7.925 0 15.189 1.355 21.793 4.066 6.604 2.712 12.305 6.465 17.101 11.262 4.797 4.797 8.551 10.532 11.262 17.205 2.711 6.674 4.066 13.973 4.066 21.897 0 7.925-1.355 15.224-4.066 21.898-2.711 6.673-6.465 12.408-11.262 17.205-.413.414-.834.819-1.261 1.217l9.594 14.669a10.564 10.564 0 0 1 7.761 4.725l20.487 31.321a3.566 3.566 0 0 1-1.033 4.937l-12.933 8.46a3.566 3.566 0 0 1-4.937-1.033l-20.487-31.321a10.566 10.566 0 0 1-1.219-9.004l-9.399-14.371zm-25.467-19.506c3.476 0 6.848-.66 10.115-1.981a25.812 25.812 0 0 0 8.655-5.735c2.502-2.503 4.483-5.562 5.943-9.176 1.46-3.615 2.19-7.717 2.19-12.305s-.73-8.689-2.19-12.304-3.441-6.673-5.943-9.176a25.812 25.812 0 0 0-8.655-5.735 26.746 26.746 0 0 0-10.115-1.981c-3.614 0-7.021.66-10.218 1.981-3.198 1.321-6.048 3.233-8.551 5.735-2.502 2.503-4.484 5.561-5.943 9.176-1.46 3.615-2.19 7.716-2.19 12.304s.73 8.69 2.19 12.305c1.459 3.614 3.441 6.673 5.943 9.176 2.503 2.502 5.353 4.414 8.551 5.735 3.197 1.321 6.604 1.981 10.218 1.981z" fill="#2c3e50"/><path d="M595.4 0h27.32v44.838l-1.668 14.598h1.668c2.503-4.31 6.395-7.995 11.679-11.053 5.283-3.059 11.817-4.588 19.603-4.588 6.534 0 12.756 1.355 18.665 4.066 5.909 2.712 11.122 6.465 15.641 11.262 4.518 4.797 8.098 10.532 10.74 17.205 2.642 6.674 3.962 13.973 3.962 21.897 0 7.925-1.32 15.224-3.962 21.898-2.642 6.673-6.222 12.408-10.74 17.205-4.519 4.796-9.732 8.55-15.641 11.261-5.909 2.712-12.131 4.067-18.665 4.067-7.786 0-14.32-1.529-19.603-4.588-5.284-3.059-9.176-6.743-11.679-11.053h-1.668v12.304H595.4V0zm52.971 127.422c3.615 0 7.056-.695 10.323-2.086a27.157 27.157 0 0 0 8.655-5.839c2.503-2.502 4.518-5.561 6.048-9.176 1.529-3.615 2.294-7.647 2.294-12.096s-.765-8.48-2.294-12.095c-1.53-3.615-3.545-6.674-6.048-9.176a27.177 27.177 0 0 0-8.655-5.84c-3.267-1.39-6.708-2.085-10.323-2.085s-7.056.66-10.323 1.981a25.812 25.812 0 0 0-8.655 5.735c-2.502 2.503-4.518 5.561-6.047 9.176-1.53 3.615-2.294 7.716-2.294 12.304s.764 8.69 2.294 12.305c1.529 3.614 3.545 6.673 6.047 9.176a25.812 25.812 0 0 0 8.655 5.735c3.267 1.321 6.708 1.981 10.323 1.981zM756.815 152.656c-6.673 0-12.617-.834-17.83-2.502-5.214-1.669-9.732-3.859-13.556-6.57-3.823-2.711-7.056-5.839-9.697-9.384-2.642-3.546-4.658-7.126-6.048-10.74l24.4-10.428c2.363 5.283 5.526 9.211 9.489 11.783 3.962 2.572 8.376 3.858 13.242 3.858 5.006 0 8.968-.903 11.888-2.711 2.919-1.807 4.379-3.962 4.379-6.465 0-2.78-1.216-5.04-3.65-6.778-2.433-1.737-6.638-3.302-12.617-4.692l-14.389-3.128c-3.198-.695-6.5-1.807-9.906-3.337a38.756 38.756 0 0 1-9.281-5.839c-2.78-2.364-5.074-5.214-6.882-8.551-1.807-3.336-2.711-7.229-2.711-11.678 0-5.005 1.078-9.454 3.233-13.347 2.155-3.893 5.109-7.195 8.863-9.906 3.754-2.711 8.168-4.797 13.243-6.256 5.074-1.46 10.531-2.19 16.371-2.19 9.732 0 18.421 1.911 26.068 5.735 7.647 3.823 13.277 9.906 16.892 18.248l-23.566 9.593c-1.946-4.032-4.796-6.952-8.55-8.759-3.754-1.808-7.508-2.711-11.261-2.711-3.893 0-7.3.799-10.219 2.398-2.92 1.599-4.38 3.65-4.38 6.152 0 2.364 1.217 4.241 3.65 5.631 2.433 1.39 5.735 2.641 9.906 3.754l15.641 3.754c10.427 2.502 18.178 6.499 23.253 11.991 5.074 5.492 7.612 11.991 7.612 19.499 0 4.449-1.043 8.69-3.129 12.721-2.085 4.032-5.039 7.612-8.863 10.741-3.823 3.128-8.411 5.596-13.764 7.403-5.353 1.807-11.296 2.711-17.831 2.711z" fill="#2c3e50" fill-rule="nonzero"/></svg>