<svg id="Layer_1" data-name="Layer 1" xmlns="http://www.w3.org/2000/svg" viewBox="0 0 350 139"><defs><style>.cls-1{fill:#1697f6;}.cls-2{fill:#f0f0f0;}.cls-3{fill:#fff;}.cls-4{opacity:0.03;}.cls-5{fill:#efefef;}.cls-6{opacity:0.05;}.cls-7{opacity:0.3;}</style></defs><title>feature2</title><polygon class="cls-1" points="2831 2400.74 -532 1155.12 2831 -90.5 2831 2400.74"/><rect class="cls-2" width="350" height="139"/><rect class="cls-1" x="87.95" width="262.05" height="45.71"/><rect class="cls-3" width="87.95" height="139"/><g class="cls-4"><rect x="11.67" y="42.91" width="58.33" height="6.53" rx="3" ry="3"/></g><rect class="cls-5" x="19.74" y="12.13" width="46.67" height="6.53" rx="3" ry="3"/><g class="cls-4"><rect x="11.67" y="56.91" width="58.33" height="6.53" rx="3" ry="3"/></g><g class="cls-4"><rect x="11.67" y="71.83" width="58.33" height="6.53" rx="3" ry="3"/></g><g class="cls-4"><rect x="11.67" y="86.76" width="58.33" height="6.53" rx="3" ry="3"/></g><g class="cls-4"><rect x="11.67" y="100.75" width="58.33" height="6.53" rx="3" ry="3"/></g><g class="cls-4"><rect x="11.67" y="115.68" width="58.33" height="6.53" rx="3" ry="3"/></g><rect class="cls-3" x="127" y="26.12" width="188" height="112.88"/><g class="cls-6"><rect x="136.88" y="50.38" width="161.18" height="6.53" rx="3" ry="3"/></g><g class="cls-4"><path d="M298.06,72.77a2.91,2.91,0,0,0-3-2.8H139.88a2.81,2.81,0,1,0,0,5.6H295.06A2.91,2.91,0,0,0,298.06,72.77Z"/></g><g class="cls-4"><path d="M298.06,84a2.91,2.91,0,0,0-3-2.8H139.88a2.81,2.81,0,1,0,0,5.6H295.06A2.91,2.91,0,0,0,298.06,84Z"/></g><g class="cls-4"><path d="M298.06,96.09a2.91,2.91,0,0,0-3-2.8H139.88a2.81,2.81,0,1,0,0,5.6H295.06A2.91,2.91,0,0,0,298.06,96.09Z"/></g><g class="cls-7"><rect class="cls-3" x="96.67" y="5.6" width="16.33" height="6.53" rx="3" ry="3"/></g></svg>